<?xml version="1.0"?>
<Project_Data Version="8.00">
<Project_Settings>
<ProfileName>MP4 with Smart Player (up to 1080p)</ProfileName>
<ProjectWidth>1920</ProjectWidth>
<ProjectHeight>1080</ProjectHeight>
<IsCustomProject>1</IsCustomProject>
<SavedProjectSettings>1</SavedProjectSettings>
<LastFlashTemplate>-1</LastFlashTemplate>
</Project_Settings>


<AutoSaveFile>C:\Users\wliu\AppData\Local\TechSmith\Camtasia Studio\8.0\Auto-Saves\Jenkinsfba73b.autosave.camproj</AutoSaveFile>

<ProjectID>8CC1E867-8355-43FC-9A3A-7BA33144A5B0</ProjectID>

<PowerPointProject>0</PowerPointProject>

<PowerPointFilename></PowerPointFilename>


<Project_Notes>
</Project_Notes>

<Project_MetaData>
<Project_MetaData_Object>
<FieldArrayKey>8</FieldArrayKey>
<Value>Jenkins</Value>
</Project_MetaData_Object>
<Project_MetaData_Object>
<FieldArrayKey>13</FieldArrayKey>
<Value>2014-10-30 09:21:45 PM</Value>
</Project_MetaData_Object>
<Project_MetaData_Object>
<FieldArrayKey>16</FieldArrayKey>
<Value>ENU</Value>
</Project_MetaData_Object>
</Project_MetaData>

<CSMLData>
<GoProject id="1" version="3.0" >
 <Project id="2" editRate="30/1" version="3.0" >
  <Author></Author>
  <Comment></Comment>
  <System></System>
  <SourceBin id="3"  >
    <Source id="4" src="C:\Users\wliu\Dropbox\fiu\CEN5011_Advanced Software Engineering\Jenkins\Jenkins Camtasia Source Files\1.Start PPT.trec" lastMod="20141102T183816" rect="(0,0,1920,1080)" >
      <SourceTrack range="(0,726)" type="0" editRate="30/1" trackRect="(0,0,1920,1080)" sampleRate="0/1" bitDepth="0" numChannels="0" filename="1.Start PPT.trec!Strack0.tsc2" metaData="1.Start PPT.trec;" />
      <SourceTrack range="(0,1059840)" type="2" editRate="44100/1" trackRect="(0,0,0,0)" sampleRate="44100/1" bitDepth="16" numChannels="2" filename="1.Start PPT.trec!Maudio1.mp4" metaData="" />
      <SourceTrack range="(0,1015808)" type="2" editRate="44100/1" trackRect="(0,0,0,0)" sampleRate="44100/1" bitDepth="16" numChannels="2" filename="1.Start PPT.trec!$audio2.mp4" metaData="" />
    </Source>
    <Source id="5" src="C:\Users\wliu\Dropbox\fiu\CEN5011_Advanced Software Engineering\Jenkins\Jenkins Camtasia Source Files\2.Front Page.trec" lastMod="20141102T185408" rect="(0,0,1920,1080)" >
      <SourceTrack range="(0,687)" type="0" editRate="30/1" trackRect="(0,0,1920,1080)" sampleRate="0/1" bitDepth="0" numChannels="0" filename="2.Front Page.trec!Strack0.tsc2" metaData="2.Front Page.trec;" />
      <SourceTrack range="(0,993280)" type="2" editRate="44100/1" trackRect="(0,0,0,0)" sampleRate="44100/1" bitDepth="16" numChannels="2" filename="2.Front Page.trec!Maudio1.mp4" metaData="" />
      <SourceTrack range="(0,971776)" type="2" editRate="44100/1" trackRect="(0,0,0,0)" sampleRate="44100/1" bitDepth="16" numChannels="2" filename="2.Front Page.trec!$audio2.mp4" metaData="" />
    </Source>
    <Source id="6" src="C:\Users\wliu\Dropbox\fiu\CEN5011_Advanced Software Engineering\Jenkins\Jenkins Camtasia Source Files\3.Project Page.trec" lastMod="20141102T190053" rect="(0,0,1920,1080)" >
      <SourceTrack range="(0,245)" type="0" editRate="30/1" trackRect="(0,0,1920,1080)" sampleRate="0/1" bitDepth="0" numChannels="0" filename="3.Project Page.trec!Strack0.tsc2" metaData="3.Project Page.trec;" />
      <SourceTrack range="(0,354304)" type="2" editRate="44100/1" trackRect="(0,0,0,0)" sampleRate="44100/1" bitDepth="16" numChannels="2" filename="3.Project Page.trec!Maudio1.mp4" metaData="" />
      <SourceTrack range="(0,354304)" type="2" editRate="44100/1" trackRect="(0,0,0,0)" sampleRate="44100/1" bitDepth="16" numChannels="2" filename="3.Project Page.trec!$audio2.mp4" metaData="" />
    </Source>
    <Source id="7" src="C:\Users\wliu\Dropbox\fiu\CEN5011_Advanced Software Engineering\Jenkins\Jenkins Camtasia Source Files\4.Build Detail Page1.trec" lastMod="20141102T192221" rect="(0,0,1920,1080)" >
      <SourceTrack range="(0,1105)" type="0" editRate="30/1" trackRect="(0,0,1920,1080)" sampleRate="0/1" bitDepth="0" numChannels="0" filename="4.Build Detail Page1.trec!Strack0.tsc2" metaData="4.Build Detail Page1.trec;" />
      <SourceTrack range="(0,1610752)" type="2" editRate="44100/1" trackRect="(0,0,0,0)" sampleRate="44100/1" bitDepth="16" numChannels="2" filename="4.Build Detail Page1.trec!Maudio1.mp4" metaData="" />
      <SourceTrack range="(0,1589248)" type="2" editRate="44100/1" trackRect="(0,0,0,0)" sampleRate="44100/1" bitDepth="16" numChannels="2" filename="4.Build Detail Page1.trec!$audio2.mp4" metaData="" />
    </Source>
    <Source id="8" src="C:\Users\wliu\Dropbox\fiu\CEN5011_Advanced Software Engineering\Jenkins\Jenkins Camtasia Source Files\Main Funcotionality.png" lastMod="20141102T193530" rect="(0,0,780,238)" >
      <SourceTrack range="(0,1)" type="1" editRate="10000000/1" trackRect="(0,0,780,238)" sampleRate="0/1" bitDepth="24" numChannels="0" filename="" metaData="" />
    </Source>
    <Source id="9" src="C:\Users\wliu\Dropbox\fiu\CEN5011_Advanced Software Engineering\Jenkins\Jenkins Camtasia Source Files\5.Main Functionality.trec" lastMod="20141102T194239" rect="(0,0,1920,1080)" >
      <SourceTrack range="(0,3889)" type="0" editRate="30/1" trackRect="(0,0,1920,1080)" sampleRate="0/1" bitDepth="0" numChannels="0" filename="5.Main Functionality.trec!Strack0.tsc2" metaData="5.Main Functionality.trec;" />
      <SourceTrack range="(0,5712896)" type="2" editRate="44100/1" trackRect="(0,0,0,0)" sampleRate="44100/1" bitDepth="16" numChannels="2" filename="5.Main Functionality.trec!Maudio1.mp4" metaData="" />
      <SourceTrack range="(0,5690368)" type="2" editRate="44100/1" trackRect="(0,0,0,0)" sampleRate="44100/1" bitDepth="16" numChannels="2" filename="5.Main Functionality.trec!$audio2.mp4" metaData="" />
    </Source>
    <Source id="10" src="C:\Users\wliu\Dropbox\fiu\CEN5011_Advanced Software Engineering\Jenkins\Jenkins Camtasia Source Files\6.Create new project ppt.trec" lastMod="20141103T173953" rect="(0,0,1920,1080)" >
      <SourceTrack range="(0,607)" type="0" editRate="30/1" trackRect="(0,0,1920,1080)" sampleRate="0/1" bitDepth="0" numChannels="0" filename="6.Create new project ppt.trec!Strack0.tsc2" metaData="6.Create new project ppt.trec;" />
      <SourceTrack range="(0,883712)" type="2" editRate="44100/1" trackRect="(0,0,0,0)" sampleRate="44100/1" bitDepth="16" numChannels="2" filename="6.Create new project ppt.trec!Maudio1.mp4" metaData="" />
      <SourceTrack range="(0,883712)" type="2" editRate="44100/1" trackRect="(0,0,0,0)" sampleRate="44100/1" bitDepth="16" numChannels="2" filename="6.Create new project ppt.trec!$audio2.mp4" metaData="" />
    </Source>
    <Source id="11" src="C:\Users\wliu\Dropbox\fiu\CEN5011_Advanced Software Engineering\Jenkins\Jenkins Camtasia Source Files\7.github webhook ppt.trec" lastMod="20141103T180234" rect="(0,0,1920,1080)" >
      <SourceTrack range="(0,4290)" type="0" editRate="30/1" trackRect="(0,0,1920,1080)" sampleRate="0/1" bitDepth="0" numChannels="0" filename="7.github webhook ppt.trec!Strack0.tsc2" metaData="7.github webhook ppt.trec;" />
      <SourceTrack range="(0,6307840)" type="2" editRate="44100/1" trackRect="(0,0,0,0)" sampleRate="44100/1" bitDepth="16" numChannels="2" filename="7.github webhook ppt.trec!Maudio1.mp4" metaData="" />
      <SourceTrack range="(0,6263808)" type="2" editRate="44100/1" trackRect="(0,0,0,0)" sampleRate="44100/1" bitDepth="16" numChannels="2" filename="7.github webhook ppt.trec!$audio2.mp4" metaData="" />
    </Source>
    <Source id="12" src="C:\Users\wliu\Dropbox\fiu\CEN5011_Advanced Software Engineering\Jenkins\Jenkins Camtasia Source Files\7.github webhook ppt2.trec" lastMod="20141103T180754" rect="(0,0,1920,1080)" >
      <SourceTrack range="(0,11203)" type="0" editRate="30/1" trackRect="(0,0,1920,1080)" sampleRate="0/1" bitDepth="0" numChannels="0" filename="7.github webhook ppt2.trec!Strack0.tsc2" metaData="7.github webhook ppt2.trec;" />
      <SourceTrack range="(0,16450560)" type="2" editRate="44100/1" trackRect="(0,0,0,0)" sampleRate="44100/1" bitDepth="16" numChannels="2" filename="7.github webhook ppt2.trec!Maudio1.mp4" metaData="" />
      <SourceTrack range="(0,16450560)" type="2" editRate="44100/1" trackRect="(0,0,0,0)" sampleRate="44100/1" bitDepth="16" numChannels="2" filename="7.github webhook ppt2.trec!$audio2.mp4" metaData="" />
    </Source>
    <Source id="13" src="C:\Users\wliu\Dropbox\fiu\CEN5011_Advanced Software Engineering\Jenkins\Jenkins Camtasia Source Files\7.github webhook.trec" lastMod="20141103T182056" rect="(0,0,1920,1080)" >
      <SourceTrack range="(0,3844)" type="0" editRate="30/1" trackRect="(0,0,1920,1080)" sampleRate="0/1" bitDepth="0" numChannels="0" filename="7.github webhook.trec!Strack0.tsc2" metaData="7.github webhook.trec;" />
      <SourceTrack range="(0,5646336)" type="2" editRate="44100/1" trackRect="(0,0,0,0)" sampleRate="44100/1" bitDepth="16" numChannels="2" filename="7.github webhook.trec!Maudio1.mp4" metaData="" />
      <SourceTrack range="(0,5602304)" type="2" editRate="44100/1" trackRect="(0,0,0,0)" sampleRate="44100/1" bitDepth="16" numChannels="2" filename="7.github webhook.trec!$audio2.mp4" metaData="" />
    </Source>
    <Source id="14" src="C:\Users\wliu\Dropbox\fiu\CEN5011_Advanced Software Engineering\Jenkins\Jenkins Camtasia Source Files\8.trec" lastMod="20141103T183002" rect="(0,0,1920,1080)" >
      <SourceTrack range="(0,1824)" type="0" editRate="30/1" trackRect="(0,0,1920,1080)" sampleRate="0/1" bitDepth="0" numChannels="0" filename="8.trec!Strack0.tsc2" metaData="8.trec;" />
      <SourceTrack range="(0,2669568)" type="2" editRate="44100/1" trackRect="(0,0,0,0)" sampleRate="44100/1" bitDepth="16" numChannels="2" filename="8.trec!Maudio1.mp4" metaData="" />
      <SourceTrack range="(0,2647040)" type="2" editRate="44100/1" trackRect="(0,0,0,0)" sampleRate="44100/1" bitDepth="16" numChannels="2" filename="8.trec!$audio2.mp4" metaData="" />
    </Source>
    <Source id="15" src="C:\Users\wliu\Dropbox\fiu\CEN5011_Advanced Software Engineering\Jenkins\Jenkins Camtasia Source Files\6.Create new project.trec" lastMod="20141103T190516" rect="(0,0,1920,1080)" >
      <SourceTrack range="(0,5929)" type="0" editRate="30/1" trackRect="(0,0,1920,1080)" sampleRate="0/1" bitDepth="0" numChannels="0" filename="6.Create new project.trec!Strack0.tsc2" metaData="6.Create new project.trec;" />
      <SourceTrack range="(0,8711168)" type="2" editRate="44100/1" trackRect="(0,0,0,0)" sampleRate="44100/1" bitDepth="16" numChannels="2" filename="6.Create new project.trec!Maudio1.mp4" metaData="" />
      <SourceTrack range="(0,8689664)" type="2" editRate="44100/1" trackRect="(0,0,0,0)" sampleRate="44100/1" bitDepth="16" numChannels="2" filename="6.Create new project.trec!$audio2.mp4" metaData="" />
    </Source>
  </SourceBin>
  <Timeline id="16"  >
   <Attributes>
    <Attribute id="17" value="1280" name="width"/>
    <Attribute id="18" value="720" name="height"/>
    <Attribute id="19" value="(0,0,0,255)" name="backgroundColor"/>
   </Attributes>
    <GenericMixer id="20"  name="Unified Mixer">
     <MetaData>
      <entry key="MixerType" val="TimelineMixer"/>
     </MetaData>
     <Tracks>
      <GenericTrack id="21"  >
       <Attributes>
        <Attribute id="22" value="" name="ident"/>
        <Attribute id="23" value="0" name="audioMuted"/>
        <Attribute id="24" value="0" name="videoHidden"/>
       </Attributes>
       <MetaData>
        <entry key="IsLocked" val="False"/>
        <entry key="WinTrackHeight" val="62"/>
       </MetaData>
       <Medias>
        <AMFile id="25" start="0" duration="682" scalar="1/1" mediaStart="0/1" mediaDuration="682/1" trackNumber="2" src="4" channelNumber="0,1" >
         <Parameters>
          <InterpolatingParam id="26" interp="linr"  time="0/1" value="1" leadInLength="0/1"  name="volume"/>
          <Parameter id="27"  name="captions"/>
         </Parameters>
         <Attributes>
          <Attribute id="28" value="" name="ident"/>
          <Attribute id="29" value="44100" name="sampleRate"/>
          <Attribute id="30" value="16" name="bitDepth"/>
          <Attribute id="31" value="1" name="gain"/>
          <Attribute id="32" value="0" name="mixToMono"/>
         </Attributes>
         <MetaData>
          <entry key="WinSubProjectDisplayName" val=""/>
         </MetaData>
        </AMFile>
        <AMFile id="33" start="682" duration="661" scalar="1/1" mediaStart="0/1" mediaDuration="661/1" trackNumber="2" src="5" channelNumber="0,1" >
         <Parameters>
          <InterpolatingParam id="34" interp="linr"  time="0/1" value="1" leadInLength="0/1"  name="volume"/>
          <Parameter id="35"  name="captions"/>
         </Parameters>
         <Attributes>
          <Attribute id="36" value="" name="ident"/>
          <Attribute id="37" value="44100" name="sampleRate"/>
          <Attribute id="38" value="16" name="bitDepth"/>
          <Attribute id="39" value="1" name="gain"/>
          <Attribute id="40" value="0" name="mixToMono"/>
         </Attributes>
         <MetaData>
          <entry key="WinSubProjectDisplayName" val=""/>
         </MetaData>
        </AMFile>
        <AMFile id="41" start="1343" duration="241" scalar="1/1" mediaStart="0/1" mediaDuration="241/1" trackNumber="2" src="6" channelNumber="0,1" >
         <Parameters>
          <InterpolatingParam id="42" interp="linr"  time="0/1" value="1" leadInLength="0/1"  name="volume"/>
          <Parameter id="43"  name="captions"/>
         </Parameters>
         <Attributes>
          <Attribute id="44" value="" name="ident"/>
          <Attribute id="45" value="44100" name="sampleRate"/>
          <Attribute id="46" value="16" name="bitDepth"/>
          <Attribute id="47" value="1" name="gain"/>
          <Attribute id="48" value="0" name="mixToMono"/>
         </Attributes>
         <MetaData>
          <entry key="WinSubProjectDisplayName" val=""/>
         </MetaData>
        </AMFile>
        <AMFile id="49" start="1584" duration="1081" scalar="1/1" mediaStart="0/1" mediaDuration="1081/1" trackNumber="2" src="7" channelNumber="0,1" >
         <Parameters>
          <InterpolatingParam id="50" interp="linr"  time="0/1" value="1" leadInLength="0/1"  name="volume"/>
          <Parameter id="51"  name="captions"/>
         </Parameters>
         <Attributes>
          <Attribute id="52" value="" name="ident"/>
          <Attribute id="53" value="44100" name="sampleRate"/>
          <Attribute id="54" value="16" name="bitDepth"/>
          <Attribute id="55" value="1" name="gain"/>
          <Attribute id="56" value="0" name="mixToMono"/>
         </Attributes>
         <MetaData>
          <entry key="WinSubProjectDisplayName" val=""/>
         </MetaData>
        </AMFile>
        <AMFile id="57" start="2665" duration="3870" scalar="1/1" mediaStart="0/1" mediaDuration="3870/1" trackNumber="2" src="9" channelNumber="0,1" >
         <Parameters>
          <InterpolatingParam id="58" interp="linr"  time="0/1" value="1" leadInLength="0/1"  name="volume"/>
          <Parameter id="59"  name="captions"/>
         </Parameters>
         <Attributes>
          <Attribute id="60" value="" name="ident"/>
          <Attribute id="61" value="44100" name="sampleRate"/>
          <Attribute id="62" value="16" name="bitDepth"/>
          <Attribute id="63" value="1" name="gain"/>
          <Attribute id="64" value="0" name="mixToMono"/>
         </Attributes>
         <MetaData>
          <entry key="WinSubProjectDisplayName" val=""/>
         </MetaData>
        </AMFile>
        <AMFile id="65" start="6535" duration="395" scalar="1/1" mediaStart="0/1" mediaDuration="395/1" trackNumber="2" src="10" channelNumber="0,1" >
         <Parameters>
          <InterpolatingParam id="66" interp="linr"  time="0/1" value="1" leadInLength="0/1"  name="volume"/>
          <Parameter id="67"  name="captions"/>
         </Parameters>
         <Attributes>
          <Attribute id="68" value="" name="ident"/>
          <Attribute id="69" value="44100" name="sampleRate"/>
          <Attribute id="70" value="16" name="bitDepth"/>
          <Attribute id="71" value="1" name="gain"/>
          <Attribute id="72" value="0" name="mixToMono"/>
         </Attributes>
         <MetaData>
          <entry key="WinSubProjectDisplayName" val=""/>
         </MetaData>
        </AMFile>
        <AMFile id="73" start="6930" duration="5911" scalar="1/1" mediaStart="0/1" mediaDuration="5911/1" trackNumber="2" src="15" channelNumber="0,1" >
         <Parameters>
          <InterpolatingParam id="74" interp="linr"  time="0/1" value="1" leadInLength="0/1"  name="volume"/>
          <Parameter id="75"  name="captions"/>
         </Parameters>
         <Attributes>
          <Attribute id="76" value="" name="ident"/>
          <Attribute id="77" value="44100" name="sampleRate"/>
          <Attribute id="78" value="16" name="bitDepth"/>
          <Attribute id="79" value="1" name="gain"/>
          <Attribute id="80" value="0" name="mixToMono"/>
         </Attributes>
         <MetaData>
          <entry key="WinSubProjectDisplayName" val=""/>
         </MetaData>
        </AMFile>
        <AMFile id="81" start="12841" duration="1562" scalar="1/1" mediaStart="2699/1" mediaDuration="1562/1" trackNumber="2" src="11" channelNumber="0,1" >
         <Parameters>
          <InterpolatingParam id="82" interp="linr"  time="0/1" value="1" leadInLength="0/1"  name="volume"/>
          <Parameter id="83"  name="captions"/>
         </Parameters>
         <Attributes>
          <Attribute id="84" value="" name="ident"/>
          <Attribute id="85" value="44100" name="sampleRate"/>
          <Attribute id="86" value="16" name="bitDepth"/>
          <Attribute id="87" value="1" name="gain"/>
          <Attribute id="88" value="0" name="mixToMono"/>
         </Attributes>
         <MetaData>
          <entry key="WinSubProjectDisplayName" val=""/>
         </MetaData>
        </AMFile>
        <StitchedMedia id="89" start="14403" duration="3642" scalar="1/1" mediaStart="0/1" mediaDuration="3642/1" minMediaStart="0/1" >
         <Transformer>
          <VectorParam id="90"  name="translation">
           <InterpolatingParam id="91" interp="linr"  time="0/1" value="0" leadInLength="0/1"  />
           <InterpolatingParam id="92" interp="linr"  time="0/1" value="0" leadInLength="0/1"  />
           <InterpolatingParam id="93" interp="linr"  time="0/1" value="0" leadInLength="0/1"  />
          </VectorParam>
          <VectorParam id="94"  name="rotation">
           <InterpolatingParam id="95" interp="linr"  time="0/1" value="0" leadInLength="0/1"  />
           <InterpolatingParam id="96" interp="linr"  time="0/1" value="0" leadInLength="0/1"  />
           <InterpolatingParam id="97" interp="linr"  time="0/1" value="0" leadInLength="0/1"  />
          </VectorParam>
          <VectorParam id="98"  name="shear">
           <InterpolatingParam id="99" interp="linr"  time="0/1" value="0" leadInLength="0/1"  />
           <InterpolatingParam id="100" interp="linr"  time="0/1" value="0" leadInLength="0/1"  />
           <InterpolatingParam id="101" interp="linr"  time="0/1" value="0" leadInLength="0/1"  />
          </VectorParam>
          <VectorParam id="102"  name="scale">
           <InterpolatingParam id="103" interp="linr"  time="0/1" value="1" leadInLength="0/1"  />
           <InterpolatingParam id="104" interp="linr"  time="0/1" value="1" leadInLength="0/1"  />
           <InterpolatingParam id="105" interp="linr"  time="0/1" value="1" leadInLength="0/1"  />
          </VectorParam>
          <VectorParam id="106"  name="anchor">
           <InterpolatingParam id="107" interp="linr"  time="0/1" value="0" leadInLength="0/1"  />
           <InterpolatingParam id="108" interp="linr"  time="0/1" value="0" leadInLength="0/1"  />
           <InterpolatingParam id="109" interp="linr"  time="0/1" value="0" leadInLength="0/1"  />
          </VectorParam>
         </Transformer>
         <Parameters>
          <InterpolatingParam id="110" interp="linr"  time="0/1" value="1" leadInLength="0/1"  name="cursorOpacity"/>
          <InterpolatingParam id="111" interp="linr"  time="0/1" value="1" leadInLength="0/1"  name="cursorScale"/>
          <InterpolatingParam id="112" interp="linr"  time="0/1" value="1" leadInLength="0/1"  name="volume"/>
          <Parameter id="113"  name="captions"/>
         </Parameters>
         <Attributes>
          <Attribute id="114" value="" name="ident"/>
          <Attribute id="115" value="0" name="mixToMono"/>
         </Attributes>
         <MetaData>
          <entry key="WinSubProjectDisplayName" val=""/>
         </MetaData>
         <ExtraData>
          <Entry key="ZoomPanBin">
           <ZoomPanBin id="116"  >
            <ZoomPanKeyframes>
            </ZoomPanKeyframes>
           </ZoomPanBin>
          </Entry>
          <Entry key="CursorEffectBin">
           <CursorEffectBin id="117"  >
            <CursorEffectKeyframes>
            </CursorEffectKeyframes>
           </CursorEffectBin>
          </Entry>
         </ExtraData>
         <GenericTrack id="118"  >
          <Attributes>
           <Attribute id="119" value="" name="ident"/>
           <Attribute id="120" value="0" name="audioMuted"/>
           <Attribute id="121" value="0" name="videoHidden"/>
          </Attributes>
          <MetaData>
           <entry key="IsLocked" val="False"/>
           <entry key="WinTrackHeight" val="0"/>
          </MetaData>
          <Medias>
           <AMFile id="122" start="0" duration="1962" scalar="1/1" mediaStart="0/1" mediaDuration="1962/1" trackNumber="2" src="13" channelNumber="0,1" >
            <Parameters>
             <InterpolatingParam id="123" interp="linr"  time="0/1" value="1" leadInLength="0/1"  name="volume"/>
             <Parameter id="124"  name="captions"/>
            </Parameters>
            <Attributes>
             <Attribute id="125" value="" name="ident"/>
             <Attribute id="126" value="44100" name="sampleRate"/>
             <Attribute id="127" value="16" name="bitDepth"/>
             <Attribute id="128" value="1" name="gain"/>
             <Attribute id="129" value="0" name="mixToMono"/>
            </Attributes>
            <MetaData>
             <entry key="WinSubProjectDisplayName" val=""/>
            </MetaData>
           </AMFile>
           <AMFile id="130" start="1962" duration="134" scalar="1/1" mediaStart="2083/1" mediaDuration="134/1" trackNumber="2" src="13" channelNumber="0,1" >
            <Parameters>
             <InterpolatingParam id="131" interp="linr"  time="0/1" value="1" leadInLength="0/1"  name="volume"/>
             <Parameter id="132"  name="captions"/>
            </Parameters>
            <Attributes>
             <Attribute id="133" value="" name="ident"/>
             <Attribute id="134" value="44100" name="sampleRate"/>
             <Attribute id="135" value="16" name="bitDepth"/>
             <Attribute id="136" value="1" name="gain"/>
             <Attribute id="137" value="0" name="mixToMono"/>
            </Attributes>
            <MetaData>
             <entry key="WinSubProjectDisplayName" val=""/>
            </MetaData>
           </AMFile>
           <AMFile id="138" start="2096" duration="1546" scalar="1/1" mediaStart="2265/1" mediaDuration="1546/1" trackNumber="2" src="13" channelNumber="0,1" >
            <Parameters>
             <InterpolatingParam id="139" interp="linr"  time="0/1" value="1" leadInLength="0/1"  name="volume"/>
             <Parameter id="140"  name="captions"/>
            </Parameters>
            <Attributes>
             <Attribute id="141" value="" name="ident"/>
             <Attribute id="142" value="44100" name="sampleRate"/>
             <Attribute id="143" value="16" name="bitDepth"/>
             <Attribute id="144" value="1" name="gain"/>
             <Attribute id="145" value="0" name="mixToMono"/>
            </Attributes>
            <MetaData>
             <entry key="WinSubProjectDisplayName" val=""/>
            </MetaData>
           </AMFile>
          </Medias>
         </GenericTrack>
        </StitchedMedia>
       </Medias>
      </GenericTrack>
      <GenericTrack id="146"  >
       <Attributes>
        <Attribute id="147" value="" name="ident"/>
        <Attribute id="148" value="0" name="audioMuted"/>
        <Attribute id="149" value="0" name="videoHidden"/>
       </Attributes>
       <MetaData>
        <entry key="IsLocked" val="False"/>
        <entry key="WinTrackHeight" val="62"/>
       </MetaData>
       <Medias>
        <UnifiedMedia id="150"  >
         <AMFile id="151" start="0" duration="682" scalar="1/1" mediaStart="0/1" mediaDuration="682/1" trackNumber="1" src="4" channelNumber="0,1" >
          <Parameters>
           <InterpolatingParam id="152" interp="linr"  time="0/1" value="1" leadInLength="0/1"  name="volume"/>
           <Parameter id="153"  name="captions"/>
          </Parameters>
          <Attributes>
           <Attribute id="154" value="" name="ident"/>
           <Attribute id="155" value="44100" name="sampleRate"/>
           <Attribute id="156" value="16" name="bitDepth"/>
           <Attribute id="157" value="1" name="gain"/>
           <Attribute id="158" value="0" name="mixToMono"/>
          </Attributes>
         </AMFile>
         <ScreenVMFile id="159" start="0" duration="682" scalar="1/1" mediaStart="0/1" mediaDuration="682/1" trackNumber="0" src="4" >
          <Transformer>
           <VectorParam id="160"  name="translation">
            <InterpolatingParam id="161" interp="linr"  time="-9999999/1" value="0" leadInLength="0/1"  />
            <InterpolatingParam id="162" interp="linr"  time="-9999999/1" value="0" leadInLength="0/1"  />
            <InterpolatingParam id="163" interp="linr"  time="-9999999/1" value="0" leadInLength="0/1"  />
           </VectorParam>
           <VectorParam id="164"  name="rotation">
            <InterpolatingParam id="165" interp="linr"  time="-9999999/1" value="0" leadInLength="0/1"  />
            <InterpolatingParam id="166" interp="linr"  time="-9999999/1" value="0" leadInLength="0/1"  />
            <InterpolatingParam id="167" interp="linr"  time="-9999999/1" value="0" leadInLength="0/1"  />
           </VectorParam>
           <VectorParam id="168"  name="shear">
            <InterpolatingParam id="169" interp="linr"  time="-9999999/1" value="0" leadInLength="0/1"  />
            <InterpolatingParam id="170" interp="linr"  time="-9999999/1" value="0" leadInLength="0/1"  />
            <InterpolatingParam id="171" interp="linr"  time="-9999999/1" value="0" leadInLength="0/1"  />
           </VectorParam>
           <VectorParam id="172"  name="scale">
            <InterpolatingParam id="173" interp="linr"  time="-9999999/1" value="0.66666666666666663" leadInLength="0/1"  />
            <InterpolatingParam id="174" interp="linr"  time="-9999999/1" value="0.66666666666666663" leadInLength="0/1"  />
            <InterpolatingParam id="175" interp="linr"  time="-9999999/1" value="1" leadInLength="0/1"  />
           </VectorParam>
           <VectorParam id="176"  name="anchor">
            <InterpolatingParam id="177" interp="linr"  time="0/1" value="0" leadInLength="0/1"  />
            <InterpolatingParam id="178" interp="linr"  time="0/1" value="0" leadInLength="0/1"  />
            <InterpolatingParam id="179" interp="linr"  time="0/1" value="0" leadInLength="0/1"  />
           </VectorParam>
          </Transformer>
          <Parameters>
           <VectorParam id="180"  name="sourceCrop">
            <InterpolatingParam id="181" interp="linr"  time="0/1" value="0" leadInLength="0/1"  />
            <InterpolatingParam id="182" interp="linr"  time="0/1" value="0" leadInLength="0/1"  />
            <InterpolatingParam id="183" interp="linr"  time="0/1" value="0" leadInLength="0/1"  />
            <InterpolatingParam id="184" interp="linr"  time="0/1" value="0" leadInLength="0/1"  />
           </VectorParam>
           <VectorParam id="185"  name="geometryCrop">
            <InterpolatingParam id="186" interp="linr"  time="-9999999/1" value="0" leadInLength="0/1"  />
            <InterpolatingParam id="187" interp="linr"  time="-9999999/1" value="0" leadInLength="0/1"  />
            <InterpolatingParam id="188" interp="linr"  time="-9999999/1" value="0" leadInLength="0/1"  />
            <InterpolatingParam id="189" interp="linr"  time="-9999999/1" value="0" leadInLength="0/1"  />
           </VectorParam>
           <InterpolatingParam id="190" interp="linr"  time="-9999999/1" value="1" leadInLength="0/1"  name="opacity"/>
           <Parameter id="191"  name="toc">
            <Keyframes>
            <Keyframe id="192"  time="0/1" value="Jenkins" leadInLength="0/1"  >
             <MetaData>
              <entry key="Checked" val="True"/>
              <entry key="IndentLevel" val="0"/>
             </MetaData>
            </Keyframe>
            <Keyframe id="193"  time="385/1" value="Slide 2" leadInLength="0/1"  >
             <MetaData>
              <entry key="Checked" val="True"/>
              <entry key="IndentLevel" val="0"/>
             </MetaData>
            </Keyframe>
            </Keyframes>
           </Parameter>
           <InterpolatingParam id="194" interp="linr"  time="0/1" value="1" leadInLength="0/1"  name="cursorOpacity"/>
           <InterpolatingParam id="195" interp="linr"  time="0/1" value="1" leadInLength="0/1"  name="cursorScale"/>
          </Parameters>
          <Effects>
           <GenericEffect id="196" name = "CursorBaseEffectName" >
            <Parameters>
            <InterpolatingParam id="197" interp="linr"  time="-9999999/1" value="1" leadInLength="0/1"   name="cursorSize"/>
            <InterpolatingParam id="198" interp="linr"  time="-9999999/1" value="0" leadInLength="0/1"   name="highlightBlurRadius"/>
            <InterpolatingParam id="199" interp="linr"  time="-9999999/1" value="0" leadInLength="0/1"   name="highlightColorBlue"/>
            <InterpolatingParam id="200" interp="linr"  time="-9999999/1" value="255" leadInLength="0/1"   name="highlightColorGreen"/>
            <InterpolatingParam id="201" interp="linr"  time="-9999999/1" value="255" leadInLength="0/1"   name="highlightColorRed"/>
            <InterpolatingParam id="202" interp="linr"  time="-9999999/1" value="5" leadInLength="0/1"   name="highlightFeatherSize"/>
            <InterpolatingParam id="203" interp="linr"  time="-9999999/1" value="2" leadInLength="0/1"   name="highlightMagnification"/>
            <InterpolatingParam id="204" interp="linr"  time="-9999999/1" value="1" leadInLength="0/1"   name="highlightOpacity"/>
            <InterpolatingParam id="205" interp="linr"  time="-9999999/1" value="45" leadInLength="0/1"   name="highlightSize"/>
            <Parameter id="206"   name="highlightType">
             <Keyframes>
             <Keyframe id="207"  time="-9999999/1" value="0" leadInLength="0/1"  />
             </Keyframes>
            </Parameter>
            <InterpolatingParam id="208" interp="linr"  time="-9999999/1" value="0" leadInLength="0/1"   name="leftClickColorBlue"/>
            <InterpolatingParam id="209" interp="linr"  time="-9999999/1" value="0" leadInLength="0/1"   name="leftClickColorGreen"/>
            <InterpolatingParam id="210" interp="linr"  time="-9999999/1" value="255" leadInLength="0/1"   name="leftClickColorRed"/>
            <InterpolatingParam id="211" interp="linr"  time="-9999999/1" value="0.80000000000000004" leadInLength="0/1"   name="leftClickDuration"/>
            <InterpolatingParam id="212" interp="linr"  time="-9999999/1" value="20" leadInLength="0/1"   name="leftClickSize"/>
            <Parameter id="213"   name="leftClickSoundFilename">
             <Keyframes>
             <Keyframe id="214"  time="-9999999/1" value="" leadInLength="0/1"  />
             </Keyframes>
            </Parameter>
            <InterpolatingParam id="215" interp="linr"  time="-9999999/1" value="1" leadInLength="0/1"   name="leftClickSoundVolume"/>
            <Parameter id="216"   name="leftClickType">
             <Keyframes>
             <Keyframe id="217"  time="-9999999/1" value="0" leadInLength="0/1"  />
             </Keyframes>
            </Parameter>
            <InterpolatingParam id="218" interp="linr"  time="-9999999/1" value="1" leadInLength="0/1"   name="opacity"/>
            <InterpolatingParam id="219" interp="linr"  time="-9999999/1" value="255" leadInLength="0/1"   name="rightClickColorBlue"/>
            <InterpolatingParam id="220" interp="linr"  time="-9999999/1" value="0" leadInLength="0/1"   name="rightClickColorGreen"/>
            <InterpolatingParam id="221" interp="linr"  time="-9999999/1" value="0" leadInLength="0/1"   name="rightClickColorRed"/>
            <InterpolatingParam id="222" interp="linr"  time="-9999999/1" value="0.80000000000000004" leadInLength="0/1"   name="rightClickDuration"/>
            <InterpolatingParam id="223" interp="linr"  time="-9999999/1" value="20" leadInLength="0/1"   name="rightClickSize"/>
            <Parameter id="224"   name="rightClickSoundFilename">
             <Keyframes>
             <Keyframe id="225"  time="-9999999/1" value="" leadInLength="0/1"  />
             </Keyframes>
            </Parameter>
            <InterpolatingParam id="226" interp="linr"  time="-9999999/1" value="1" leadInLength="0/1"   name="rightClickSoundVolume"/>
            <Parameter id="227"   name="rightClickType">
             <Keyframes>
             <Keyframe id="228"  time="-9999999/1" value="0" leadInLength="0/1"  />
             </Keyframes>
            </Parameter>
            </Parameters>
            <MetaData>
             <entry key="effectIndex" val="0"/>
            </MetaData>
           </GenericEffect>
          </Effects>
          <Attributes>
           <Attribute id="229" value="" name="ident"/>
          </Attributes>
          <ExtraData>
           <Entry key="ZoomPanBin">
            <ZoomPanBin id="230"  >
             <ZoomPanKeyframes>
              <ZoomPanKeyframe id="231" timeRangeEnd="-9999999/1" timeRangeDuration="0/1" interpolaterName="linr"  />
             </ZoomPanKeyframes>
            </ZoomPanBin>
           </Entry>
           <Entry key="CursorEffectBin">
            <CursorEffectBin id="232"  >
             <CursorEffectKeyframes>
              <CursorEffectKeyframe id="233" timeRangeEnd="-9999999/1" timeRangeDuration="0/1" interpolaterName=""  />
             </CursorEffectKeyframes>
            </CursorEffectBin>
           </Entry>
          </ExtraData>
         </ScreenVMFile>
         <MetaData>
          <entry key="AutoAppliedSmartFocus" val="False"/>
          <entry key="WinSubProjectDisplayName" val=""/>
         </MetaData>
        </UnifiedMedia>
        <UnifiedMedia id="234"  >
         <AMFile id="235" start="682" duration="661" scalar="1/1" mediaStart="0/1" mediaDuration="661/1" trackNumber="1" src="5" channelNumber="0,1" >
          <Parameters>
           <InterpolatingParam id="236" interp="linr"  time="0/1" value="1" leadInLength="0/1"  name="volume"/>
           <Parameter id="237"  name="captions"/>
          </Parameters>
          <Attributes>
           <Attribute id="238" value="" name="ident"/>
           <Attribute id="239" value="44100" name="sampleRate"/>
           <Attribute id="240" value="16" name="bitDepth"/>
           <Attribute id="241" value="1" name="gain"/>
           <Attribute id="242" value="0" name="mixToMono"/>
          </Attributes>
         </AMFile>
         <ScreenVMFile id="243" start="682" duration="661" scalar="1/1" mediaStart="0/1" mediaDuration="661/1" trackNumber="0" src="5" >
          <Transformer>
           <VectorParam id="244"  name="translation">
            <InterpolatingParam id="245" interp="linr"  >
             <Keyframes>
             <Keyframe id="246"  time="-9999999/1" value="0" leadInLength="0/1"  />
             <Keyframe id="247"  time="127/1" value="153.6675821672431" leadInLength="30/1"  interpolater="leadin-linr"  />
             <Keyframe id="248"  time="655/1" value="-1.2789769243681803e-013" leadInLength="30/1"  interpolater="leadin-linr"  />
             </Keyframes>
            </InterpolatingParam>
            <InterpolatingParam id="249" interp="linr"  >
             <Keyframes>
             <Keyframe id="250"  time="-9999999/1" value="0" leadInLength="0/1"  />
             <Keyframe id="251"  time="127/1" value="-86.438130395635156" leadInLength="30/1"  interpolater="leadin-linr"  />
             <Keyframe id="252"  time="655/1" value="0" leadInLength="30/1"  interpolater="leadin-linr"  />
             </Keyframes>
            </InterpolatingParam>
            <InterpolatingParam id="253" interp="linr"  >
             <Keyframes>
             <Keyframe id="254"  time="-9999999/1" value="0" leadInLength="0/1"  />
             <Keyframe id="255"  time="127/1" value="0" leadInLength="30/1"  interpolater="leadin-linr"  />
             <Keyframe id="256"  time="655/1" value="0" leadInLength="30/1"  interpolater="leadin-linr"  />
             </Keyframes>
            </InterpolatingParam>
           </VectorParam>
           <VectorParam id="257"  name="rotation">
            <InterpolatingParam id="258" interp="linr"  >
             <Keyframes>
             <Keyframe id="259"  time="-9999999/1" value="0" leadInLength="0/1"  />
             <Keyframe id="260"  time="127/1" value="0" leadInLength="30/1"  interpolater="leadin-linr"  />
             <Keyframe id="261"  time="655/1" value="0" leadInLength="30/1"  interpolater="leadin-linr"  />
             </Keyframes>
            </InterpolatingParam>
            <InterpolatingParam id="262" interp="linr"  >
             <Keyframes>
             <Keyframe id="263"  time="-9999999/1" value="0" leadInLength="0/1"  />
             <Keyframe id="264"  time="127/1" value="0" leadInLength="30/1"  interpolater="leadin-linr"  />
             <Keyframe id="265"  time="655/1" value="0" leadInLength="30/1"  interpolater="leadin-linr"  />
             </Keyframes>
            </InterpolatingParam>
            <InterpolatingParam id="266" interp="linr"  >
             <Keyframes>
             <Keyframe id="267"  time="-9999999/1" value="0" leadInLength="0/1"  />
             <Keyframe id="268"  time="127/1" value="0" leadInLength="30/1"  interpolater="leadin-linr"  />
             <Keyframe id="269"  time="655/1" value="0" leadInLength="30/1"  interpolater="leadin-linr"  />
             </Keyframes>
            </InterpolatingParam>
           </VectorParam>
           <VectorParam id="270"  name="shear">
            <InterpolatingParam id="271" interp="linr"  >
             <Keyframes>
             <Keyframe id="272"  time="-9999999/1" value="0" leadInLength="0/1"  />
             <Keyframe id="273"  time="127/1" value="0" leadInLength="30/1"  interpolater="leadin-linr"  />
             <Keyframe id="274"  time="655/1" value="0" leadInLength="30/1"  interpolater="leadin-linr"  />
             </Keyframes>
            </InterpolatingParam>
            <InterpolatingParam id="275" interp="linr"  >
             <Keyframes>
             <Keyframe id="276"  time="-9999999/1" value="0" leadInLength="0/1"  />
             <Keyframe id="277"  time="127/1" value="0" leadInLength="30/1"  interpolater="leadin-linr"  />
             <Keyframe id="278"  time="655/1" value="0" leadInLength="30/1"  interpolater="leadin-linr"  />
             </Keyframes>
            </InterpolatingParam>
            <InterpolatingParam id="279" interp="linr"  >
             <Keyframes>
             <Keyframe id="280"  time="-9999999/1" value="0" leadInLength="0/1"  />
             <Keyframe id="281"  time="127/1" value="0" leadInLength="30/1"  interpolater="leadin-linr"  />
             <Keyframe id="282"  time="655/1" value="0" leadInLength="30/1"  interpolater="leadin-linr"  />
             </Keyframes>
            </InterpolatingParam>
           </VectorParam>
           <VectorParam id="283"  name="scale">
            <InterpolatingParam id="284" interp="linr"  >
             <Keyframes>
             <Keyframe id="285"  time="-9999999/1" value="0.66666666666666663" leadInLength="0/1"  />
             <Keyframe id="286"  time="127/1" value="0.82673706923095247" leadInLength="30/1"  interpolater="leadin-linr"  />
             <Keyframe id="287"  time="655/1" value="0.66666649036500458" leadInLength="30/1"  interpolater="leadin-linr"  />
             </Keyframes>
            </InterpolatingParam>
            <InterpolatingParam id="288" interp="linr"  >
             <Keyframes>
             <Keyframe id="289"  time="-9999999/1" value="0.66666666666666663" leadInLength="0/1"  />
             <Keyframe id="290"  time="127/1" value="0.8267372878636895" leadInLength="30/1"  interpolater="leadin-linr"  />
             <Keyframe id="291"  time="655/1" value="0.66666666666666663" leadInLength="30/1"  interpolater="leadin-linr"  />
             </Keyframes>
            </InterpolatingParam>
            <InterpolatingParam id="292" interp="linr"  >
             <Keyframes>
             <Keyframe id="293"  time="-9999999/1" value="1" leadInLength="0/1"  />
             <Keyframe id="294"  time="127/1" value="0.99999999999999989" leadInLength="30/1"  interpolater="leadin-linr"  />
             <Keyframe id="295"  time="655/1" value="0.99999999999999978" leadInLength="30/1"  interpolater="leadin-linr"  />
             </Keyframes>
            </InterpolatingParam>
           </VectorParam>
           <VectorParam id="296"  name="anchor">
            <InterpolatingParam id="297" interp="linr"  time="0/1" value="0" leadInLength="0/1"  />
            <InterpolatingParam id="298" interp="linr"  time="0/1" value="0" leadInLength="0/1"  />
            <InterpolatingParam id="299" interp="linr"  time="0/1" value="0" leadInLength="0/1"  />
           </VectorParam>
          </Transformer>
          <Parameters>
           <VectorParam id="300"  name="sourceCrop">
            <InterpolatingParam id="301" interp="linr"  time="0/1" value="0" leadInLength="0/1"  />
            <InterpolatingParam id="302" interp="linr"  time="0/1" value="0" leadInLength="0/1"  />
            <InterpolatingParam id="303" interp="linr"  time="0/1" value="0" leadInLength="0/1"  />
            <InterpolatingParam id="304" interp="linr"  time="0/1" value="0" leadInLength="0/1"  />
           </VectorParam>
           <VectorParam id="305"  name="geometryCrop">
            <InterpolatingParam id="306" interp="linr"  >
             <Keyframes>
             <Keyframe id="307"  time="-9999999/1" value="0" leadInLength="0/1"  />
             <Keyframe id="308"  time="127/1" value="0" leadInLength="30/1"  interpolater="leadin-linr"  />
             <Keyframe id="309"  time="655/1" value="0" leadInLength="30/1"  interpolater="leadin-linr"  />
             </Keyframes>
            </InterpolatingParam>
            <InterpolatingParam id="310" interp="linr"  >
             <Keyframes>
             <Keyframe id="311"  time="-9999999/1" value="0" leadInLength="0/1"  />
             <Keyframe id="312"  time="127/1" value="0" leadInLength="30/1"  interpolater="leadin-linr"  />
             <Keyframe id="313"  time="655/1" value="0" leadInLength="30/1"  interpolater="leadin-linr"  />
             </Keyframes>
            </InterpolatingParam>
            <InterpolatingParam id="314" interp="linr"  >
             <Keyframes>
             <Keyframe id="315"  time="-9999999/1" value="0" leadInLength="0/1"  />
             <Keyframe id="316"  time="127/1" value="0" leadInLength="30/1"  interpolater="leadin-linr"  />
             <Keyframe id="317"  time="655/1" value="0" leadInLength="30/1"  interpolater="leadin-linr"  />
             </Keyframes>
            </InterpolatingParam>
            <InterpolatingParam id="318" interp="linr"  >
             <Keyframes>
             <Keyframe id="319"  time="-9999999/1" value="0" leadInLength="0/1"  />
             <Keyframe id="320"  time="127/1" value="0" leadInLength="30/1"  interpolater="leadin-linr"  />
             <Keyframe id="321"  time="655/1" value="0" leadInLength="30/1"  interpolater="leadin-linr"  />
             </Keyframes>
            </InterpolatingParam>
           </VectorParam>
           <InterpolatingParam id="322" interp="linr"  name="opacity">
            <Keyframes>
            <Keyframe id="323"  time="-9999999/1" value="1" leadInLength="0/1"  />
            <Keyframe id="324"  time="127/1" value="1" leadInLength="30/1"  interpolater="leadin-linr"  />
            <Keyframe id="325"  time="655/1" value="1" leadInLength="30/1"  interpolater="leadin-linr"  />
            </Keyframes>
           </InterpolatingParam>
           <InterpolatingParam id="326" interp="linr"  time="0/1" value="1" leadInLength="0/1"  name="cursorOpacity"/>
           <InterpolatingParam id="327" interp="linr"  time="0/1" value="1" leadInLength="0/1"  name="cursorScale"/>
          </Parameters>
          <Effects>
           <GenericEffect id="328" name = "CursorBaseEffectName" >
            <Parameters>
            <InterpolatingParam id="329" interp="linr"  time="-9999999/1" value="1" leadInLength="0/1"   name="cursorSize"/>
            <InterpolatingParam id="330" interp="linr"  time="-9999999/1" value="0" leadInLength="0/1"   name="highlightBlurRadius"/>
            <InterpolatingParam id="331" interp="linr"  time="-9999999/1" value="0" leadInLength="0/1"   name="highlightColorBlue"/>
            <InterpolatingParam id="332" interp="linr"  time="-9999999/1" value="255" leadInLength="0/1"   name="highlightColorGreen"/>
            <InterpolatingParam id="333" interp="linr"  time="-9999999/1" value="255" leadInLength="0/1"   name="highlightColorRed"/>
            <InterpolatingParam id="334" interp="linr"  time="-9999999/1" value="5" leadInLength="0/1"   name="highlightFeatherSize"/>
            <InterpolatingParam id="335" interp="linr"  time="-9999999/1" value="2" leadInLength="0/1"   name="highlightMagnification"/>
            <InterpolatingParam id="336" interp="linr"  time="-9999999/1" value="1" leadInLength="0/1"   name="highlightOpacity"/>
            <InterpolatingParam id="337" interp="linr"  time="-9999999/1" value="45" leadInLength="0/1"   name="highlightSize"/>
            <Parameter id="338"   name="highlightType">
             <Keyframes>
             <Keyframe id="339"  time="-9999999/1" value="0" leadInLength="0/1"  />
             </Keyframes>
            </Parameter>
            <InterpolatingParam id="340" interp="linr"  time="-9999999/1" value="0" leadInLength="0/1"   name="leftClickColorBlue"/>
            <InterpolatingParam id="341" interp="linr"  time="-9999999/1" value="0" leadInLength="0/1"   name="leftClickColorGreen"/>
            <InterpolatingParam id="342" interp="linr"  time="-9999999/1" value="255" leadInLength="0/1"   name="leftClickColorRed"/>
            <InterpolatingParam id="343" interp="linr"  time="-9999999/1" value="0.80000000000000004" leadInLength="0/1"   name="leftClickDuration"/>
            <InterpolatingParam id="344" interp="linr"  time="-9999999/1" value="20" leadInLength="0/1"   name="leftClickSize"/>
            <Parameter id="345"   name="leftClickSoundFilename">
             <Keyframes>
             <Keyframe id="346"  time="-9999999/1" value="" leadInLength="0/1"  />
             </Keyframes>
            </Parameter>
            <InterpolatingParam id="347" interp="linr"  time="-9999999/1" value="1" leadInLength="0/1"   name="leftClickSoundVolume"/>
            <Parameter id="348"   name="leftClickType">
             <Keyframes>
             <Keyframe id="349"  time="-9999999/1" value="0" leadInLength="0/1"  />
             </Keyframes>
            </Parameter>
            <InterpolatingParam id="350" interp="linr"  time="-9999999/1" value="1" leadInLength="0/1"   name="opacity"/>
            <InterpolatingParam id="351" interp="linr"  time="-9999999/1" value="255" leadInLength="0/1"   name="rightClickColorBlue"/>
            <InterpolatingParam id="352" interp="linr"  time="-9999999/1" value="0" leadInLength="0/1"   name="rightClickColorGreen"/>
            <InterpolatingParam id="353" interp="linr"  time="-9999999/1" value="0" leadInLength="0/1"   name="rightClickColorRed"/>
            <InterpolatingParam id="354" interp="linr"  time="-9999999/1" value="0.80000000000000004" leadInLength="0/1"   name="rightClickDuration"/>
            <InterpolatingParam id="355" interp="linr"  time="-9999999/1" value="20" leadInLength="0/1"   name="rightClickSize"/>
            <Parameter id="356"   name="rightClickSoundFilename">
             <Keyframes>
             <Keyframe id="357"  time="-9999999/1" value="" leadInLength="0/1"  />
             </Keyframes>
            </Parameter>
            <InterpolatingParam id="358" interp="linr"  time="-9999999/1" value="1" leadInLength="0/1"   name="rightClickSoundVolume"/>
            <Parameter id="359"   name="rightClickType">
             <Keyframes>
             <Keyframe id="360"  time="-9999999/1" value="0" leadInLength="0/1"  />
             </Keyframes>
            </Parameter>
            </Parameters>
            <MetaData>
             <entry key="effectIndex" val="0"/>
            </MetaData>
           </GenericEffect>
          </Effects>
          <Attributes>
           <Attribute id="361" value="" name="ident"/>
          </Attributes>
          <ExtraData>
           <Entry key="ZoomPanBin">
            <ZoomPanBin id="362"  >
             <ZoomPanKeyframes>
              <ZoomPanKeyframe id="363" timeRangeEnd="-9999999/1" timeRangeDuration="0/1" interpolaterName="linr"  />
              <ZoomPanKeyframe id="364" timeRangeEnd="127/1" timeRangeDuration="30/1" interpolaterName="linr"  />
              <ZoomPanKeyframe id="365" timeRangeEnd="655/1" timeRangeDuration="30/1" interpolaterName="linr"  />
             </ZoomPanKeyframes>
            </ZoomPanBin>
           </Entry>
           <Entry key="CursorEffectBin">
            <CursorEffectBin id="366"  >
             <CursorEffectKeyframes>
              <CursorEffectKeyframe id="367" timeRangeEnd="-9999999/1" timeRangeDuration="0/1" interpolaterName=""  />
             </CursorEffectKeyframes>
            </CursorEffectBin>
           </Entry>
          </ExtraData>
         </ScreenVMFile>
         <MetaData>
          <entry key="AutoAppliedSmartFocus" val="False"/>
          <entry key="WinSubProjectDisplayName" val=""/>
         </MetaData>
        </UnifiedMedia>
        <UnifiedMedia id="368"  >
         <AMFile id="369" start="1343" duration="241" scalar="1/1" mediaStart="0/1" mediaDuration="241/1" trackNumber="1" src="6" channelNumber="0,1" >
          <Parameters>
           <InterpolatingParam id="370" interp="linr"  time="0/1" value="1" leadInLength="0/1"  name="volume"/>
           <Parameter id="371"  name="captions"/>
          </Parameters>
          <Attributes>
           <Attribute id="372" value="" name="ident"/>
           <Attribute id="373" value="44100" name="sampleRate"/>
           <Attribute id="374" value="16" name="bitDepth"/>
           <Attribute id="375" value="1" name="gain"/>
           <Attribute id="376" value="0" name="mixToMono"/>
          </Attributes>
         </AMFile>
         <ScreenVMFile id="377" start="1343" duration="241" scalar="1/1" mediaStart="0/1" mediaDuration="241/1" trackNumber="0" src="6" >
          <Transformer>
           <VectorParam id="378"  name="translation">
            <InterpolatingParam id="379" interp="linr"  >
             <Keyframes>
             <Keyframe id="380"  time="-9999999/1" value="0" leadInLength="0/1"  />
             <Keyframe id="381"  time="94/1" value="0" leadInLength="30/1"  interpolater="leadin-linr"  />
             </Keyframes>
            </InterpolatingParam>
            <InterpolatingParam id="382" interp="linr"  >
             <Keyframes>
             <Keyframe id="383"  time="-9999999/1" value="0" leadInLength="0/1"  />
             <Keyframe id="384"  time="94/1" value="-0" leadInLength="30/1"  interpolater="leadin-linr"  />
             </Keyframes>
            </InterpolatingParam>
            <InterpolatingParam id="385" interp="linr"  >
             <Keyframes>
             <Keyframe id="386"  time="-9999999/1" value="0" leadInLength="0/1"  />
             <Keyframe id="387"  time="94/1" value="0" leadInLength="30/1"  interpolater="leadin-linr"  />
             </Keyframes>
            </InterpolatingParam>
           </VectorParam>
           <VectorParam id="388"  name="rotation">
            <InterpolatingParam id="389" interp="linr"  >
             <Keyframes>
             <Keyframe id="390"  time="-9999999/1" value="0" leadInLength="0/1"  />
             <Keyframe id="391"  time="94/1" value="0" leadInLength="30/1"  interpolater="leadin-linr"  />
             </Keyframes>
            </InterpolatingParam>
            <InterpolatingParam id="392" interp="linr"  >
             <Keyframes>
             <Keyframe id="393"  time="-9999999/1" value="0" leadInLength="0/1"  />
             <Keyframe id="394"  time="94/1" value="0" leadInLength="30/1"  interpolater="leadin-linr"  />
             </Keyframes>
            </InterpolatingParam>
            <InterpolatingParam id="395" interp="linr"  >
             <Keyframes>
             <Keyframe id="396"  time="-9999999/1" value="0" leadInLength="0/1"  />
             <Keyframe id="397"  time="94/1" value="0" leadInLength="30/1"  interpolater="leadin-linr"  />
             </Keyframes>
            </InterpolatingParam>
           </VectorParam>
           <VectorParam id="398"  name="shear">
            <InterpolatingParam id="399" interp="linr"  >
             <Keyframes>
             <Keyframe id="400"  time="-9999999/1" value="0" leadInLength="0/1"  />
             <Keyframe id="401"  time="94/1" value="0" leadInLength="30/1"  interpolater="leadin-linr"  />
             </Keyframes>
            </InterpolatingParam>
            <InterpolatingParam id="402" interp="linr"  >
             <Keyframes>
             <Keyframe id="403"  time="-9999999/1" value="0" leadInLength="0/1"  />
             <Keyframe id="404"  time="94/1" value="0" leadInLength="30/1"  interpolater="leadin-linr"  />
             </Keyframes>
            </InterpolatingParam>
            <InterpolatingParam id="405" interp="linr"  >
             <Keyframes>
             <Keyframe id="406"  time="-9999999/1" value="0" leadInLength="0/1"  />
             <Keyframe id="407"  time="94/1" value="0" leadInLength="30/1"  interpolater="leadin-linr"  />
             </Keyframes>
            </InterpolatingParam>
           </VectorParam>
           <VectorParam id="408"  name="scale">
            <InterpolatingParam id="409" interp="linr"  >
             <Keyframes>
             <Keyframe id="410"  time="-9999999/1" value="0.66666666666666663" leadInLength="0/1"  />
             <Keyframe id="411"  time="94/1" value="0.66666666666666663" leadInLength="30/1"  interpolater="leadin-linr"  />
             </Keyframes>
            </InterpolatingParam>
            <InterpolatingParam id="412" interp="linr"  >
             <Keyframes>
             <Keyframe id="413"  time="-9999999/1" value="0.66666666666666663" leadInLength="0/1"  />
             <Keyframe id="414"  time="94/1" value="0.66666666666666663" leadInLength="30/1"  interpolater="leadin-linr"  />
             </Keyframes>
            </InterpolatingParam>
            <InterpolatingParam id="415" interp="linr"  >
             <Keyframes>
             <Keyframe id="416"  time="-9999999/1" value="1" leadInLength="0/1"  />
             <Keyframe id="417"  time="94/1" value="1" leadInLength="30/1"  interpolater="leadin-linr"  />
             </Keyframes>
            </InterpolatingParam>
           </VectorParam>
           <VectorParam id="418"  name="anchor">
            <InterpolatingParam id="419" interp="linr"  time="0/1" value="0" leadInLength="0/1"  />
            <InterpolatingParam id="420" interp="linr"  time="0/1" value="0" leadInLength="0/1"  />
            <InterpolatingParam id="421" interp="linr"  time="0/1" value="0" leadInLength="0/1"  />
           </VectorParam>
          </Transformer>
          <Parameters>
           <VectorParam id="422"  name="sourceCrop">
            <InterpolatingParam id="423" interp="linr"  time="0/1" value="0" leadInLength="0/1"  />
            <InterpolatingParam id="424" interp="linr"  time="0/1" value="0" leadInLength="0/1"  />
            <InterpolatingParam id="425" interp="linr"  time="0/1" value="0" leadInLength="0/1"  />
            <InterpolatingParam id="426" interp="linr"  time="0/1" value="0" leadInLength="0/1"  />
           </VectorParam>
           <VectorParam id="427"  name="geometryCrop">
            <InterpolatingParam id="428" interp="linr"  >
             <Keyframes>
             <Keyframe id="429"  time="-9999999/1" value="0" leadInLength="0/1"  />
             <Keyframe id="430"  time="94/1" value="0" leadInLength="30/1"  interpolater="leadin-linr"  />
             </Keyframes>
            </InterpolatingParam>
            <InterpolatingParam id="431" interp="linr"  >
             <Keyframes>
             <Keyframe id="432"  time="-9999999/1" value="0" leadInLength="0/1"  />
             <Keyframe id="433"  time="94/1" value="0" leadInLength="30/1"  interpolater="leadin-linr"  />
             </Keyframes>
            </InterpolatingParam>
            <InterpolatingParam id="434" interp="linr"  >
             <Keyframes>
             <Keyframe id="435"  time="-9999999/1" value="0" leadInLength="0/1"  />
             <Keyframe id="436"  time="94/1" value="0" leadInLength="30/1"  interpolater="leadin-linr"  />
             </Keyframes>
            </InterpolatingParam>
            <InterpolatingParam id="437" interp="linr"  >
             <Keyframes>
             <Keyframe id="438"  time="-9999999/1" value="0" leadInLength="0/1"  />
             <Keyframe id="439"  time="94/1" value="0" leadInLength="30/1"  interpolater="leadin-linr"  />
             </Keyframes>
            </InterpolatingParam>
           </VectorParam>
           <InterpolatingParam id="440" interp="linr"  name="opacity">
            <Keyframes>
            <Keyframe id="441"  time="-9999999/1" value="1" leadInLength="0/1"  />
            <Keyframe id="442"  time="94/1" value="1" leadInLength="30/1"  interpolater="leadin-linr"  />
            </Keyframes>
           </InterpolatingParam>
           <InterpolatingParam id="443" interp="linr"  time="0/1" value="1" leadInLength="0/1"  name="cursorOpacity"/>
           <InterpolatingParam id="444" interp="linr"  time="0/1" value="1" leadInLength="0/1"  name="cursorScale"/>
          </Parameters>
          <Effects>
           <GenericEffect id="445" name = "CursorBaseEffectName" >
            <Parameters>
            <InterpolatingParam id="446" interp="linr"  time="-9999999/1" value="1" leadInLength="0/1"   name="cursorSize"/>
            <InterpolatingParam id="447" interp="linr"  time="-9999999/1" value="0" leadInLength="0/1"   name="highlightBlurRadius"/>
            <InterpolatingParam id="448" interp="linr"  time="-9999999/1" value="0" leadInLength="0/1"   name="highlightColorBlue"/>
            <InterpolatingParam id="449" interp="linr"  time="-9999999/1" value="255" leadInLength="0/1"   name="highlightColorGreen"/>
            <InterpolatingParam id="450" interp="linr"  time="-9999999/1" value="255" leadInLength="0/1"   name="highlightColorRed"/>
            <InterpolatingParam id="451" interp="linr"  time="-9999999/1" value="5" leadInLength="0/1"   name="highlightFeatherSize"/>
            <InterpolatingParam id="452" interp="linr"  time="-9999999/1" value="2" leadInLength="0/1"   name="highlightMagnification"/>
            <InterpolatingParam id="453" interp="linr"  time="-9999999/1" value="1" leadInLength="0/1"   name="highlightOpacity"/>
            <InterpolatingParam id="454" interp="linr"  time="-9999999/1" value="45" leadInLength="0/1"   name="highlightSize"/>
            <Parameter id="455"   name="highlightType">
             <Keyframes>
             <Keyframe id="456"  time="-9999999/1" value="0" leadInLength="0/1"  />
             </Keyframes>
            </Parameter>
            <InterpolatingParam id="457" interp="linr"  time="-9999999/1" value="0" leadInLength="0/1"   name="leftClickColorBlue"/>
            <InterpolatingParam id="458" interp="linr"  time="-9999999/1" value="0" leadInLength="0/1"   name="leftClickColorGreen"/>
            <InterpolatingParam id="459" interp="linr"  time="-9999999/1" value="255" leadInLength="0/1"   name="leftClickColorRed"/>
            <InterpolatingParam id="460" interp="linr"  time="-9999999/1" value="0.80000000000000004" leadInLength="0/1"   name="leftClickDuration"/>
            <InterpolatingParam id="461" interp="linr"  time="-9999999/1" value="20" leadInLength="0/1"   name="leftClickSize"/>
            <Parameter id="462"   name="leftClickSoundFilename">
             <Keyframes>
             <Keyframe id="463"  time="-9999999/1" value="" leadInLength="0/1"  />
             </Keyframes>
            </Parameter>
            <InterpolatingParam id="464" interp="linr"  time="-9999999/1" value="1" leadInLength="0/1"   name="leftClickSoundVolume"/>
            <Parameter id="465"   name="leftClickType">
             <Keyframes>
             <Keyframe id="466"  time="-9999999/1" value="0" leadInLength="0/1"  />
             </Keyframes>
            </Parameter>
            <InterpolatingParam id="467" interp="linr"  time="-9999999/1" value="1" leadInLength="0/1"   name="opacity"/>
            <InterpolatingParam id="468" interp="linr"  time="-9999999/1" value="255" leadInLength="0/1"   name="rightClickColorBlue"/>
            <InterpolatingParam id="469" interp="linr"  time="-9999999/1" value="0" leadInLength="0/1"   name="rightClickColorGreen"/>
            <InterpolatingParam id="470" interp="linr"  time="-9999999/1" value="0" leadInLength="0/1"   name="rightClickColorRed"/>
            <InterpolatingParam id="471" interp="linr"  time="-9999999/1" value="0.80000000000000004" leadInLength="0/1"   name="rightClickDuration"/>
            <InterpolatingParam id="472" interp="linr"  time="-9999999/1" value="20" leadInLength="0/1"   name="rightClickSize"/>
            <Parameter id="473"   name="rightClickSoundFilename">
             <Keyframes>
             <Keyframe id="474"  time="-9999999/1" value="" leadInLength="0/1"  />
             </Keyframes>
            </Parameter>
            <InterpolatingParam id="475" interp="linr"  time="-9999999/1" value="1" leadInLength="0/1"   name="rightClickSoundVolume"/>
            <Parameter id="476"   name="rightClickType">
             <Keyframes>
             <Keyframe id="477"  time="-9999999/1" value="0" leadInLength="0/1"  />
             </Keyframes>
            </Parameter>
            </Parameters>
            <MetaData>
             <entry key="effectIndex" val="0"/>
            </MetaData>
           </GenericEffect>
          </Effects>
          <Attributes>
           <Attribute id="478" value="" name="ident"/>
          </Attributes>
          <ExtraData>
           <Entry key="ZoomPanBin">
            <ZoomPanBin id="479"  >
             <ZoomPanKeyframes>
              <ZoomPanKeyframe id="480" timeRangeEnd="-9999999/1" timeRangeDuration="0/1" interpolaterName="linr"  />
              <ZoomPanKeyframe id="481" timeRangeEnd="94/1" timeRangeDuration="30/1" interpolaterName="linr"  />
             </ZoomPanKeyframes>
            </ZoomPanBin>
           </Entry>
           <Entry key="CursorEffectBin">
            <CursorEffectBin id="482"  >
             <CursorEffectKeyframes>
              <CursorEffectKeyframe id="483" timeRangeEnd="-9999999/1" timeRangeDuration="0/1" interpolaterName=""  />
             </CursorEffectKeyframes>
            </CursorEffectBin>
           </Entry>
          </ExtraData>
         </ScreenVMFile>
         <MetaData>
          <entry key="AutoAppliedSmartFocus" val="True"/>
          <entry key="WinSubProjectDisplayName" val=""/>
         </MetaData>
        </UnifiedMedia>
        <UnifiedMedia id="484"  >
         <AMFile id="485" start="1584" duration="1081" scalar="1/1" mediaStart="0/1" mediaDuration="1081/1" trackNumber="1" src="7" channelNumber="0,1" >
          <Parameters>
           <InterpolatingParam id="486" interp="linr"  time="0/1" value="1" leadInLength="0/1"  name="volume"/>
           <Parameter id="487"  name="captions"/>
          </Parameters>
          <Attributes>
           <Attribute id="488" value="" name="ident"/>
           <Attribute id="489" value="44100" name="sampleRate"/>
           <Attribute id="490" value="16" name="bitDepth"/>
           <Attribute id="491" value="1" name="gain"/>
           <Attribute id="492" value="0" name="mixToMono"/>
          </Attributes>
         </AMFile>
         <ScreenVMFile id="493" start="1584" duration="1081" scalar="1/1" mediaStart="0/1" mediaDuration="1081/1" trackNumber="0" src="7" >
          <Transformer>
           <VectorParam id="494"  name="translation">
            <InterpolatingParam id="495" interp="linr"  >
             <Keyframes>
             <Keyframe id="496"  time="-9999999/1" value="0" leadInLength="0/1"  />
             <Keyframe id="497"  time="96/1" value="274.38863596613521" leadInLength="30/1"  interpolater="leadin-linr"  />
             </Keyframes>
            </InterpolatingParam>
            <InterpolatingParam id="498" interp="linr"  >
             <Keyframes>
             <Keyframe id="499"  time="-9999999/1" value="0" leadInLength="0/1"  />
             <Keyframe id="500"  time="96/1" value="-154.3436120601726" leadInLength="30/1"  interpolater="leadin-linr"  />
             </Keyframes>
            </InterpolatingParam>
            <InterpolatingParam id="501" interp="linr"  >
             <Keyframes>
             <Keyframe id="502"  time="-9999999/1" value="0" leadInLength="0/1"  />
             <Keyframe id="503"  time="96/1" value="0" leadInLength="30/1"  interpolater="leadin-linr"  />
             </Keyframes>
            </InterpolatingParam>
           </VectorParam>
           <VectorParam id="504"  name="rotation">
            <InterpolatingParam id="505" interp="linr"  >
             <Keyframes>
             <Keyframe id="506"  time="-9999999/1" value="0" leadInLength="0/1"  />
             <Keyframe id="507"  time="96/1" value="0" leadInLength="30/1"  interpolater="leadin-linr"  />
             </Keyframes>
            </InterpolatingParam>
            <InterpolatingParam id="508" interp="linr"  >
             <Keyframes>
             <Keyframe id="509"  time="-9999999/1" value="0" leadInLength="0/1"  />
             <Keyframe id="510"  time="96/1" value="0" leadInLength="30/1"  interpolater="leadin-linr"  />
             </Keyframes>
            </InterpolatingParam>
            <InterpolatingParam id="511" interp="linr"  >
             <Keyframes>
             <Keyframe id="512"  time="-9999999/1" value="0" leadInLength="0/1"  />
             <Keyframe id="513"  time="96/1" value="0" leadInLength="30/1"  interpolater="leadin-linr"  />
             </Keyframes>
            </InterpolatingParam>
           </VectorParam>
           <VectorParam id="514"  name="shear">
            <InterpolatingParam id="515" interp="linr"  >
             <Keyframes>
             <Keyframe id="516"  time="-9999999/1" value="0" leadInLength="0/1"  />
             <Keyframe id="517"  time="96/1" value="0" leadInLength="30/1"  interpolater="leadin-linr"  />
             </Keyframes>
            </InterpolatingParam>
            <InterpolatingParam id="518" interp="linr"  >
             <Keyframes>
             <Keyframe id="519"  time="-9999999/1" value="0" leadInLength="0/1"  />
             <Keyframe id="520"  time="96/1" value="0" leadInLength="30/1"  interpolater="leadin-linr"  />
             </Keyframes>
            </InterpolatingParam>
            <InterpolatingParam id="521" interp="linr"  >
             <Keyframes>
             <Keyframe id="522"  time="-9999999/1" value="0" leadInLength="0/1"  />
             <Keyframe id="523"  time="96/1" value="0" leadInLength="30/1"  interpolater="leadin-linr"  />
             </Keyframes>
            </InterpolatingParam>
           </VectorParam>
           <VectorParam id="524"  name="scale">
            <InterpolatingParam id="525" interp="linr"  >
             <Keyframes>
             <Keyframe id="526"  time="-9999999/1" value="0.66666666666666663" leadInLength="0/1"  />
             <Keyframe id="527"  time="96/1" value="0.95248815215705318" leadInLength="30/1"  interpolater="leadin-linr"  />
             </Keyframes>
            </InterpolatingParam>
            <InterpolatingParam id="528" interp="linr"  >
             <Keyframes>
             <Keyframe id="529"  time="-9999999/1" value="0.66666666666666663" leadInLength="0/1"  />
             <Keyframe id="530"  time="96/1" value="0.95248815215705296" leadInLength="30/1"  interpolater="leadin-linr"  />
             </Keyframes>
            </InterpolatingParam>
            <InterpolatingParam id="531" interp="linr"  >
             <Keyframes>
             <Keyframe id="532"  time="-9999999/1" value="1" leadInLength="0/1"  />
             <Keyframe id="533"  time="96/1" value="1" leadInLength="30/1"  interpolater="leadin-linr"  />
             </Keyframes>
            </InterpolatingParam>
           </VectorParam>
           <VectorParam id="534"  name="anchor">
            <InterpolatingParam id="535" interp="linr"  time="0/1" value="0" leadInLength="0/1"  />
            <InterpolatingParam id="536" interp="linr"  time="0/1" value="0" leadInLength="0/1"  />
            <InterpolatingParam id="537" interp="linr"  time="0/1" value="0" leadInLength="0/1"  />
           </VectorParam>
          </Transformer>
          <Parameters>
           <VectorParam id="538"  name="sourceCrop">
            <InterpolatingParam id="539" interp="linr"  time="0/1" value="0" leadInLength="0/1"  />
            <InterpolatingParam id="540" interp="linr"  time="0/1" value="0" leadInLength="0/1"  />
            <InterpolatingParam id="541" interp="linr"  time="0/1" value="0" leadInLength="0/1"  />
            <InterpolatingParam id="542" interp="linr"  time="0/1" value="0" leadInLength="0/1"  />
           </VectorParam>
           <VectorParam id="543"  name="geometryCrop">
            <InterpolatingParam id="544" interp="linr"  >
             <Keyframes>
             <Keyframe id="545"  time="-9999999/1" value="0" leadInLength="0/1"  />
             <Keyframe id="546"  time="96/1" value="0" leadInLength="30/1"  interpolater="leadin-linr"  />
             </Keyframes>
            </InterpolatingParam>
            <InterpolatingParam id="547" interp="linr"  >
             <Keyframes>
             <Keyframe id="548"  time="-9999999/1" value="0" leadInLength="0/1"  />
             <Keyframe id="549"  time="96/1" value="0" leadInLength="30/1"  interpolater="leadin-linr"  />
             </Keyframes>
            </InterpolatingParam>
            <InterpolatingParam id="550" interp="linr"  >
             <Keyframes>
             <Keyframe id="551"  time="-9999999/1" value="0" leadInLength="0/1"  />
             <Keyframe id="552"  time="96/1" value="0" leadInLength="30/1"  interpolater="leadin-linr"  />
             </Keyframes>
            </InterpolatingParam>
            <InterpolatingParam id="553" interp="linr"  >
             <Keyframes>
             <Keyframe id="554"  time="-9999999/1" value="0" leadInLength="0/1"  />
             <Keyframe id="555"  time="96/1" value="0" leadInLength="30/1"  interpolater="leadin-linr"  />
             </Keyframes>
            </InterpolatingParam>
           </VectorParam>
           <InterpolatingParam id="556" interp="linr"  name="opacity">
            <Keyframes>
            <Keyframe id="557"  time="-9999999/1" value="1" leadInLength="0/1"  />
            <Keyframe id="558"  time="96/1" value="1" leadInLength="30/1"  interpolater="leadin-linr"  />
            </Keyframes>
           </InterpolatingParam>
           <InterpolatingParam id="559" interp="linr"  time="0/1" value="1" leadInLength="0/1"  name="cursorOpacity"/>
           <InterpolatingParam id="560" interp="linr"  time="0/1" value="1" leadInLength="0/1"  name="cursorScale"/>
          </Parameters>
          <Effects>
           <GenericEffect id="561" name = "CursorBaseEffectName" >
            <Parameters>
            <InterpolatingParam id="562" interp="linr"  time="-9999999/1" value="1" leadInLength="0/1"   name="cursorSize"/>
            <InterpolatingParam id="563" interp="linr"  time="-9999999/1" value="0" leadInLength="0/1"   name="highlightBlurRadius"/>
            <InterpolatingParam id="564" interp="linr"  time="-9999999/1" value="0" leadInLength="0/1"   name="highlightColorBlue"/>
            <InterpolatingParam id="565" interp="linr"  time="-9999999/1" value="255" leadInLength="0/1"   name="highlightColorGreen"/>
            <InterpolatingParam id="566" interp="linr"  time="-9999999/1" value="255" leadInLength="0/1"   name="highlightColorRed"/>
            <InterpolatingParam id="567" interp="linr"  time="-9999999/1" value="5" leadInLength="0/1"   name="highlightFeatherSize"/>
            <InterpolatingParam id="568" interp="linr"  time="-9999999/1" value="2" leadInLength="0/1"   name="highlightMagnification"/>
            <InterpolatingParam id="569" interp="linr"  time="-9999999/1" value="1" leadInLength="0/1"   name="highlightOpacity"/>
            <InterpolatingParam id="570" interp="linr"  time="-9999999/1" value="45" leadInLength="0/1"   name="highlightSize"/>
            <Parameter id="571"   name="highlightType">
             <Keyframes>
             <Keyframe id="572"  time="-9999999/1" value="0" leadInLength="0/1"  />
             </Keyframes>
            </Parameter>
            <InterpolatingParam id="573" interp="linr"  time="-9999999/1" value="0" leadInLength="0/1"   name="leftClickColorBlue"/>
            <InterpolatingParam id="574" interp="linr"  time="-9999999/1" value="0" leadInLength="0/1"   name="leftClickColorGreen"/>
            <InterpolatingParam id="575" interp="linr"  time="-9999999/1" value="255" leadInLength="0/1"   name="leftClickColorRed"/>
            <InterpolatingParam id="576" interp="linr"  time="-9999999/1" value="0.80000000000000004" leadInLength="0/1"   name="leftClickDuration"/>
            <InterpolatingParam id="577" interp="linr"  time="-9999999/1" value="20" leadInLength="0/1"   name="leftClickSize"/>
            <Parameter id="578"   name="leftClickSoundFilename">
             <Keyframes>
             <Keyframe id="579"  time="-9999999/1" value="" leadInLength="0/1"  />
             </Keyframes>
            </Parameter>
            <InterpolatingParam id="580" interp="linr"  time="-9999999/1" value="1" leadInLength="0/1"   name="leftClickSoundVolume"/>
            <Parameter id="581"   name="leftClickType">
             <Keyframes>
             <Keyframe id="582"  time="-9999999/1" value="0" leadInLength="0/1"  />
             </Keyframes>
            </Parameter>
            <InterpolatingParam id="583" interp="linr"  time="-9999999/1" value="1" leadInLength="0/1"   name="opacity"/>
            <InterpolatingParam id="584" interp="linr"  time="-9999999/1" value="255" leadInLength="0/1"   name="rightClickColorBlue"/>
            <InterpolatingParam id="585" interp="linr"  time="-9999999/1" value="0" leadInLength="0/1"   name="rightClickColorGreen"/>
            <InterpolatingParam id="586" interp="linr"  time="-9999999/1" value="0" leadInLength="0/1"   name="rightClickColorRed"/>
            <InterpolatingParam id="587" interp="linr"  time="-9999999/1" value="0.80000000000000004" leadInLength="0/1"   name="rightClickDuration"/>
            <InterpolatingParam id="588" interp="linr"  time="-9999999/1" value="20" leadInLength="0/1"   name="rightClickSize"/>
            <Parameter id="589"   name="rightClickSoundFilename">
             <Keyframes>
             <Keyframe id="590"  time="-9999999/1" value="" leadInLength="0/1"  />
             </Keyframes>
            </Parameter>
            <InterpolatingParam id="591" interp="linr"  time="-9999999/1" value="1" leadInLength="0/1"   name="rightClickSoundVolume"/>
            <Parameter id="592"   name="rightClickType">
             <Keyframes>
             <Keyframe id="593"  time="-9999999/1" value="0" leadInLength="0/1"  />
             </Keyframes>
            </Parameter>
            </Parameters>
            <MetaData>
             <entry key="effectIndex" val="0"/>
            </MetaData>
           </GenericEffect>
          </Effects>
          <Attributes>
           <Attribute id="594" value="" name="ident"/>
          </Attributes>
          <ExtraData>
           <Entry key="ZoomPanBin">
            <ZoomPanBin id="595"  >
             <ZoomPanKeyframes>
              <ZoomPanKeyframe id="596" timeRangeEnd="-9999999/1" timeRangeDuration="0/1" interpolaterName="linr"  />
              <ZoomPanKeyframe id="597" timeRangeEnd="96/1" timeRangeDuration="30/1" interpolaterName="linr"  />
             </ZoomPanKeyframes>
            </ZoomPanBin>
           </Entry>
           <Entry key="CursorEffectBin">
            <CursorEffectBin id="598"  >
             <CursorEffectKeyframes>
              <CursorEffectKeyframe id="599" timeRangeEnd="-9999999/1" timeRangeDuration="0/1" interpolaterName=""  />
             </CursorEffectKeyframes>
            </CursorEffectBin>
           </Entry>
          </ExtraData>
         </ScreenVMFile>
         <MetaData>
          <entry key="AutoAppliedSmartFocus" val="True"/>
          <entry key="WinSubProjectDisplayName" val=""/>
         </MetaData>
        </UnifiedMedia>
        <UnifiedMedia id="600"  >
         <AMFile id="601" start="2665" duration="3870" scalar="1/1" mediaStart="0/1" mediaDuration="3870/1" trackNumber="1" src="9" channelNumber="0,1" >
          <Parameters>
           <InterpolatingParam id="602" interp="linr"  time="0/1" value="1" leadInLength="0/1"  name="volume"/>
           <Parameter id="603"  name="captions"/>
          </Parameters>
          <Attributes>
           <Attribute id="604" value="" name="ident"/>
           <Attribute id="605" value="44100" name="sampleRate"/>
           <Attribute id="606" value="16" name="bitDepth"/>
           <Attribute id="607" value="1" name="gain"/>
           <Attribute id="608" value="0" name="mixToMono"/>
          </Attributes>
         </AMFile>
         <ScreenVMFile id="609" start="2665" duration="3870" scalar="1/1" mediaStart="0/1" mediaDuration="3870/1" trackNumber="0" src="9" >
          <Transformer>
           <VectorParam id="610"  name="translation">
            <InterpolatingParam id="611" interp="linr"  >
             <Keyframes>
             <Keyframe id="612"  time="-9999999/1" value="-3.2751579226440199e-011" leadInLength="0/1"  />
             <Keyframe id="613"  time="222/1" value="352.19362890212153" leadInLength="30/1"  interpolater="leadin-linr"  />
             <Keyframe id="614"  time="975/1" value="0" leadInLength="30/1"  interpolater="leadin-linr"  />
             <Keyframe id="615"  time="1320/1" value="450.77514311987397" leadInLength="30/1"  interpolater="leadin-linr"  />
             <Keyframe id="616"  time="1402/1" value="-8.8817841970012523e-014" leadInLength="30/1"  interpolater="leadin-linr"  />
             <Keyframe id="617"  time="1533/1" value="261.91703138126957" leadInLength="30/1"  interpolater="leadin-linr"  />
             <Keyframe id="618"  time="2246/1" value="-2.8421709430404004e-014" leadInLength="30/1"  interpolater="leadin-linr"  />
             <Keyframe id="619"  time="3073/1" value="304.92156678091953" leadInLength="30/1"  interpolater="leadin-linr"  />
             </Keyframes>
            </InterpolatingParam>
            <InterpolatingParam id="620" interp="linr"  >
             <Keyframes>
             <Keyframe id="621"  time="-9999999/1" value="-1.5840366055878498e-011" leadInLength="0/1"  />
             <Keyframe id="622"  time="222/1" value="-109.44481239779654" leadInLength="30/1"  interpolater="leadin-linr"  />
             <Keyframe id="623"  time="975/1" value="-0" leadInLength="30/1"  interpolater="leadin-linr"  />
             <Keyframe id="624"  time="1320/1" value="172.77051853087568" leadInLength="30/1"  interpolater="leadin-linr"  />
             <Keyframe id="625"  time="1402/1" value="2.2081437427243916e-015" leadInLength="30/1"  interpolater="leadin-linr"  />
             <Keyframe id="626"  time="1533/1" value="125.62881154877606" leadInLength="30/1"  interpolater="leadin-linr"  />
             <Keyframe id="627"  time="2246/1" value="-4.2632564145606011e-014" leadInLength="30/1"  interpolater="leadin-linr"  />
             <Keyframe id="628"  time="3073/1" value="-171.51837257750941" leadInLength="30/1"  interpolater="leadin-linr"  />
             </Keyframes>
            </InterpolatingParam>
            <InterpolatingParam id="629" interp="linr"  >
             <Keyframes>
             <Keyframe id="630"  time="-9999999/1" value="0" leadInLength="0/1"  />
             <Keyframe id="631"  time="222/1" value="0" leadInLength="30/1"  interpolater="leadin-linr"  />
             <Keyframe id="632"  time="975/1" value="0" leadInLength="30/1"  interpolater="leadin-linr"  />
             <Keyframe id="633"  time="1320/1" value="0" leadInLength="30/1"  interpolater="leadin-linr"  />
             <Keyframe id="634"  time="1402/1" value="0" leadInLength="30/1"  interpolater="leadin-linr"  />
             <Keyframe id="635"  time="1533/1" value="0" leadInLength="30/1"  interpolater="leadin-linr"  />
             <Keyframe id="636"  time="2246/1" value="0" leadInLength="30/1"  interpolater="leadin-linr"  />
             <Keyframe id="637"  time="3073/1" value="0" leadInLength="30/1"  interpolater="leadin-linr"  />
             </Keyframes>
            </InterpolatingParam>
           </VectorParam>
           <VectorParam id="638"  name="rotation">
            <InterpolatingParam id="639" interp="linr"  >
             <Keyframes>
             <Keyframe id="640"  time="-9999999/1" value="0" leadInLength="0/1"  />
             <Keyframe id="641"  time="222/1" value="0" leadInLength="30/1"  interpolater="leadin-linr"  />
             <Keyframe id="642"  time="975/1" value="0" leadInLength="30/1"  interpolater="leadin-linr"  />
             <Keyframe id="643"  time="1320/1" value="0" leadInLength="30/1"  interpolater="leadin-linr"  />
             <Keyframe id="644"  time="1402/1" value="0" leadInLength="30/1"  interpolater="leadin-linr"  />
             <Keyframe id="645"  time="1533/1" value="0" leadInLength="30/1"  interpolater="leadin-linr"  />
             <Keyframe id="646"  time="2246/1" value="0" leadInLength="30/1"  interpolater="leadin-linr"  />
             <Keyframe id="647"  time="3073/1" value="0" leadInLength="30/1"  interpolater="leadin-linr"  />
             </Keyframes>
            </InterpolatingParam>
            <InterpolatingParam id="648" interp="linr"  >
             <Keyframes>
             <Keyframe id="649"  time="-9999999/1" value="0" leadInLength="0/1"  />
             <Keyframe id="650"  time="222/1" value="0" leadInLength="30/1"  interpolater="leadin-linr"  />
             <Keyframe id="651"  time="975/1" value="0" leadInLength="30/1"  interpolater="leadin-linr"  />
             <Keyframe id="652"  time="1320/1" value="0" leadInLength="30/1"  interpolater="leadin-linr"  />
             <Keyframe id="653"  time="1402/1" value="0" leadInLength="30/1"  interpolater="leadin-linr"  />
             <Keyframe id="654"  time="1533/1" value="0" leadInLength="30/1"  interpolater="leadin-linr"  />
             <Keyframe id="655"  time="2246/1" value="0" leadInLength="30/1"  interpolater="leadin-linr"  />
             <Keyframe id="656"  time="3073/1" value="0" leadInLength="30/1"  interpolater="leadin-linr"  />
             </Keyframes>
            </InterpolatingParam>
            <InterpolatingParam id="657" interp="linr"  >
             <Keyframes>
             <Keyframe id="658"  time="-9999999/1" value="0" leadInLength="0/1"  />
             <Keyframe id="659"  time="222/1" value="0" leadInLength="30/1"  interpolater="leadin-linr"  />
             <Keyframe id="660"  time="975/1" value="0" leadInLength="30/1"  interpolater="leadin-linr"  />
             <Keyframe id="661"  time="1320/1" value="0" leadInLength="30/1"  interpolater="leadin-linr"  />
             <Keyframe id="662"  time="1402/1" value="0" leadInLength="30/1"  interpolater="leadin-linr"  />
             <Keyframe id="663"  time="1533/1" value="0" leadInLength="30/1"  interpolater="leadin-linr"  />
             <Keyframe id="664"  time="2246/1" value="0" leadInLength="30/1"  interpolater="leadin-linr"  />
             <Keyframe id="665"  time="3073/1" value="0" leadInLength="30/1"  interpolater="leadin-linr"  />
             </Keyframes>
            </InterpolatingParam>
           </VectorParam>
           <VectorParam id="666"  name="shear">
            <InterpolatingParam id="667" interp="linr"  >
             <Keyframes>
             <Keyframe id="668"  time="-9999999/1" value="0" leadInLength="0/1"  />
             <Keyframe id="669"  time="222/1" value="0" leadInLength="30/1"  interpolater="leadin-linr"  />
             <Keyframe id="670"  time="975/1" value="0" leadInLength="30/1"  interpolater="leadin-linr"  />
             <Keyframe id="671"  time="1320/1" value="0" leadInLength="30/1"  interpolater="leadin-linr"  />
             <Keyframe id="672"  time="1402/1" value="0" leadInLength="30/1"  interpolater="leadin-linr"  />
             <Keyframe id="673"  time="1533/1" value="0" leadInLength="30/1"  interpolater="leadin-linr"  />
             <Keyframe id="674"  time="2246/1" value="0" leadInLength="30/1"  interpolater="leadin-linr"  />
             <Keyframe id="675"  time="3073/1" value="0" leadInLength="30/1"  interpolater="leadin-linr"  />
             </Keyframes>
            </InterpolatingParam>
            <InterpolatingParam id="676" interp="linr"  >
             <Keyframes>
             <Keyframe id="677"  time="-9999999/1" value="0" leadInLength="0/1"  />
             <Keyframe id="678"  time="222/1" value="0" leadInLength="30/1"  interpolater="leadin-linr"  />
             <Keyframe id="679"  time="975/1" value="0" leadInLength="30/1"  interpolater="leadin-linr"  />
             <Keyframe id="680"  time="1320/1" value="0" leadInLength="30/1"  interpolater="leadin-linr"  />
             <Keyframe id="681"  time="1402/1" value="0" leadInLength="30/1"  interpolater="leadin-linr"  />
             <Keyframe id="682"  time="1533/1" value="0" leadInLength="30/1"  interpolater="leadin-linr"  />
             <Keyframe id="683"  time="2246/1" value="0" leadInLength="30/1"  interpolater="leadin-linr"  />
             <Keyframe id="684"  time="3073/1" value="0" leadInLength="30/1"  interpolater="leadin-linr"  />
             </Keyframes>
            </InterpolatingParam>
            <InterpolatingParam id="685" interp="linr"  >
             <Keyframes>
             <Keyframe id="686"  time="-9999999/1" value="0" leadInLength="0/1"  />
             <Keyframe id="687"  time="222/1" value="0" leadInLength="30/1"  interpolater="leadin-linr"  />
             <Keyframe id="688"  time="975/1" value="0" leadInLength="30/1"  interpolater="leadin-linr"  />
             <Keyframe id="689"  time="1320/1" value="0" leadInLength="30/1"  interpolater="leadin-linr"  />
             <Keyframe id="690"  time="1402/1" value="0" leadInLength="30/1"  interpolater="leadin-linr"  />
             <Keyframe id="691"  time="1533/1" value="0" leadInLength="30/1"  interpolater="leadin-linr"  />
             <Keyframe id="692"  time="2246/1" value="0" leadInLength="30/1"  interpolater="leadin-linr"  />
             <Keyframe id="693"  time="3073/1" value="0" leadInLength="30/1"  interpolater="leadin-linr"  />
             </Keyframes>
            </InterpolatingParam>
           </VectorParam>
           <VectorParam id="694"  name="scale">
            <InterpolatingParam id="695" interp="linr"  >
             <Keyframes>
             <Keyframe id="696"  time="-9999999/1" value="0.66666666666666663" leadInLength="0/1"  />
             <Keyframe id="697"  time="222/1" value="1.0335350077368775" leadInLength="30/1"  interpolater="leadin-linr"  />
             <Keyframe id="698"  time="975/1" value="0.66666666666666663" leadInLength="30/1"  interpolater="leadin-linr"  />
             <Keyframe id="699"  time="1320/1" value="1.0821181861078724" leadInLength="30/1"  interpolater="leadin-linr"  />
             <Keyframe id="700"  time="1402/1" value="0.66666666666666652" leadInLength="30/1"  interpolater="leadin-linr"  />
             <Keyframe id="701"  time="1533/1" value="0.95853155624775721" leadInLength="30/1"  interpolater="leadin-linr"  />
             <Keyframe id="702"  time="2246/1" value="0.66666664450903212" leadInLength="30/1"  interpolater="leadin-linr"  />
             <Keyframe id="703"  time="3073/1" value="0.98429325536384737" leadInLength="30/1"  interpolater="leadin-linr"  />
             </Keyframes>
            </InterpolatingParam>
            <InterpolatingParam id="704" interp="linr"  >
             <Keyframes>
             <Keyframe id="705"  time="-9999999/1" value="0.66666666666666663" leadInLength="0/1"  />
             <Keyframe id="706"  time="222/1" value="1.033535061682743" leadInLength="30/1"  interpolater="leadin-linr"  />
             <Keyframe id="707"  time="975/1" value="0.66666666666666663" leadInLength="30/1"  interpolater="leadin-linr"  />
             <Keyframe id="708"  time="1320/1" value="1.0821181121869938" leadInLength="30/1"  interpolater="leadin-linr"  />
             <Keyframe id="709"  time="1402/1" value="0.66666665655252266" leadInLength="30/1"  interpolater="leadin-linr"  />
             <Keyframe id="710"  time="1533/1" value="0.95853158810594608" leadInLength="30/1"  interpolater="leadin-linr"  />
             <Keyframe id="711"  time="2246/1" value="0.66666666666666674" leadInLength="30/1"  interpolater="leadin-linr"  />
             <Keyframe id="712"  time="3073/1" value="0.98429326361430292" leadInLength="30/1"  interpolater="leadin-linr"  />
             </Keyframes>
            </InterpolatingParam>
            <InterpolatingParam id="713" interp="linr"  >
             <Keyframes>
             <Keyframe id="714"  time="-9999999/1" value="1" leadInLength="0/1"  />
             <Keyframe id="715"  time="222/1" value="0.99999999999999989" leadInLength="30/1"  interpolater="leadin-linr"  />
             <Keyframe id="716"  time="975/1" value="1" leadInLength="30/1"  interpolater="leadin-linr"  />
             <Keyframe id="717"  time="1320/1" value="0.99999999999999989" leadInLength="30/1"  interpolater="leadin-linr"  />
             <Keyframe id="718"  time="1402/1" value="0.99999999999999989" leadInLength="30/1"  interpolater="leadin-linr"  />
             <Keyframe id="719"  time="1533/1" value="0.99999999999999978" leadInLength="30/1"  interpolater="leadin-linr"  />
             <Keyframe id="720"  time="2246/1" value="0.99999999999999978" leadInLength="30/1"  interpolater="leadin-linr"  />
             <Keyframe id="721"  time="3073/1" value="0.99999999999999978" leadInLength="30/1"  interpolater="leadin-linr"  />
             </Keyframes>
            </InterpolatingParam>
           </VectorParam>
           <VectorParam id="722"  name="anchor">
            <InterpolatingParam id="723" interp="linr"  time="0/1" value="0" leadInLength="0/1"  />
            <InterpolatingParam id="724" interp="linr"  time="0/1" value="0" leadInLength="0/1"  />
            <InterpolatingParam id="725" interp="linr"  time="0/1" value="0" leadInLength="0/1"  />
           </VectorParam>
          </Transformer>
          <Parameters>
           <VectorParam id="726"  name="sourceCrop">
            <InterpolatingParam id="727" interp="linr"  time="0/1" value="0" leadInLength="0/1"  />
            <InterpolatingParam id="728" interp="linr"  time="0/1" value="0" leadInLength="0/1"  />
            <InterpolatingParam id="729" interp="linr"  time="0/1" value="0" leadInLength="0/1"  />
            <InterpolatingParam id="730" interp="linr"  time="0/1" value="0" leadInLength="0/1"  />
           </VectorParam>
           <VectorParam id="731"  name="geometryCrop">
            <InterpolatingParam id="732" interp="linr"  >
             <Keyframes>
             <Keyframe id="733"  time="-9999999/1" value="0" leadInLength="0/1"  />
             <Keyframe id="734"  time="222/1" value="0" leadInLength="30/1"  interpolater="leadin-linr"  />
             <Keyframe id="735"  time="975/1" value="0" leadInLength="30/1"  interpolater="leadin-linr"  />
             <Keyframe id="736"  time="1320/1" value="0" leadInLength="30/1"  interpolater="leadin-linr"  />
             <Keyframe id="737"  time="1402/1" value="0" leadInLength="30/1"  interpolater="leadin-linr"  />
             <Keyframe id="738"  time="1533/1" value="0" leadInLength="30/1"  interpolater="leadin-linr"  />
             <Keyframe id="739"  time="2246/1" value="0" leadInLength="30/1"  interpolater="leadin-linr"  />
             <Keyframe id="740"  time="3073/1" value="0" leadInLength="30/1"  interpolater="leadin-linr"  />
             </Keyframes>
            </InterpolatingParam>
            <InterpolatingParam id="741" interp="linr"  >
             <Keyframes>
             <Keyframe id="742"  time="-9999999/1" value="0" leadInLength="0/1"  />
             <Keyframe id="743"  time="222/1" value="0" leadInLength="30/1"  interpolater="leadin-linr"  />
             <Keyframe id="744"  time="975/1" value="0" leadInLength="30/1"  interpolater="leadin-linr"  />
             <Keyframe id="745"  time="1320/1" value="0" leadInLength="30/1"  interpolater="leadin-linr"  />
             <Keyframe id="746"  time="1402/1" value="0" leadInLength="30/1"  interpolater="leadin-linr"  />
             <Keyframe id="747"  time="1533/1" value="0" leadInLength="30/1"  interpolater="leadin-linr"  />
             <Keyframe id="748"  time="2246/1" value="0" leadInLength="30/1"  interpolater="leadin-linr"  />
             <Keyframe id="749"  time="3073/1" value="0" leadInLength="30/1"  interpolater="leadin-linr"  />
             </Keyframes>
            </InterpolatingParam>
            <InterpolatingParam id="750" interp="linr"  >
             <Keyframes>
             <Keyframe id="751"  time="-9999999/1" value="0" leadInLength="0/1"  />
             <Keyframe id="752"  time="222/1" value="0" leadInLength="30/1"  interpolater="leadin-linr"  />
             <Keyframe id="753"  time="975/1" value="0" leadInLength="30/1"  interpolater="leadin-linr"  />
             <Keyframe id="754"  time="1320/1" value="0" leadInLength="30/1"  interpolater="leadin-linr"  />
             <Keyframe id="755"  time="1402/1" value="0" leadInLength="30/1"  interpolater="leadin-linr"  />
             <Keyframe id="756"  time="1533/1" value="0" leadInLength="30/1"  interpolater="leadin-linr"  />
             <Keyframe id="757"  time="2246/1" value="0" leadInLength="30/1"  interpolater="leadin-linr"  />
             <Keyframe id="758"  time="3073/1" value="0" leadInLength="30/1"  interpolater="leadin-linr"  />
             </Keyframes>
            </InterpolatingParam>
            <InterpolatingParam id="759" interp="linr"  >
             <Keyframes>
             <Keyframe id="760"  time="-9999999/1" value="0" leadInLength="0/1"  />
             <Keyframe id="761"  time="222/1" value="0" leadInLength="30/1"  interpolater="leadin-linr"  />
             <Keyframe id="762"  time="975/1" value="0" leadInLength="30/1"  interpolater="leadin-linr"  />
             <Keyframe id="763"  time="1320/1" value="0" leadInLength="30/1"  interpolater="leadin-linr"  />
             <Keyframe id="764"  time="1402/1" value="0" leadInLength="30/1"  interpolater="leadin-linr"  />
             <Keyframe id="765"  time="1533/1" value="0" leadInLength="30/1"  interpolater="leadin-linr"  />
             <Keyframe id="766"  time="2246/1" value="0" leadInLength="30/1"  interpolater="leadin-linr"  />
             <Keyframe id="767"  time="3073/1" value="0" leadInLength="30/1"  interpolater="leadin-linr"  />
             </Keyframes>
            </InterpolatingParam>
           </VectorParam>
           <InterpolatingParam id="768" interp="linr"  name="opacity">
            <Keyframes>
            <Keyframe id="769"  time="-9999999/1" value="1" leadInLength="0/1"  />
            <Keyframe id="770"  time="222/1" value="1" leadInLength="30/1"  interpolater="leadin-linr"  />
            <Keyframe id="771"  time="975/1" value="1" leadInLength="30/1"  interpolater="leadin-linr"  />
            <Keyframe id="772"  time="1320/1" value="1" leadInLength="30/1"  interpolater="leadin-linr"  />
            <Keyframe id="773"  time="1402/1" value="1" leadInLength="30/1"  interpolater="leadin-linr"  />
            <Keyframe id="774"  time="1533/1" value="1" leadInLength="30/1"  interpolater="leadin-linr"  />
            <Keyframe id="775"  time="2246/1" value="1" leadInLength="30/1"  interpolater="leadin-linr"  />
            <Keyframe id="776"  time="3073/1" value="1" leadInLength="30/1"  interpolater="leadin-linr"  />
            </Keyframes>
           </InterpolatingParam>
           <InterpolatingParam id="777" interp="linr"  time="0/1" value="1" leadInLength="0/1"  name="cursorOpacity"/>
           <InterpolatingParam id="778" interp="linr"  time="0/1" value="1" leadInLength="0/1"  name="cursorScale"/>
          </Parameters>
          <Effects>
           <GenericEffect id="779" name = "CursorBaseEffectName" >
            <Parameters>
            <InterpolatingParam id="780" interp="linr"  time="-9999999/1" value="1" leadInLength="0/1"   name="cursorSize"/>
            <InterpolatingParam id="781" interp="linr"  time="-9999999/1" value="0" leadInLength="0/1"   name="highlightBlurRadius"/>
            <InterpolatingParam id="782" interp="linr"  time="-9999999/1" value="0" leadInLength="0/1"   name="highlightColorBlue"/>
            <InterpolatingParam id="783" interp="linr"  time="-9999999/1" value="255" leadInLength="0/1"   name="highlightColorGreen"/>
            <InterpolatingParam id="784" interp="linr"  time="-9999999/1" value="255" leadInLength="0/1"   name="highlightColorRed"/>
            <InterpolatingParam id="785" interp="linr"  time="-9999999/1" value="5" leadInLength="0/1"   name="highlightFeatherSize"/>
            <InterpolatingParam id="786" interp="linr"  time="-9999999/1" value="2" leadInLength="0/1"   name="highlightMagnification"/>
            <InterpolatingParam id="787" interp="linr"  time="-9999999/1" value="1" leadInLength="0/1"   name="highlightOpacity"/>
            <InterpolatingParam id="788" interp="linr"  time="-9999999/1" value="45" leadInLength="0/1"   name="highlightSize"/>
            <Parameter id="789"   name="highlightType">
             <Keyframes>
             <Keyframe id="790"  time="-9999999/1" value="0" leadInLength="0/1"  />
             </Keyframes>
            </Parameter>
            <InterpolatingParam id="791" interp="linr"  time="-9999999/1" value="0" leadInLength="0/1"   name="leftClickColorBlue"/>
            <InterpolatingParam id="792" interp="linr"  time="-9999999/1" value="0" leadInLength="0/1"   name="leftClickColorGreen"/>
            <InterpolatingParam id="793" interp="linr"  time="-9999999/1" value="255" leadInLength="0/1"   name="leftClickColorRed"/>
            <InterpolatingParam id="794" interp="linr"  time="-9999999/1" value="0.80000000000000004" leadInLength="0/1"   name="leftClickDuration"/>
            <InterpolatingParam id="795" interp="linr"  time="-9999999/1" value="20" leadInLength="0/1"   name="leftClickSize"/>
            <Parameter id="796"   name="leftClickSoundFilename">
             <Keyframes>
             <Keyframe id="797"  time="-9999999/1" value="" leadInLength="0/1"  />
             </Keyframes>
            </Parameter>
            <InterpolatingParam id="798" interp="linr"  time="-9999999/1" value="1" leadInLength="0/1"   name="leftClickSoundVolume"/>
            <Parameter id="799"   name="leftClickType">
             <Keyframes>
             <Keyframe id="800"  time="-9999999/1" value="0" leadInLength="0/1"  />
             </Keyframes>
            </Parameter>
            <InterpolatingParam id="801" interp="linr"  time="-9999999/1" value="1" leadInLength="0/1"   name="opacity"/>
            <InterpolatingParam id="802" interp="linr"  time="-9999999/1" value="255" leadInLength="0/1"   name="rightClickColorBlue"/>
            <InterpolatingParam id="803" interp="linr"  time="-9999999/1" value="0" leadInLength="0/1"   name="rightClickColorGreen"/>
            <InterpolatingParam id="804" interp="linr"  time="-9999999/1" value="0" leadInLength="0/1"   name="rightClickColorRed"/>
            <InterpolatingParam id="805" interp="linr"  time="-9999999/1" value="0.80000000000000004" leadInLength="0/1"   name="rightClickDuration"/>
            <InterpolatingParam id="806" interp="linr"  time="-9999999/1" value="20" leadInLength="0/1"   name="rightClickSize"/>
            <Parameter id="807"   name="rightClickSoundFilename">
             <Keyframes>
             <Keyframe id="808"  time="-9999999/1" value="" leadInLength="0/1"  />
             </Keyframes>
            </Parameter>
            <InterpolatingParam id="809" interp="linr"  time="-9999999/1" value="1" leadInLength="0/1"   name="rightClickSoundVolume"/>
            <Parameter id="810"   name="rightClickType">
             <Keyframes>
             <Keyframe id="811"  time="-9999999/1" value="0" leadInLength="0/1"  />
             </Keyframes>
            </Parameter>
            </Parameters>
            <MetaData>
             <entry key="effectIndex" val="0"/>
            </MetaData>
           </GenericEffect>
          </Effects>
          <Attributes>
           <Attribute id="812" value="" name="ident"/>
          </Attributes>
          <ExtraData>
           <Entry key="ZoomPanBin">
            <ZoomPanBin id="813"  >
             <ZoomPanKeyframes>
              <ZoomPanKeyframe id="814" timeRangeEnd="-9999999/1" timeRangeDuration="0/1" interpolaterName="linr"  />
              <ZoomPanKeyframe id="815" timeRangeEnd="975/1" timeRangeDuration="30/1" interpolaterName="linr"  />
              <ZoomPanKeyframe id="816" timeRangeEnd="222/1" timeRangeDuration="30/1" interpolaterName="linr"  />
              <ZoomPanKeyframe id="817" timeRangeEnd="1320/1" timeRangeDuration="30/1" interpolaterName="linr"  />
              <ZoomPanKeyframe id="818" timeRangeEnd="1402/1" timeRangeDuration="30/1" interpolaterName="linr"  />
              <ZoomPanKeyframe id="819" timeRangeEnd="1533/1" timeRangeDuration="30/1" interpolaterName="linr"  />
              <ZoomPanKeyframe id="820" timeRangeEnd="2246/1" timeRangeDuration="30/1" interpolaterName="linr"  />
              <ZoomPanKeyframe id="821" timeRangeEnd="3073/1" timeRangeDuration="30/1" interpolaterName="linr"  />
             </ZoomPanKeyframes>
            </ZoomPanBin>
           </Entry>
           <Entry key="CursorEffectBin">
            <CursorEffectBin id="822"  >
             <CursorEffectKeyframes>
              <CursorEffectKeyframe id="823" timeRangeEnd="-9999999/1" timeRangeDuration="0/1" interpolaterName=""  />
             </CursorEffectKeyframes>
            </CursorEffectBin>
           </Entry>
          </ExtraData>
         </ScreenVMFile>
         <MetaData>
          <entry key="AutoAppliedSmartFocus" val="True"/>
          <entry key="WinSubProjectDisplayName" val=""/>
         </MetaData>
        </UnifiedMedia>
        <UnifiedMedia id="824"  >
         <AMFile id="825" start="6535" duration="395" scalar="1/1" mediaStart="0/1" mediaDuration="395/1" trackNumber="1" src="10" channelNumber="0,1" >
          <Parameters>
           <InterpolatingParam id="826" interp="linr"  time="0/1" value="1" leadInLength="0/1"  name="volume"/>
           <Parameter id="827"  name="captions"/>
          </Parameters>
          <Attributes>
           <Attribute id="828" value="" name="ident"/>
           <Attribute id="829" value="44100" name="sampleRate"/>
           <Attribute id="830" value="16" name="bitDepth"/>
           <Attribute id="831" value="1" name="gain"/>
           <Attribute id="832" value="0" name="mixToMono"/>
          </Attributes>
         </AMFile>
         <ScreenVMFile id="833" start="6535" duration="395" scalar="1/1" mediaStart="0/1" mediaDuration="395/1" trackNumber="0" src="10" >
          <Transformer>
           <VectorParam id="834"  name="translation">
            <InterpolatingParam id="835" interp="linr"  time="-9999999/1" value="0" leadInLength="0/1"  />
            <InterpolatingParam id="836" interp="linr"  time="-9999999/1" value="0" leadInLength="0/1"  />
            <InterpolatingParam id="837" interp="linr"  time="-9999999/1" value="0" leadInLength="0/1"  />
           </VectorParam>
           <VectorParam id="838"  name="rotation">
            <InterpolatingParam id="839" interp="linr"  time="-9999999/1" value="0" leadInLength="0/1"  />
            <InterpolatingParam id="840" interp="linr"  time="-9999999/1" value="0" leadInLength="0/1"  />
            <InterpolatingParam id="841" interp="linr"  time="-9999999/1" value="0" leadInLength="0/1"  />
           </VectorParam>
           <VectorParam id="842"  name="shear">
            <InterpolatingParam id="843" interp="linr"  time="-9999999/1" value="0" leadInLength="0/1"  />
            <InterpolatingParam id="844" interp="linr"  time="-9999999/1" value="0" leadInLength="0/1"  />
            <InterpolatingParam id="845" interp="linr"  time="-9999999/1" value="0" leadInLength="0/1"  />
           </VectorParam>
           <VectorParam id="846"  name="scale">
            <InterpolatingParam id="847" interp="linr"  time="-9999999/1" value="0.66666666666666663" leadInLength="0/1"  />
            <InterpolatingParam id="848" interp="linr"  time="-9999999/1" value="0.66666666666666663" leadInLength="0/1"  />
            <InterpolatingParam id="849" interp="linr"  time="-9999999/1" value="1" leadInLength="0/1"  />
           </VectorParam>
           <VectorParam id="850"  name="anchor">
            <InterpolatingParam id="851" interp="linr"  time="0/1" value="0" leadInLength="0/1"  />
            <InterpolatingParam id="852" interp="linr"  time="0/1" value="0" leadInLength="0/1"  />
            <InterpolatingParam id="853" interp="linr"  time="0/1" value="0" leadInLength="0/1"  />
           </VectorParam>
          </Transformer>
          <Parameters>
           <VectorParam id="854"  name="sourceCrop">
            <InterpolatingParam id="855" interp="linr"  time="0/1" value="0" leadInLength="0/1"  />
            <InterpolatingParam id="856" interp="linr"  time="0/1" value="0" leadInLength="0/1"  />
            <InterpolatingParam id="857" interp="linr"  time="0/1" value="0" leadInLength="0/1"  />
            <InterpolatingParam id="858" interp="linr"  time="0/1" value="0" leadInLength="0/1"  />
           </VectorParam>
           <VectorParam id="859"  name="geometryCrop">
            <InterpolatingParam id="860" interp="linr"  time="-9999999/1" value="0" leadInLength="0/1"  />
            <InterpolatingParam id="861" interp="linr"  time="-9999999/1" value="0" leadInLength="0/1"  />
            <InterpolatingParam id="862" interp="linr"  time="-9999999/1" value="0" leadInLength="0/1"  />
            <InterpolatingParam id="863" interp="linr"  time="-9999999/1" value="0" leadInLength="0/1"  />
           </VectorParam>
           <InterpolatingParam id="864" interp="linr"  time="-9999999/1" value="1" leadInLength="0/1"  name="opacity"/>
           <Parameter id="865"  name="toc">
            <Keyframes>
            <Keyframe id="866"  time="0/1" value="Slide 2" leadInLength="0/1"  >
             <MetaData>
              <entry key="Checked" val="True"/>
              <entry key="IndentLevel" val="0"/>
             </MetaData>
            </Keyframe>
            </Keyframes>
           </Parameter>
           <InterpolatingParam id="867" interp="linr"  time="0/1" value="1" leadInLength="0/1"  name="cursorOpacity"/>
           <InterpolatingParam id="868" interp="linr"  time="0/1" value="1" leadInLength="0/1"  name="cursorScale"/>
          </Parameters>
          <Effects>
           <GenericEffect id="869" name = "CursorBaseEffectName" >
            <Parameters>
            <InterpolatingParam id="870" interp="linr"  time="-9999999/1" value="1" leadInLength="0/1"   name="cursorSize"/>
            <InterpolatingParam id="871" interp="linr"  time="-9999999/1" value="0" leadInLength="0/1"   name="highlightBlurRadius"/>
            <InterpolatingParam id="872" interp="linr"  time="-9999999/1" value="0" leadInLength="0/1"   name="highlightColorBlue"/>
            <InterpolatingParam id="873" interp="linr"  time="-9999999/1" value="255" leadInLength="0/1"   name="highlightColorGreen"/>
            <InterpolatingParam id="874" interp="linr"  time="-9999999/1" value="255" leadInLength="0/1"   name="highlightColorRed"/>
            <InterpolatingParam id="875" interp="linr"  time="-9999999/1" value="5" leadInLength="0/1"   name="highlightFeatherSize"/>
            <InterpolatingParam id="876" interp="linr"  time="-9999999/1" value="2" leadInLength="0/1"   name="highlightMagnification"/>
            <InterpolatingParam id="877" interp="linr"  time="-9999999/1" value="1" leadInLength="0/1"   name="highlightOpacity"/>
            <InterpolatingParam id="878" interp="linr"  time="-9999999/1" value="45" leadInLength="0/1"   name="highlightSize"/>
            <Parameter id="879"   name="highlightType">
             <Keyframes>
             <Keyframe id="880"  time="-9999999/1" value="0" leadInLength="0/1"  />
             </Keyframes>
            </Parameter>
            <InterpolatingParam id="881" interp="linr"  time="-9999999/1" value="0" leadInLength="0/1"   name="leftClickColorBlue"/>
            <InterpolatingParam id="882" interp="linr"  time="-9999999/1" value="0" leadInLength="0/1"   name="leftClickColorGreen"/>
            <InterpolatingParam id="883" interp="linr"  time="-9999999/1" value="255" leadInLength="0/1"   name="leftClickColorRed"/>
            <InterpolatingParam id="884" interp="linr"  time="-9999999/1" value="0.80000000000000004" leadInLength="0/1"   name="leftClickDuration"/>
            <InterpolatingParam id="885" interp="linr"  time="-9999999/1" value="20" leadInLength="0/1"   name="leftClickSize"/>
            <Parameter id="886"   name="leftClickSoundFilename">
             <Keyframes>
             <Keyframe id="887"  time="-9999999/1" value="" leadInLength="0/1"  />
             </Keyframes>
            </Parameter>
            <InterpolatingParam id="888" interp="linr"  time="-9999999/1" value="1" leadInLength="0/1"   name="leftClickSoundVolume"/>
            <Parameter id="889"   name="leftClickType">
             <Keyframes>
             <Keyframe id="890"  time="-9999999/1" value="0" leadInLength="0/1"  />
             </Keyframes>
            </Parameter>
            <InterpolatingParam id="891" interp="linr"  time="-9999999/1" value="1" leadInLength="0/1"   name="opacity"/>
            <InterpolatingParam id="892" interp="linr"  time="-9999999/1" value="255" leadInLength="0/1"   name="rightClickColorBlue"/>
            <InterpolatingParam id="893" interp="linr"  time="-9999999/1" value="0" leadInLength="0/1"   name="rightClickColorGreen"/>
            <InterpolatingParam id="894" interp="linr"  time="-9999999/1" value="0" leadInLength="0/1"   name="rightClickColorRed"/>
            <InterpolatingParam id="895" interp="linr"  time="-9999999/1" value="0.80000000000000004" leadInLength="0/1"   name="rightClickDuration"/>
            <InterpolatingParam id="896" interp="linr"  time="-9999999/1" value="20" leadInLength="0/1"   name="rightClickSize"/>
            <Parameter id="897"   name="rightClickSoundFilename">
             <Keyframes>
             <Keyframe id="898"  time="-9999999/1" value="" leadInLength="0/1"  />
             </Keyframes>
            </Parameter>
            <InterpolatingParam id="899" interp="linr"  time="-9999999/1" value="1" leadInLength="0/1"   name="rightClickSoundVolume"/>
            <Parameter id="900"   name="rightClickType">
             <Keyframes>
             <Keyframe id="901"  time="-9999999/1" value="0" leadInLength="0/1"  />
             </Keyframes>
            </Parameter>
            </Parameters>
            <MetaData>
             <entry key="effectIndex" val="0"/>
            </MetaData>
           </GenericEffect>
          </Effects>
          <Attributes>
           <Attribute id="902" value="" name="ident"/>
          </Attributes>
          <ExtraData>
           <Entry key="ZoomPanBin">
            <ZoomPanBin id="903"  >
             <ZoomPanKeyframes>
              <ZoomPanKeyframe id="904" timeRangeEnd="-9999999/1" timeRangeDuration="0/1" interpolaterName="linr"  />
             </ZoomPanKeyframes>
            </ZoomPanBin>
           </Entry>
           <Entry key="CursorEffectBin">
            <CursorEffectBin id="905"  >
             <CursorEffectKeyframes>
              <CursorEffectKeyframe id="906" timeRangeEnd="-9999999/1" timeRangeDuration="0/1" interpolaterName=""  />
             </CursorEffectKeyframes>
            </CursorEffectBin>
           </Entry>
          </ExtraData>
         </ScreenVMFile>
         <MetaData>
          <entry key="AutoAppliedSmartFocus" val="False"/>
          <entry key="WinSubProjectDisplayName" val=""/>
         </MetaData>
        </UnifiedMedia>
        <UnifiedMedia id="907"  >
         <AMFile id="908" start="6930" duration="5911" scalar="1/1" mediaStart="0/1" mediaDuration="5911/1" trackNumber="1" src="15" channelNumber="0,1" >
          <Parameters>
           <InterpolatingParam id="909" interp="linr"  time="0/1" value="1" leadInLength="0/1"  name="volume"/>
           <Parameter id="910"  name="captions"/>
          </Parameters>
          <Attributes>
           <Attribute id="911" value="" name="ident"/>
           <Attribute id="912" value="44100" name="sampleRate"/>
           <Attribute id="913" value="16" name="bitDepth"/>
           <Attribute id="914" value="1" name="gain"/>
           <Attribute id="915" value="0" name="mixToMono"/>
          </Attributes>
         </AMFile>
         <ScreenVMFile id="916" start="6930" duration="5911" scalar="1/1" mediaStart="0/1" mediaDuration="5911/1" trackNumber="0" src="15" >
          <Transformer>
           <VectorParam id="917"  name="translation">
            <InterpolatingParam id="918" interp="linr"  >
             <Keyframes>
             <Keyframe id="919"  time="-9999999/1" value="0" leadInLength="0/1"  />
             <Keyframe id="920"  time="345/1" value="0" leadInLength="30/1"  interpolater="leadin-linr"  />
             </Keyframes>
            </InterpolatingParam>
            <InterpolatingParam id="921" interp="linr"  >
             <Keyframes>
             <Keyframe id="922"  time="-9999999/1" value="0" leadInLength="0/1"  />
             <Keyframe id="923"  time="345/1" value="-0" leadInLength="30/1"  interpolater="leadin-linr"  />
             </Keyframes>
            </InterpolatingParam>
            <InterpolatingParam id="924" interp="linr"  >
             <Keyframes>
             <Keyframe id="925"  time="-9999999/1" value="0" leadInLength="0/1"  />
             <Keyframe id="926"  time="345/1" value="0" leadInLength="30/1"  interpolater="leadin-linr"  />
             </Keyframes>
            </InterpolatingParam>
           </VectorParam>
           <VectorParam id="927"  name="rotation">
            <InterpolatingParam id="928" interp="linr"  >
             <Keyframes>
             <Keyframe id="929"  time="-9999999/1" value="0" leadInLength="0/1"  />
             <Keyframe id="930"  time="345/1" value="0" leadInLength="30/1"  interpolater="leadin-linr"  />
             </Keyframes>
            </InterpolatingParam>
            <InterpolatingParam id="931" interp="linr"  >
             <Keyframes>
             <Keyframe id="932"  time="-9999999/1" value="0" leadInLength="0/1"  />
             <Keyframe id="933"  time="345/1" value="0" leadInLength="30/1"  interpolater="leadin-linr"  />
             </Keyframes>
            </InterpolatingParam>
            <InterpolatingParam id="934" interp="linr"  >
             <Keyframes>
             <Keyframe id="935"  time="-9999999/1" value="0" leadInLength="0/1"  />
             <Keyframe id="936"  time="345/1" value="0" leadInLength="30/1"  interpolater="leadin-linr"  />
             </Keyframes>
            </InterpolatingParam>
           </VectorParam>
           <VectorParam id="937"  name="shear">
            <InterpolatingParam id="938" interp="linr"  >
             <Keyframes>
             <Keyframe id="939"  time="-9999999/1" value="0" leadInLength="0/1"  />
             <Keyframe id="940"  time="345/1" value="0" leadInLength="30/1"  interpolater="leadin-linr"  />
             </Keyframes>
            </InterpolatingParam>
            <InterpolatingParam id="941" interp="linr"  >
             <Keyframes>
             <Keyframe id="942"  time="-9999999/1" value="0" leadInLength="0/1"  />
             <Keyframe id="943"  time="345/1" value="0" leadInLength="30/1"  interpolater="leadin-linr"  />
             </Keyframes>
            </InterpolatingParam>
            <InterpolatingParam id="944" interp="linr"  >
             <Keyframes>
             <Keyframe id="945"  time="-9999999/1" value="0" leadInLength="0/1"  />
             <Keyframe id="946"  time="345/1" value="0" leadInLength="30/1"  interpolater="leadin-linr"  />
             </Keyframes>
            </InterpolatingParam>
           </VectorParam>
           <VectorParam id="947"  name="scale">
            <InterpolatingParam id="948" interp="linr"  >
             <Keyframes>
             <Keyframe id="949"  time="-9999999/1" value="0.66666666666666663" leadInLength="0/1"  />
             <Keyframe id="950"  time="345/1" value="0.66666666666666663" leadInLength="30/1"  interpolater="leadin-linr"  />
             </Keyframes>
            </InterpolatingParam>
            <InterpolatingParam id="951" interp="linr"  >
             <Keyframes>
             <Keyframe id="952"  time="-9999999/1" value="0.66666666666666663" leadInLength="0/1"  />
             <Keyframe id="953"  time="345/1" value="0.66666666666666663" leadInLength="30/1"  interpolater="leadin-linr"  />
             </Keyframes>
            </InterpolatingParam>
            <InterpolatingParam id="954" interp="linr"  >
             <Keyframes>
             <Keyframe id="955"  time="-9999999/1" value="1" leadInLength="0/1"  />
             <Keyframe id="956"  time="345/1" value="1" leadInLength="30/1"  interpolater="leadin-linr"  />
             </Keyframes>
            </InterpolatingParam>
           </VectorParam>
           <VectorParam id="957"  name="anchor">
            <InterpolatingParam id="958" interp="linr"  time="0/1" value="0" leadInLength="0/1"  />
            <InterpolatingParam id="959" interp="linr"  time="0/1" value="0" leadInLength="0/1"  />
            <InterpolatingParam id="960" interp="linr"  time="0/1" value="0" leadInLength="0/1"  />
           </VectorParam>
          </Transformer>
          <Parameters>
           <VectorParam id="961"  name="sourceCrop">
            <InterpolatingParam id="962" interp="linr"  time="0/1" value="0" leadInLength="0/1"  />
            <InterpolatingParam id="963" interp="linr"  time="0/1" value="0" leadInLength="0/1"  />
            <InterpolatingParam id="964" interp="linr"  time="0/1" value="0" leadInLength="0/1"  />
            <InterpolatingParam id="965" interp="linr"  time="0/1" value="0" leadInLength="0/1"  />
           </VectorParam>
           <VectorParam id="966"  name="geometryCrop">
            <InterpolatingParam id="967" interp="linr"  >
             <Keyframes>
             <Keyframe id="968"  time="-9999999/1" value="0" leadInLength="0/1"  />
             <Keyframe id="969"  time="345/1" value="0" leadInLength="30/1"  interpolater="leadin-linr"  />
             </Keyframes>
            </InterpolatingParam>
            <InterpolatingParam id="970" interp="linr"  >
             <Keyframes>
             <Keyframe id="971"  time="-9999999/1" value="0" leadInLength="0/1"  />
             <Keyframe id="972"  time="345/1" value="0" leadInLength="30/1"  interpolater="leadin-linr"  />
             </Keyframes>
            </InterpolatingParam>
            <InterpolatingParam id="973" interp="linr"  >
             <Keyframes>
             <Keyframe id="974"  time="-9999999/1" value="0" leadInLength="0/1"  />
             <Keyframe id="975"  time="345/1" value="0" leadInLength="30/1"  interpolater="leadin-linr"  />
             </Keyframes>
            </InterpolatingParam>
            <InterpolatingParam id="976" interp="linr"  >
             <Keyframes>
             <Keyframe id="977"  time="-9999999/1" value="0" leadInLength="0/1"  />
             <Keyframe id="978"  time="345/1" value="0" leadInLength="30/1"  interpolater="leadin-linr"  />
             </Keyframes>
            </InterpolatingParam>
           </VectorParam>
           <InterpolatingParam id="979" interp="linr"  name="opacity">
            <Keyframes>
            <Keyframe id="980"  time="-9999999/1" value="1" leadInLength="0/1"  />
            <Keyframe id="981"  time="345/1" value="1" leadInLength="30/1"  interpolater="leadin-linr"  />
            </Keyframes>
           </InterpolatingParam>
           <InterpolatingParam id="982" interp="linr"  time="0/1" value="1" leadInLength="0/1"  name="cursorOpacity"/>
           <InterpolatingParam id="983" interp="linr"  time="0/1" value="1" leadInLength="0/1"  name="cursorScale"/>
          </Parameters>
          <Effects>
           <GenericEffect id="984" name = "CursorBaseEffectName" >
            <Parameters>
            <InterpolatingParam id="985" interp="linr"  time="-9999999/1" value="1" leadInLength="0/1"   name="cursorSize"/>
            <InterpolatingParam id="986" interp="linr"  time="-9999999/1" value="0" leadInLength="0/1"   name="highlightBlurRadius"/>
            <InterpolatingParam id="987" interp="linr"  time="-9999999/1" value="0" leadInLength="0/1"   name="highlightColorBlue"/>
            <InterpolatingParam id="988" interp="linr"  time="-9999999/1" value="255" leadInLength="0/1"   name="highlightColorGreen"/>
            <InterpolatingParam id="989" interp="linr"  time="-9999999/1" value="255" leadInLength="0/1"   name="highlightColorRed"/>
            <InterpolatingParam id="990" interp="linr"  time="-9999999/1" value="5" leadInLength="0/1"   name="highlightFeatherSize"/>
            <InterpolatingParam id="991" interp="linr"  time="-9999999/1" value="2" leadInLength="0/1"   name="highlightMagnification"/>
            <InterpolatingParam id="992" interp="linr"  time="-9999999/1" value="1" leadInLength="0/1"   name="highlightOpacity"/>
            <InterpolatingParam id="993" interp="linr"  time="-9999999/1" value="45" leadInLength="0/1"   name="highlightSize"/>
            <Parameter id="994"   name="highlightType">
             <Keyframes>
             <Keyframe id="995"  time="-9999999/1" value="0" leadInLength="0/1"  />
             </Keyframes>
            </Parameter>
            <InterpolatingParam id="996" interp="linr"  time="-9999999/1" value="0" leadInLength="0/1"   name="leftClickColorBlue"/>
            <InterpolatingParam id="997" interp="linr"  time="-9999999/1" value="0" leadInLength="0/1"   name="leftClickColorGreen"/>
            <InterpolatingParam id="998" interp="linr"  time="-9999999/1" value="255" leadInLength="0/1"   name="leftClickColorRed"/>
            <InterpolatingParam id="999" interp="linr"  time="-9999999/1" value="0.80000000000000004" leadInLength="0/1"   name="leftClickDuration"/>
            <InterpolatingParam id="1000" interp="linr"  time="-9999999/1" value="20" leadInLength="0/1"   name="leftClickSize"/>
            <Parameter id="1001"   name="leftClickSoundFilename">
             <Keyframes>
             <Keyframe id="1002"  time="-9999999/1" value="" leadInLength="0/1"  />
             </Keyframes>
            </Parameter>
            <InterpolatingParam id="1003" interp="linr"  time="-9999999/1" value="1" leadInLength="0/1"   name="leftClickSoundVolume"/>
            <Parameter id="1004"   name="leftClickType">
             <Keyframes>
             <Keyframe id="1005"  time="-9999999/1" value="0" leadInLength="0/1"  />
             </Keyframes>
            </Parameter>
            <InterpolatingParam id="1006" interp="linr"  time="-9999999/1" value="1" leadInLength="0/1"   name="opacity"/>
            <InterpolatingParam id="1007" interp="linr"  time="-9999999/1" value="255" leadInLength="0/1"   name="rightClickColorBlue"/>
            <InterpolatingParam id="1008" interp="linr"  time="-9999999/1" value="0" leadInLength="0/1"   name="rightClickColorGreen"/>
            <InterpolatingParam id="1009" interp="linr"  time="-9999999/1" value="0" leadInLength="0/1"   name="rightClickColorRed"/>
            <InterpolatingParam id="1010" interp="linr"  time="-9999999/1" value="0.80000000000000004" leadInLength="0/1"   name="rightClickDuration"/>
            <InterpolatingParam id="1011" interp="linr"  time="-9999999/1" value="20" leadInLength="0/1"   name="rightClickSize"/>
            <Parameter id="1012"   name="rightClickSoundFilename">
             <Keyframes>
             <Keyframe id="1013"  time="-9999999/1" value="" leadInLength="0/1"  />
             </Keyframes>
            </Parameter>
            <InterpolatingParam id="1014" interp="linr"  time="-9999999/1" value="1" leadInLength="0/1"   name="rightClickSoundVolume"/>
            <Parameter id="1015"   name="rightClickType">
             <Keyframes>
             <Keyframe id="1016"  time="-9999999/1" value="0" leadInLength="0/1"  />
             </Keyframes>
            </Parameter>
            </Parameters>
            <MetaData>
             <entry key="effectIndex" val="0"/>
            </MetaData>
           </GenericEffect>
          </Effects>
          <Attributes>
           <Attribute id="1017" value="" name="ident"/>
          </Attributes>
          <ExtraData>
           <Entry key="ZoomPanBin">
            <ZoomPanBin id="1018"  >
             <ZoomPanKeyframes>
              <ZoomPanKeyframe id="1019" timeRangeEnd="-9999999/1" timeRangeDuration="0/1" interpolaterName="linr"  />
              <ZoomPanKeyframe id="1020" timeRangeEnd="345/1" timeRangeDuration="30/1" interpolaterName="linr"  />
             </ZoomPanKeyframes>
            </ZoomPanBin>
           </Entry>
           <Entry key="CursorEffectBin">
            <CursorEffectBin id="1021"  >
             <CursorEffectKeyframes>
              <CursorEffectKeyframe id="1022" timeRangeEnd="-9999999/1" timeRangeDuration="0/1" interpolaterName=""  />
             </CursorEffectKeyframes>
            </CursorEffectBin>
           </Entry>
          </ExtraData>
         </ScreenVMFile>
         <MetaData>
          <entry key="AutoAppliedSmartFocus" val="True"/>
          <entry key="WinSubProjectDisplayName" val=""/>
         </MetaData>
        </UnifiedMedia>
        <UnifiedMedia id="1023"  >
         <AMFile id="1024" start="12841" duration="1562" scalar="1/1" mediaStart="2699/1" mediaDuration="1562/1" trackNumber="1" src="11" channelNumber="0,1" >
          <Parameters>
           <InterpolatingParam id="1025" interp="linr"  time="0/1" value="1" leadInLength="0/1"  name="volume"/>
           <Parameter id="1026"  name="captions"/>
          </Parameters>
          <Attributes>
           <Attribute id="1027" value="" name="ident"/>
           <Attribute id="1028" value="44100" name="sampleRate"/>
           <Attribute id="1029" value="16" name="bitDepth"/>
           <Attribute id="1030" value="1" name="gain"/>
           <Attribute id="1031" value="0" name="mixToMono"/>
          </Attributes>
         </AMFile>
         <ScreenVMFile id="1032" start="12841" duration="1562" scalar="1/1" mediaStart="2699/1" mediaDuration="1562/1" trackNumber="0" src="11" >
          <Transformer>
           <VectorParam id="1033"  name="translation">
            <InterpolatingParam id="1034" interp="linr"  time="-9999999/1" value="0" leadInLength="0/1"  />
            <InterpolatingParam id="1035" interp="linr"  time="-9999999/1" value="0" leadInLength="0/1"  />
            <InterpolatingParam id="1036" interp="linr"  time="-9999999/1" value="0" leadInLength="0/1"  />
           </VectorParam>
           <VectorParam id="1037"  name="rotation">
            <InterpolatingParam id="1038" interp="linr"  time="-9999999/1" value="0" leadInLength="0/1"  />
            <InterpolatingParam id="1039" interp="linr"  time="-9999999/1" value="0" leadInLength="0/1"  />
            <InterpolatingParam id="1040" interp="linr"  time="-9999999/1" value="0" leadInLength="0/1"  />
           </VectorParam>
           <VectorParam id="1041"  name="shear">
            <InterpolatingParam id="1042" interp="linr"  time="-9999999/1" value="0" leadInLength="0/1"  />
            <InterpolatingParam id="1043" interp="linr"  time="-9999999/1" value="0" leadInLength="0/1"  />
            <InterpolatingParam id="1044" interp="linr"  time="-9999999/1" value="0" leadInLength="0/1"  />
           </VectorParam>
           <VectorParam id="1045"  name="scale">
            <InterpolatingParam id="1046" interp="linr"  time="-9999999/1" value="0.66666666666666663" leadInLength="0/1"  />
            <InterpolatingParam id="1047" interp="linr"  time="-9999999/1" value="0.66666666666666663" leadInLength="0/1"  />
            <InterpolatingParam id="1048" interp="linr"  time="-9999999/1" value="1" leadInLength="0/1"  />
           </VectorParam>
           <VectorParam id="1049"  name="anchor">
            <InterpolatingParam id="1050" interp="linr"  time="0/1" value="0" leadInLength="0/1"  />
            <InterpolatingParam id="1051" interp="linr"  time="0/1" value="0" leadInLength="0/1"  />
            <InterpolatingParam id="1052" interp="linr"  time="0/1" value="0" leadInLength="0/1"  />
           </VectorParam>
          </Transformer>
          <Parameters>
           <VectorParam id="1053"  name="sourceCrop">
            <InterpolatingParam id="1054" interp="linr"  time="0/1" value="0" leadInLength="0/1"  />
            <InterpolatingParam id="1055" interp="linr"  time="0/1" value="0" leadInLength="0/1"  />
            <InterpolatingParam id="1056" interp="linr"  time="0/1" value="0" leadInLength="0/1"  />
            <InterpolatingParam id="1057" interp="linr"  time="0/1" value="0" leadInLength="0/1"  />
           </VectorParam>
           <VectorParam id="1058"  name="geometryCrop">
            <InterpolatingParam id="1059" interp="linr"  time="-9999999/1" value="0" leadInLength="0/1"  />
            <InterpolatingParam id="1060" interp="linr"  time="-9999999/1" value="0" leadInLength="0/1"  />
            <InterpolatingParam id="1061" interp="linr"  time="-9999999/1" value="0" leadInLength="0/1"  />
            <InterpolatingParam id="1062" interp="linr"  time="-9999999/1" value="0" leadInLength="0/1"  />
           </VectorParam>
           <InterpolatingParam id="1063" interp="linr"  time="-9999999/1" value="1" leadInLength="0/1"  name="opacity"/>
           <InterpolatingParam id="1064" interp="linr"  time="0/1" value="1" leadInLength="0/1"  name="cursorOpacity"/>
           <InterpolatingParam id="1065" interp="linr"  time="0/1" value="1" leadInLength="0/1"  name="cursorScale"/>
          </Parameters>
          <Effects>
           <GenericEffect id="1066" name = "CursorBaseEffectName" >
            <Parameters>
            <InterpolatingParam id="1067" interp="linr"  time="-9999999/1" value="1" leadInLength="0/1"   name="cursorSize"/>
            <InterpolatingParam id="1068" interp="linr"  time="-9999999/1" value="0" leadInLength="0/1"   name="highlightBlurRadius"/>
            <InterpolatingParam id="1069" interp="linr"  time="-9999999/1" value="0" leadInLength="0/1"   name="highlightColorBlue"/>
            <InterpolatingParam id="1070" interp="linr"  time="-9999999/1" value="255" leadInLength="0/1"   name="highlightColorGreen"/>
            <InterpolatingParam id="1071" interp="linr"  time="-9999999/1" value="255" leadInLength="0/1"   name="highlightColorRed"/>
            <InterpolatingParam id="1072" interp="linr"  time="-9999999/1" value="5" leadInLength="0/1"   name="highlightFeatherSize"/>
            <InterpolatingParam id="1073" interp="linr"  time="-9999999/1" value="2" leadInLength="0/1"   name="highlightMagnification"/>
            <InterpolatingParam id="1074" interp="linr"  time="-9999999/1" value="1" leadInLength="0/1"   name="highlightOpacity"/>
            <InterpolatingParam id="1075" interp="linr"  time="-9999999/1" value="45" leadInLength="0/1"   name="highlightSize"/>
            <Parameter id="1076"   name="highlightType">
             <Keyframes>
             <Keyframe id="1077"  time="-9999999/1" value="0" leadInLength="0/1"  />
             </Keyframes>
            </Parameter>
            <InterpolatingParam id="1078" interp="linr"  time="-9999999/1" value="0" leadInLength="0/1"   name="leftClickColorBlue"/>
            <InterpolatingParam id="1079" interp="linr"  time="-9999999/1" value="0" leadInLength="0/1"   name="leftClickColorGreen"/>
            <InterpolatingParam id="1080" interp="linr"  time="-9999999/1" value="255" leadInLength="0/1"   name="leftClickColorRed"/>
            <InterpolatingParam id="1081" interp="linr"  time="-9999999/1" value="0.80000000000000004" leadInLength="0/1"   name="leftClickDuration"/>
            <InterpolatingParam id="1082" interp="linr"  time="-9999999/1" value="20" leadInLength="0/1"   name="leftClickSize"/>
            <Parameter id="1083"   name="leftClickSoundFilename">
             <Keyframes>
             <Keyframe id="1084"  time="-9999999/1" value="" leadInLength="0/1"  />
             </Keyframes>
            </Parameter>
            <InterpolatingParam id="1085" interp="linr"  time="-9999999/1" value="1" leadInLength="0/1"   name="leftClickSoundVolume"/>
            <Parameter id="1086"   name="leftClickType">
             <Keyframes>
             <Keyframe id="1087"  time="-9999999/1" value="0" leadInLength="0/1"  />
             </Keyframes>
            </Parameter>
            <InterpolatingParam id="1088" interp="linr"  time="-9999999/1" value="1" leadInLength="0/1"   name="opacity"/>
            <InterpolatingParam id="1089" interp="linr"  time="-9999999/1" value="255" leadInLength="0/1"   name="rightClickColorBlue"/>
            <InterpolatingParam id="1090" interp="linr"  time="-9999999/1" value="0" leadInLength="0/1"   name="rightClickColorGreen"/>
            <InterpolatingParam id="1091" interp="linr"  time="-9999999/1" value="0" leadInLength="0/1"   name="rightClickColorRed"/>
            <InterpolatingParam id="1092" interp="linr"  time="-9999999/1" value="0.80000000000000004" leadInLength="0/1"   name="rightClickDuration"/>
            <InterpolatingParam id="1093" interp="linr"  time="-9999999/1" value="20" leadInLength="0/1"   name="rightClickSize"/>
            <Parameter id="1094"   name="rightClickSoundFilename">
             <Keyframes>
             <Keyframe id="1095"  time="-9999999/1" value="" leadInLength="0/1"  />
             </Keyframes>
            </Parameter>
            <InterpolatingParam id="1096" interp="linr"  time="-9999999/1" value="1" leadInLength="0/1"   name="rightClickSoundVolume"/>
            <Parameter id="1097"   name="rightClickType">
             <Keyframes>
             <Keyframe id="1098"  time="-9999999/1" value="0" leadInLength="0/1"  />
             </Keyframes>
            </Parameter>
            </Parameters>
            <MetaData>
             <entry key="effectIndex" val="0"/>
            </MetaData>
           </GenericEffect>
          </Effects>
          <Attributes>
           <Attribute id="1099" value="" name="ident"/>
          </Attributes>
          <ExtraData>
           <Entry key="ZoomPanBin">
            <ZoomPanBin id="1100"  >
             <ZoomPanKeyframes>
              <ZoomPanKeyframe id="1101" timeRangeEnd="-9999999/1" timeRangeDuration="0/1" interpolaterName="linr"  />
             </ZoomPanKeyframes>
            </ZoomPanBin>
           </Entry>
           <Entry key="CursorEffectBin">
            <CursorEffectBin id="1102"  >
             <CursorEffectKeyframes>
              <CursorEffectKeyframe id="1103" timeRangeEnd="-9999999/1" timeRangeDuration="0/1" interpolaterName=""  />
             </CursorEffectKeyframes>
            </CursorEffectBin>
           </Entry>
          </ExtraData>
         </ScreenVMFile>
         <MetaData>
          <entry key="AutoAppliedSmartFocus" val="True"/>
          <entry key="WinSubProjectDisplayName" val=""/>
         </MetaData>
        </UnifiedMedia>
        <StitchedMedia id="1104" start="14403" duration="3642" scalar="1/1" mediaStart="0/1" mediaDuration="3642/1" minMediaStart="0/1" >
         <Transformer>
          <VectorParam id="1105"  name="translation">
           <InterpolatingParam id="1106" interp="linr"  >
            <Keyframes>
            <Keyframe id="1107"  time="-9999999/1" value="-3.2751579226440199e-011" leadInLength="0/1"  />
            <Keyframe id="1108"  time="888/1" value="-17.637591786407821" leadInLength="30/1"  interpolater="leadin-linr"  />
            <Keyframe id="1109"  time="2204/1" value="1.1723955140041653e-013" leadInLength="30/1"  interpolater="leadin-linr"  />
            <Keyframe id="1110"  time="2365/1" value="-56.491576306770192" leadInLength="30/1"  interpolater="leadin-linr"  />
            </Keyframes>
           </InterpolatingParam>
           <InterpolatingParam id="1111" interp="linr"  >
            <Keyframes>
            <Keyframe id="1112"  time="-9999999/1" value="-1.5840366055878498e-011" leadInLength="0/1"  />
            <Keyframe id="1113"  time="888/1" value="-35.844591843866482" leadInLength="30/1"  interpolater="leadin-linr"  />
            <Keyframe id="1114"  time="2204/1" value="-2.4868995751603507e-014" leadInLength="30/1"  interpolater="leadin-linr"  />
            <Keyframe id="1115"  time="2365/1" value="-4.5395139275359773" leadInLength="30/1"  interpolater="leadin-linr"  />
            </Keyframes>
           </InterpolatingParam>
           <InterpolatingParam id="1116" interp="linr"  >
            <Keyframes>
            <Keyframe id="1117"  time="-9999999/1" value="0" leadInLength="0/1"  />
            <Keyframe id="1118"  time="888/1" value="0" leadInLength="30/1"  interpolater="leadin-linr"  />
            <Keyframe id="1119"  time="2204/1" value="0" leadInLength="30/1"  interpolater="leadin-linr"  />
            <Keyframe id="1120"  time="2365/1" value="0" leadInLength="30/1"  interpolater="leadin-linr"  />
            </Keyframes>
           </InterpolatingParam>
          </VectorParam>
          <VectorParam id="1121"  name="rotation">
           <InterpolatingParam id="1122" interp="linr"  >
            <Keyframes>
            <Keyframe id="1123"  time="-9999999/1" value="0" leadInLength="0/1"  />
            <Keyframe id="1124"  time="888/1" value="0" leadInLength="30/1"  interpolater="leadin-linr"  />
            <Keyframe id="1125"  time="2204/1" value="0" leadInLength="30/1"  interpolater="leadin-linr"  />
            <Keyframe id="1126"  time="2365/1" value="0" leadInLength="30/1"  interpolater="leadin-linr"  />
            </Keyframes>
           </InterpolatingParam>
           <InterpolatingParam id="1127" interp="linr"  >
            <Keyframes>
            <Keyframe id="1128"  time="-9999999/1" value="0" leadInLength="0/1"  />
            <Keyframe id="1129"  time="888/1" value="0" leadInLength="30/1"  interpolater="leadin-linr"  />
            <Keyframe id="1130"  time="2204/1" value="0" leadInLength="30/1"  interpolater="leadin-linr"  />
            <Keyframe id="1131"  time="2365/1" value="0" leadInLength="30/1"  interpolater="leadin-linr"  />
            </Keyframes>
           </InterpolatingParam>
           <InterpolatingParam id="1132" interp="linr"  >
            <Keyframes>
            <Keyframe id="1133"  time="-9999999/1" value="0" leadInLength="0/1"  />
            <Keyframe id="1134"  time="888/1" value="0" leadInLength="30/1"  interpolater="leadin-linr"  />
            <Keyframe id="1135"  time="2204/1" value="0" leadInLength="30/1"  interpolater="leadin-linr"  />
            <Keyframe id="1136"  time="2365/1" value="0" leadInLength="30/1"  interpolater="leadin-linr"  />
            </Keyframes>
           </InterpolatingParam>
          </VectorParam>
          <VectorParam id="1137"  name="shear">
           <InterpolatingParam id="1138" interp="linr"  >
            <Keyframes>
            <Keyframe id="1139"  time="-9999999/1" value="0" leadInLength="0/1"  />
            <Keyframe id="1140"  time="888/1" value="0" leadInLength="30/1"  interpolater="leadin-linr"  />
            <Keyframe id="1141"  time="2204/1" value="0" leadInLength="30/1"  interpolater="leadin-linr"  />
            <Keyframe id="1142"  time="2365/1" value="0" leadInLength="30/1"  interpolater="leadin-linr"  />
            </Keyframes>
           </InterpolatingParam>
           <InterpolatingParam id="1143" interp="linr"  >
            <Keyframes>
            <Keyframe id="1144"  time="-9999999/1" value="0" leadInLength="0/1"  />
            <Keyframe id="1145"  time="888/1" value="0" leadInLength="30/1"  interpolater="leadin-linr"  />
            <Keyframe id="1146"  time="2204/1" value="0" leadInLength="30/1"  interpolater="leadin-linr"  />
            <Keyframe id="1147"  time="2365/1" value="0" leadInLength="30/1"  interpolater="leadin-linr"  />
            </Keyframes>
           </InterpolatingParam>
           <InterpolatingParam id="1148" interp="linr"  >
            <Keyframes>
            <Keyframe id="1149"  time="-9999999/1" value="0" leadInLength="0/1"  />
            <Keyframe id="1150"  time="888/1" value="0" leadInLength="30/1"  interpolater="leadin-linr"  />
            <Keyframe id="1151"  time="2204/1" value="0" leadInLength="30/1"  interpolater="leadin-linr"  />
            <Keyframe id="1152"  time="2365/1" value="0" leadInLength="30/1"  interpolater="leadin-linr"  />
            </Keyframes>
           </InterpolatingParam>
          </VectorParam>
          <VectorParam id="1153"  name="scale">
           <InterpolatingParam id="1154" interp="linr"  >
            <Keyframes>
            <Keyframe id="1155"  time="-9999999/1" value="0.66666666666666663" leadInLength="0/1"  />
            <Keyframe id="1156"  time="888/1" value="1.0744221811167018" leadInLength="30/1"  interpolater="leadin-linr"  />
            <Keyframe id="1157"  time="2204/1" value="0.66666664405817422" leadInLength="30/1"  interpolater="leadin-linr"  />
            <Keyframe id="1158"  time="2365/1" value="0.95248835833371803" leadInLength="30/1"  interpolater="leadin-linr"  />
            </Keyframes>
           </InterpolatingParam>
           <InterpolatingParam id="1159" interp="linr"  >
            <Keyframes>
            <Keyframe id="1160"  time="-9999999/1" value="0.66666666666666663" leadInLength="0/1"  />
            <Keyframe id="1161"  time="888/1" value="1.0744222175533018" leadInLength="30/1"  interpolater="leadin-linr"  />
            <Keyframe id="1162"  time="2204/1" value="0.66666666666666674" leadInLength="30/1"  interpolater="leadin-linr"  />
            <Keyframe id="1163"  time="2365/1" value="0.95248816155001703" leadInLength="30/1"  interpolater="leadin-linr"  />
            </Keyframes>
           </InterpolatingParam>
           <InterpolatingParam id="1164" interp="linr"  >
            <Keyframes>
            <Keyframe id="1165"  time="-9999999/1" value="1" leadInLength="0/1"  />
            <Keyframe id="1166"  time="888/1" value="0.99999999999999989" leadInLength="30/1"  interpolater="leadin-linr"  />
            <Keyframe id="1167"  time="2204/1" value="0.99999999999999989" leadInLength="30/1"  interpolater="leadin-linr"  />
            <Keyframe id="1168"  time="2365/1" value="0.99999999999999989" leadInLength="30/1"  interpolater="leadin-linr"  />
            </Keyframes>
           </InterpolatingParam>
          </VectorParam>
          <VectorParam id="1169"  name="anchor">
           <InterpolatingParam id="1170" interp="linr"  time="0/1" value="0" leadInLength="0/1"  />
           <InterpolatingParam id="1171" interp="linr"  time="0/1" value="0" leadInLength="0/1"  />
           <InterpolatingParam id="1172" interp="linr"  time="0/1" value="0" leadInLength="0/1"  />
          </VectorParam>
         </Transformer>
         <Parameters>
          <VectorParam id="1173"  name="sourceCrop">
           <InterpolatingParam id="1174" interp="linr"  time="0/1" value="0" leadInLength="0/1"  />
           <InterpolatingParam id="1175" interp="linr"  time="0/1" value="0" leadInLength="0/1"  />
           <InterpolatingParam id="1176" interp="linr"  time="0/1" value="0" leadInLength="0/1"  />
           <InterpolatingParam id="1177" interp="linr"  time="0/1" value="0" leadInLength="0/1"  />
          </VectorParam>
          <VectorParam id="1178"  name="geometryCrop">
           <InterpolatingParam id="1179" interp="linr"  >
            <Keyframes>
            <Keyframe id="1180"  time="-9999999/1" value="0" leadInLength="0/1"  />
            <Keyframe id="1181"  time="888/1" value="0" leadInLength="30/1"  interpolater="leadin-linr"  />
            <Keyframe id="1182"  time="2204/1" value="0" leadInLength="30/1"  interpolater="leadin-linr"  />
            <Keyframe id="1183"  time="2365/1" value="0" leadInLength="30/1"  interpolater="leadin-linr"  />
            </Keyframes>
           </InterpolatingParam>
           <InterpolatingParam id="1184" interp="linr"  >
            <Keyframes>
            <Keyframe id="1185"  time="-9999999/1" value="0" leadInLength="0/1"  />
            <Keyframe id="1186"  time="888/1" value="0" leadInLength="30/1"  interpolater="leadin-linr"  />
            <Keyframe id="1187"  time="2204/1" value="0" leadInLength="30/1"  interpolater="leadin-linr"  />
            <Keyframe id="1188"  time="2365/1" value="0" leadInLength="30/1"  interpolater="leadin-linr"  />
            </Keyframes>
           </InterpolatingParam>
           <InterpolatingParam id="1189" interp="linr"  >
            <Keyframes>
            <Keyframe id="1190"  time="-9999999/1" value="0" leadInLength="0/1"  />
            <Keyframe id="1191"  time="888/1" value="0" leadInLength="30/1"  interpolater="leadin-linr"  />
            <Keyframe id="1192"  time="2204/1" value="0" leadInLength="30/1"  interpolater="leadin-linr"  />
            <Keyframe id="1193"  time="2365/1" value="0" leadInLength="30/1"  interpolater="leadin-linr"  />
            </Keyframes>
           </InterpolatingParam>
           <InterpolatingParam id="1194" interp="linr"  >
            <Keyframes>
            <Keyframe id="1195"  time="-9999999/1" value="0" leadInLength="0/1"  />
            <Keyframe id="1196"  time="888/1" value="0" leadInLength="30/1"  interpolater="leadin-linr"  />
            <Keyframe id="1197"  time="2204/1" value="0" leadInLength="30/1"  interpolater="leadin-linr"  />
            <Keyframe id="1198"  time="2365/1" value="0" leadInLength="30/1"  interpolater="leadin-linr"  />
            </Keyframes>
           </InterpolatingParam>
          </VectorParam>
          <InterpolatingParam id="1199" interp="linr"  name="opacity">
           <Keyframes>
           <Keyframe id="1200"  time="-9999999/1" value="1" leadInLength="0/1"  />
           <Keyframe id="1201"  time="888/1" value="1" leadInLength="30/1"  interpolater="leadin-linr"  />
           <Keyframe id="1202"  time="2204/1" value="1" leadInLength="30/1"  interpolater="leadin-linr"  />
           <Keyframe id="1203"  time="2365/1" value="1" leadInLength="30/1"  interpolater="leadin-linr"  />
           </Keyframes>
          </InterpolatingParam>
          <InterpolatingParam id="1204" interp="linr"  time="0/1" value="1" leadInLength="0/1"  name="cursorOpacity"/>
          <InterpolatingParam id="1205" interp="linr"  time="0/1" value="1" leadInLength="0/1"  name="cursorScale"/>
          <InterpolatingParam id="1206" interp="linr"  time="0/1" value="1" leadInLength="0/1"  name="volume"/>
          <Parameter id="1207"  name="captions"/>
         </Parameters>
         <Effects>
          <GenericEffect id="1208" name = "CursorBaseEffectName" >
           <Parameters>
           <InterpolatingParam id="1209" interp="linr"  time="-9999999/1" value="1" leadInLength="0/1"   name="cursorSize"/>
           <InterpolatingParam id="1210" interp="linr"  time="-9999999/1" value="0" leadInLength="0/1"   name="highlightBlurRadius"/>
           <InterpolatingParam id="1211" interp="linr"  time="-9999999/1" value="0" leadInLength="0/1"   name="highlightColorBlue"/>
           <InterpolatingParam id="1212" interp="linr"  time="-9999999/1" value="255" leadInLength="0/1"   name="highlightColorGreen"/>
           <InterpolatingParam id="1213" interp="linr"  time="-9999999/1" value="255" leadInLength="0/1"   name="highlightColorRed"/>
           <InterpolatingParam id="1214" interp="linr"  time="-9999999/1" value="5" leadInLength="0/1"   name="highlightFeatherSize"/>
           <InterpolatingParam id="1215" interp="linr"  time="-9999999/1" value="2" leadInLength="0/1"   name="highlightMagnification"/>
           <InterpolatingParam id="1216" interp="linr"  time="-9999999/1" value="1" leadInLength="0/1"   name="highlightOpacity"/>
           <InterpolatingParam id="1217" interp="linr"  time="-9999999/1" value="45" leadInLength="0/1"   name="highlightSize"/>
           <Parameter id="1218"   name="highlightType">
            <Keyframes>
            <Keyframe id="1219"  time="-9999999/1" value="0" leadInLength="0/1"  />
            </Keyframes>
           </Parameter>
           <InterpolatingParam id="1220" interp="linr"  time="-9999999/1" value="0" leadInLength="0/1"   name="leftClickColorBlue"/>
           <InterpolatingParam id="1221" interp="linr"  time="-9999999/1" value="0" leadInLength="0/1"   name="leftClickColorGreen"/>
           <InterpolatingParam id="1222" interp="linr"  time="-9999999/1" value="255" leadInLength="0/1"   name="leftClickColorRed"/>
           <InterpolatingParam id="1223" interp="linr"  time="-9999999/1" value="0.80000000000000004" leadInLength="0/1"   name="leftClickDuration"/>
           <InterpolatingParam id="1224" interp="linr"  time="-9999999/1" value="20" leadInLength="0/1"   name="leftClickSize"/>
           <Parameter id="1225"   name="leftClickSoundFilename">
            <Keyframes>
            <Keyframe id="1226"  time="-9999999/1" value="" leadInLength="0/1"  />
            </Keyframes>
           </Parameter>
           <InterpolatingParam id="1227" interp="linr"  time="-9999999/1" value="1" leadInLength="0/1"   name="leftClickSoundVolume"/>
           <Parameter id="1228"   name="leftClickType">
            <Keyframes>
            <Keyframe id="1229"  time="-9999999/1" value="0" leadInLength="0/1"  />
            </Keyframes>
           </Parameter>
           <InterpolatingParam id="1230" interp="linr"  time="-9999999/1" value="1" leadInLength="0/1"   name="opacity"/>
           <InterpolatingParam id="1231" interp="linr"  time="-9999999/1" value="255" leadInLength="0/1"   name="rightClickColorBlue"/>
           <InterpolatingParam id="1232" interp="linr"  time="-9999999/1" value="0" leadInLength="0/1"   name="rightClickColorGreen"/>
           <InterpolatingParam id="1233" interp="linr"  time="-9999999/1" value="0" leadInLength="0/1"   name="rightClickColorRed"/>
           <InterpolatingParam id="1234" interp="linr"  time="-9999999/1" value="0.80000000000000004" leadInLength="0/1"   name="rightClickDuration"/>
           <InterpolatingParam id="1235" interp="linr"  time="-9999999/1" value="20" leadInLength="0/1"   name="rightClickSize"/>
           <Parameter id="1236"   name="rightClickSoundFilename">
            <Keyframes>
            <Keyframe id="1237"  time="-9999999/1" value="" leadInLength="0/1"  />
            </Keyframes>
           </Parameter>
           <InterpolatingParam id="1238" interp="linr"  time="-9999999/1" value="1" leadInLength="0/1"   name="rightClickSoundVolume"/>
           <Parameter id="1239"   name="rightClickType">
            <Keyframes>
            <Keyframe id="1240"  time="-9999999/1" value="0" leadInLength="0/1"  />
            </Keyframes>
           </Parameter>
           </Parameters>
           <MetaData>
            <entry key="effectIndex" val="0"/>
           </MetaData>
          </GenericEffect>
         </Effects>
         <Attributes>
          <Attribute id="1241" value="" name="ident"/>
          <Attribute id="1242" value="0" name="mixToMono"/>
         </Attributes>
         <MetaData>
          <entry key="AutoAppliedSmartFocus" val="False"/>
          <entry key="WinSubProjectDisplayName" val=""/>
         </MetaData>
         <ExtraData>
          <Entry key="ZoomPanBin">
           <ZoomPanBin id="1243"  >
            <ZoomPanKeyframes>
             <ZoomPanKeyframe id="1244" timeRangeEnd="-9999999/1" timeRangeDuration="0/1" interpolaterName="linr"  />
             <ZoomPanKeyframe id="1245" timeRangeEnd="888/1" timeRangeDuration="30/1" interpolaterName="linr"  />
             <ZoomPanKeyframe id="1246" timeRangeEnd="2204/1" timeRangeDuration="30/1" interpolaterName="linr"  />
             <ZoomPanKeyframe id="1247" timeRangeEnd="2365/1" timeRangeDuration="30/1" interpolaterName="linr"  />
            </ZoomPanKeyframes>
           </ZoomPanBin>
          </Entry>
          <Entry key="CursorEffectBin">
           <CursorEffectBin id="1248"  >
            <CursorEffectKeyframes>
             <CursorEffectKeyframe id="1249" timeRangeEnd="-9999999/1" timeRangeDuration="0/1" interpolaterName=""  />
            </CursorEffectKeyframes>
           </CursorEffectBin>
          </Entry>
         </ExtraData>
         <GenericTrack id="1250"  >
          <Attributes>
           <Attribute id="1251" value="" name="ident"/>
           <Attribute id="1252" value="0" name="audioMuted"/>
           <Attribute id="1253" value="0" name="videoHidden"/>
          </Attributes>
          <MetaData>
           <entry key="IsLocked" val="False"/>
           <entry key="WinTrackHeight" val="0"/>
          </MetaData>
          <Medias>
           <UnifiedMedia id="1254"  >
            <AMFile id="1255" start="0" duration="1962" scalar="1/1" mediaStart="0/1" mediaDuration="1962/1" trackNumber="1" src="13" channelNumber="0,1" >
             <Parameters>
              <InterpolatingParam id="1256" interp="linr"  time="0/1" value="1" leadInLength="0/1"  name="volume"/>
              <Parameter id="1257"  name="captions"/>
             </Parameters>
             <Attributes>
              <Attribute id="1258" value="" name="ident"/>
              <Attribute id="1259" value="44100" name="sampleRate"/>
              <Attribute id="1260" value="16" name="bitDepth"/>
              <Attribute id="1261" value="1" name="gain"/>
              <Attribute id="1262" value="0" name="mixToMono"/>
             </Attributes>
            </AMFile>
            <ScreenVMFile id="1263" start="0" duration="1962" scalar="1/1" mediaStart="0/1" mediaDuration="1962/1" trackNumber="0" src="13" >
             <Transformer>
              <VectorParam id="1264"  name="translation">
               <InterpolatingParam id="1265" interp="linr"  time="-9999999/1" value="0" leadInLength="0/1"  />
               <InterpolatingParam id="1266" interp="linr"  time="-9999999/1" value="0" leadInLength="0/1"  />
               <InterpolatingParam id="1267" interp="linr"  time="-9999999/1" value="0" leadInLength="0/1"  />
              </VectorParam>
              <VectorParam id="1268"  name="rotation">
               <InterpolatingParam id="1269" interp="linr"  time="-9999999/1" value="0" leadInLength="0/1"  />
               <InterpolatingParam id="1270" interp="linr"  time="-9999999/1" value="0" leadInLength="0/1"  />
               <InterpolatingParam id="1271" interp="linr"  time="-9999999/1" value="0" leadInLength="0/1"  />
              </VectorParam>
              <VectorParam id="1272"  name="shear">
               <InterpolatingParam id="1273" interp="linr"  time="-9999999/1" value="0" leadInLength="0/1"  />
               <InterpolatingParam id="1274" interp="linr"  time="-9999999/1" value="0" leadInLength="0/1"  />
               <InterpolatingParam id="1275" interp="linr"  time="-9999999/1" value="0" leadInLength="0/1"  />
              </VectorParam>
              <VectorParam id="1276"  name="scale">
               <InterpolatingParam id="1277" interp="linr"  time="-9999999/1" value="1" leadInLength="0/1"  />
               <InterpolatingParam id="1278" interp="linr"  time="-9999999/1" value="1" leadInLength="0/1"  />
               <InterpolatingParam id="1279" interp="linr"  time="-9999999/1" value="1" leadInLength="0/1"  />
              </VectorParam>
              <VectorParam id="1280"  name="anchor">
               <InterpolatingParam id="1281" interp="linr"  time="0/1" value="0" leadInLength="0/1"  />
               <InterpolatingParam id="1282" interp="linr"  time="0/1" value="0" leadInLength="0/1"  />
               <InterpolatingParam id="1283" interp="linr"  time="0/1" value="0" leadInLength="0/1"  />
              </VectorParam>
             </Transformer>
             <Parameters>
              <VectorParam id="1284"  name="sourceCrop">
               <InterpolatingParam id="1285" interp="linr"  time="0/1" value="0" leadInLength="0/1"  />
               <InterpolatingParam id="1286" interp="linr"  time="0/1" value="0" leadInLength="0/1"  />
               <InterpolatingParam id="1287" interp="linr"  time="0/1" value="0" leadInLength="0/1"  />
               <InterpolatingParam id="1288" interp="linr"  time="0/1" value="0" leadInLength="0/1"  />
              </VectorParam>
              <VectorParam id="1289"  name="geometryCrop">
               <InterpolatingParam id="1290" interp="linr"  time="-9999999/1" value="0" leadInLength="0/1"  />
               <InterpolatingParam id="1291" interp="linr"  time="-9999999/1" value="0" leadInLength="0/1"  />
               <InterpolatingParam id="1292" interp="linr"  time="-9999999/1" value="0" leadInLength="0/1"  />
               <InterpolatingParam id="1293" interp="linr"  time="-9999999/1" value="0" leadInLength="0/1"  />
              </VectorParam>
              <InterpolatingParam id="1294" interp="linr"  time="-9999999/1" value="1" leadInLength="0/1"  name="opacity"/>
              <InterpolatingParam id="1295" interp="linr"  time="0/1" value="0" leadInLength="0/1"  name="cursorOpacity"/>
              <InterpolatingParam id="1296" interp="linr"  time="0/1" value="0" leadInLength="0/1"  name="cursorScale"/>
             </Parameters>
             <Attributes>
              <Attribute id="1297" value="" name="ident"/>
             </Attributes>
             <ExtraData>
              <Entry key="ZoomPanBin">
               <ZoomPanBin id="1298"  >
                <ZoomPanKeyframes>
                 <ZoomPanKeyframe id="1299" timeRangeEnd="-9999999/1" timeRangeDuration="0/1" interpolaterName="linr"  />
                </ZoomPanKeyframes>
               </ZoomPanBin>
              </Entry>
              <Entry key="CursorEffectBin">
               <CursorEffectBin id="1300"  >
                <CursorEffectKeyframes>
                </CursorEffectKeyframes>
               </CursorEffectBin>
              </Entry>
             </ExtraData>
            </ScreenVMFile>
            <MetaData>
             <entry key="AutoAppliedSmartFocus" val="False"/>
             <entry key="WinSubProjectDisplayName" val=""/>
            </MetaData>
           </UnifiedMedia>
           <UnifiedMedia id="1301"  >
            <AMFile id="1302" start="1962" duration="134" scalar="1/1" mediaStart="2083/1" mediaDuration="134/1" trackNumber="1" src="13" channelNumber="0,1" >
             <Parameters>
              <InterpolatingParam id="1303" interp="linr"  time="0/1" value="1" leadInLength="0/1"  name="volume"/>
              <Parameter id="1304"  name="captions"/>
             </Parameters>
             <Attributes>
              <Attribute id="1305" value="" name="ident"/>
              <Attribute id="1306" value="44100" name="sampleRate"/>
              <Attribute id="1307" value="16" name="bitDepth"/>
              <Attribute id="1308" value="1" name="gain"/>
              <Attribute id="1309" value="0" name="mixToMono"/>
             </Attributes>
            </AMFile>
            <ScreenVMFile id="1310" start="1962" duration="134" scalar="1/1" mediaStart="2083/1" mediaDuration="134/1" trackNumber="0" src="13" >
             <Transformer>
              <VectorParam id="1311"  name="translation">
               <InterpolatingParam id="1312" interp="linr"  time="-9999999/1" value="0" leadInLength="0/1"  />
               <InterpolatingParam id="1313" interp="linr"  time="-9999999/1" value="0" leadInLength="0/1"  />
               <InterpolatingParam id="1314" interp="linr"  time="-9999999/1" value="0" leadInLength="0/1"  />
              </VectorParam>
              <VectorParam id="1315"  name="rotation">
               <InterpolatingParam id="1316" interp="linr"  time="-9999999/1" value="0" leadInLength="0/1"  />
               <InterpolatingParam id="1317" interp="linr"  time="-9999999/1" value="0" leadInLength="0/1"  />
               <InterpolatingParam id="1318" interp="linr"  time="-9999999/1" value="0" leadInLength="0/1"  />
              </VectorParam>
              <VectorParam id="1319"  name="shear">
               <InterpolatingParam id="1320" interp="linr"  time="-9999999/1" value="0" leadInLength="0/1"  />
               <InterpolatingParam id="1321" interp="linr"  time="-9999999/1" value="0" leadInLength="0/1"  />
               <InterpolatingParam id="1322" interp="linr"  time="-9999999/1" value="0" leadInLength="0/1"  />
              </VectorParam>
              <VectorParam id="1323"  name="scale">
               <InterpolatingParam id="1324" interp="linr"  time="-9999999/1" value="1" leadInLength="0/1"  />
               <InterpolatingParam id="1325" interp="linr"  time="-9999999/1" value="1" leadInLength="0/1"  />
               <InterpolatingParam id="1326" interp="linr"  time="-9999999/1" value="1" leadInLength="0/1"  />
              </VectorParam>
              <VectorParam id="1327"  name="anchor">
               <InterpolatingParam id="1328" interp="linr"  time="0/1" value="0" leadInLength="0/1"  />
               <InterpolatingParam id="1329" interp="linr"  time="0/1" value="0" leadInLength="0/1"  />
               <InterpolatingParam id="1330" interp="linr"  time="0/1" value="0" leadInLength="0/1"  />
              </VectorParam>
             </Transformer>
             <Parameters>
              <VectorParam id="1331"  name="sourceCrop">
               <InterpolatingParam id="1332" interp="linr"  time="0/1" value="0" leadInLength="0/1"  />
               <InterpolatingParam id="1333" interp="linr"  time="0/1" value="0" leadInLength="0/1"  />
               <InterpolatingParam id="1334" interp="linr"  time="0/1" value="0" leadInLength="0/1"  />
               <InterpolatingParam id="1335" interp="linr"  time="0/1" value="0" leadInLength="0/1"  />
              </VectorParam>
              <VectorParam id="1336"  name="geometryCrop">
               <InterpolatingParam id="1337" interp="linr"  time="-9999999/1" value="0" leadInLength="0/1"  />
               <InterpolatingParam id="1338" interp="linr"  time="-9999999/1" value="0" leadInLength="0/1"  />
               <InterpolatingParam id="1339" interp="linr"  time="-9999999/1" value="0" leadInLength="0/1"  />
               <InterpolatingParam id="1340" interp="linr"  time="-9999999/1" value="0" leadInLength="0/1"  />
              </VectorParam>
              <InterpolatingParam id="1341" interp="linr"  time="-9999999/1" value="1" leadInLength="0/1"  name="opacity"/>
              <InterpolatingParam id="1342" interp="linr"  time="0/1" value="0" leadInLength="0/1"  name="cursorOpacity"/>
              <InterpolatingParam id="1343" interp="linr"  time="0/1" value="0" leadInLength="0/1"  name="cursorScale"/>
             </Parameters>
             <Attributes>
              <Attribute id="1344" value="" name="ident"/>
             </Attributes>
             <ExtraData>
              <Entry key="ZoomPanBin">
               <ZoomPanBin id="1345"  >
                <ZoomPanKeyframes>
                 <ZoomPanKeyframe id="1346" timeRangeEnd="-9999999/1" timeRangeDuration="0/1" interpolaterName="linr"  />
                </ZoomPanKeyframes>
               </ZoomPanBin>
              </Entry>
              <Entry key="CursorEffectBin">
               <CursorEffectBin id="1347"  >
                <CursorEffectKeyframes>
                </CursorEffectKeyframes>
               </CursorEffectBin>
              </Entry>
             </ExtraData>
            </ScreenVMFile>
            <MetaData>
             <entry key="AutoAppliedSmartFocus" val="False"/>
             <entry key="WinSubProjectDisplayName" val=""/>
            </MetaData>
           </UnifiedMedia>
           <UnifiedMedia id="1348"  >
            <AMFile id="1349" start="2096" duration="1576" scalar="1/1" mediaStart="2265/1" mediaDuration="1576/1" trackNumber="1" src="13" channelNumber="0,1" >
             <Parameters>
              <InterpolatingParam id="1350" interp="linr"  time="0/1" value="1" leadInLength="0/1"  name="volume"/>
              <Parameter id="1351"  name="captions"/>
             </Parameters>
             <Attributes>
              <Attribute id="1352" value="" name="ident"/>
              <Attribute id="1353" value="44100" name="sampleRate"/>
              <Attribute id="1354" value="16" name="bitDepth"/>
              <Attribute id="1355" value="1" name="gain"/>
              <Attribute id="1356" value="0" name="mixToMono"/>
             </Attributes>
            </AMFile>
            <ScreenVMFile id="1357" start="2096" duration="1576" scalar="1/1" mediaStart="2265/1" mediaDuration="1576/1" trackNumber="0" src="13" >
             <Transformer>
              <VectorParam id="1358"  name="translation">
               <InterpolatingParam id="1359" interp="linr"  time="-9999999/1" value="0" leadInLength="0/1"  />
               <InterpolatingParam id="1360" interp="linr"  time="-9999999/1" value="0" leadInLength="0/1"  />
               <InterpolatingParam id="1361" interp="linr"  time="-9999999/1" value="0" leadInLength="0/1"  />
              </VectorParam>
              <VectorParam id="1362"  name="rotation">
               <InterpolatingParam id="1363" interp="linr"  time="-9999999/1" value="0" leadInLength="0/1"  />
               <InterpolatingParam id="1364" interp="linr"  time="-9999999/1" value="0" leadInLength="0/1"  />
               <InterpolatingParam id="1365" interp="linr"  time="-9999999/1" value="0" leadInLength="0/1"  />
              </VectorParam>
              <VectorParam id="1366"  name="shear">
               <InterpolatingParam id="1367" interp="linr"  time="-9999999/1" value="0" leadInLength="0/1"  />
               <InterpolatingParam id="1368" interp="linr"  time="-9999999/1" value="0" leadInLength="0/1"  />
               <InterpolatingParam id="1369" interp="linr"  time="-9999999/1" value="0" leadInLength="0/1"  />
              </VectorParam>
              <VectorParam id="1370"  name="scale">
               <InterpolatingParam id="1371" interp="linr"  time="-9999999/1" value="1" leadInLength="0/1"  />
               <InterpolatingParam id="1372" interp="linr"  time="-9999999/1" value="1" leadInLength="0/1"  />
               <InterpolatingParam id="1373" interp="linr"  time="-9999999/1" value="1" leadInLength="0/1"  />
              </VectorParam>
              <VectorParam id="1374"  name="anchor">
               <InterpolatingParam id="1375" interp="linr"  time="0/1" value="0" leadInLength="0/1"  />
               <InterpolatingParam id="1376" interp="linr"  time="0/1" value="0" leadInLength="0/1"  />
               <InterpolatingParam id="1377" interp="linr"  time="0/1" value="0" leadInLength="0/1"  />
              </VectorParam>
             </Transformer>
             <Parameters>
              <VectorParam id="1378"  name="sourceCrop">
               <InterpolatingParam id="1379" interp="linr"  time="0/1" value="0" leadInLength="0/1"  />
               <InterpolatingParam id="1380" interp="linr"  time="0/1" value="0" leadInLength="0/1"  />
               <InterpolatingParam id="1381" interp="linr"  time="0/1" value="0" leadInLength="0/1"  />
               <InterpolatingParam id="1382" interp="linr"  time="0/1" value="0" leadInLength="0/1"  />
              </VectorParam>
              <VectorParam id="1383"  name="geometryCrop">
               <InterpolatingParam id="1384" interp="linr"  time="-9999999/1" value="0" leadInLength="0/1"  />
               <InterpolatingParam id="1385" interp="linr"  time="-9999999/1" value="0" leadInLength="0/1"  />
               <InterpolatingParam id="1386" interp="linr"  time="-9999999/1" value="0" leadInLength="0/1"  />
               <InterpolatingParam id="1387" interp="linr"  time="-9999999/1" value="0" leadInLength="0/1"  />
              </VectorParam>
              <InterpolatingParam id="1388" interp="linr"  time="-9999999/1" value="1" leadInLength="0/1"  name="opacity"/>
              <InterpolatingParam id="1389" interp="linr"  time="0/1" value="0" leadInLength="0/1"  name="cursorOpacity"/>
              <InterpolatingParam id="1390" interp="linr"  time="0/1" value="0" leadInLength="0/1"  name="cursorScale"/>
             </Parameters>
             <Attributes>
              <Attribute id="1391" value="" name="ident"/>
             </Attributes>
             <ExtraData>
              <Entry key="ZoomPanBin">
               <ZoomPanBin id="1392"  >
                <ZoomPanKeyframes>
                 <ZoomPanKeyframe id="1393" timeRangeEnd="-9999999/1" timeRangeDuration="0/1" interpolaterName="linr"  />
                </ZoomPanKeyframes>
               </ZoomPanBin>
              </Entry>
              <Entry key="CursorEffectBin">
               <CursorEffectBin id="1394"  >
                <CursorEffectKeyframes>
                </CursorEffectKeyframes>
               </CursorEffectBin>
              </Entry>
             </ExtraData>
            </ScreenVMFile>
            <MetaData>
             <entry key="AutoAppliedSmartFocus" val="False"/>
             <entry key="WinSubProjectDisplayName" val=""/>
            </MetaData>
           </UnifiedMedia>
          </Medias>
         </GenericTrack>
        </StitchedMedia>
       </Medias>
      </GenericTrack>
      <GenericTrack id="1395"  >
       <Attributes>
        <Attribute id="1396" value="" name="ident"/>
        <Attribute id="1397" value="0" name="audioMuted"/>
        <Attribute id="1398" value="0" name="videoHidden"/>
       </Attributes>
       <MetaData>
        <entry key="IsLocked" val="False"/>
        <entry key="WinTrackHeight" val="62"/>
       </MetaData>
       <Medias>
        <IMFile id="1399" start="2665" duration="793" scalar="1/1" mediaStart="0/1" mediaDuration="1/1" trackNumber="0" src="8" trimStartSum="0/1" >
         <Transformer>
          <VectorParam id="1400"  name="translation">
           <InterpolatingParam id="1401" interp="linr"  >
            <Keyframes>
            <Keyframe id="1402"  time="-9999999/1" value="-250.00000000003627" leadInLength="0/1"  />
            <Keyframe id="1403"  time="222/1" value="-35.381998999212946" leadInLength="30/1"  interpolater="leadin-linr"  />
            </Keyframes>
           </InterpolatingParam>
           <InterpolatingParam id="1404" interp="linr"  >
            <Keyframes>
            <Keyframe id="1405"  time="-9999999/1" value="159.24175824176302" leadInLength="0/1"  />
            <Keyframe id="1406"  time="222/1" value="137.42809824253146" leadInLength="30/1"  interpolater="leadin-linr"  />
            </Keyframes>
           </InterpolatingParam>
           <InterpolatingParam id="1407" interp="linr"  >
            <Keyframes>
            <Keyframe id="1408"  time="-9999999/1" value="0" leadInLength="0/1"  />
            <Keyframe id="1409"  time="222/1" value="0" leadInLength="30/1"  interpolater="leadin-linr"  />
            </Keyframes>
           </InterpolatingParam>
          </VectorParam>
          <VectorParam id="1410"  name="rotation">
           <InterpolatingParam id="1411" interp="linr"  >
            <Keyframes>
            <Keyframe id="1412"  time="-9999999/1" value="0" leadInLength="0/1"  />
            <Keyframe id="1413"  time="222/1" value="0" leadInLength="30/1"  interpolater="leadin-linr"  />
            </Keyframes>
           </InterpolatingParam>
           <InterpolatingParam id="1414" interp="linr"  >
            <Keyframes>
            <Keyframe id="1415"  time="-9999999/1" value="0" leadInLength="0/1"  />
            <Keyframe id="1416"  time="222/1" value="0" leadInLength="30/1"  interpolater="leadin-linr"  />
            </Keyframes>
           </InterpolatingParam>
           <InterpolatingParam id="1417" interp="linr"  >
            <Keyframes>
            <Keyframe id="1418"  time="-9999999/1" value="0" leadInLength="0/1"  />
            <Keyframe id="1419"  time="222/1" value="0" leadInLength="30/1"  interpolater="leadin-linr"  />
            </Keyframes>
           </InterpolatingParam>
          </VectorParam>
          <VectorParam id="1420"  name="shear">
           <InterpolatingParam id="1421" interp="linr"  >
            <Keyframes>
            <Keyframe id="1422"  time="-9999999/1" value="0" leadInLength="0/1"  />
            <Keyframe id="1423"  time="222/1" value="0" leadInLength="30/1"  interpolater="leadin-linr"  />
            </Keyframes>
           </InterpolatingParam>
           <InterpolatingParam id="1424" interp="linr"  >
            <Keyframes>
            <Keyframe id="1425"  time="-9999999/1" value="0" leadInLength="0/1"  />
            <Keyframe id="1426"  time="222/1" value="0" leadInLength="30/1"  interpolater="leadin-linr"  />
            </Keyframes>
           </InterpolatingParam>
           <InterpolatingParam id="1427" interp="linr"  >
            <Keyframes>
            <Keyframe id="1428"  time="-9999999/1" value="0" leadInLength="0/1"  />
            <Keyframe id="1429"  time="222/1" value="0" leadInLength="30/1"  interpolater="leadin-linr"  />
            </Keyframes>
           </InterpolatingParam>
          </VectorParam>
          <VectorParam id="1430"  name="scale">
           <InterpolatingParam id="1431" interp="linr"  >
            <Keyframes>
            <Keyframe id="1432"  time="-9999999/1" value="1" leadInLength="0/1"  />
            <Keyframe id="1433"  time="222/1" value="1.5503025116053162" leadInLength="30/1"  interpolater="leadin-linr"  />
            </Keyframes>
           </InterpolatingParam>
           <InterpolatingParam id="1434" interp="linr"  >
            <Keyframes>
            <Keyframe id="1435"  time="-9999999/1" value="1" leadInLength="0/1"  />
            <Keyframe id="1436"  time="222/1" value="1.5503025925241143" leadInLength="30/1"  interpolater="leadin-linr"  />
            </Keyframes>
           </InterpolatingParam>
           <InterpolatingParam id="1437" interp="linr"  >
            <Keyframes>
            <Keyframe id="1438"  time="-9999999/1" value="1" leadInLength="0/1"  />
            <Keyframe id="1439"  time="222/1" value="0.99999999999999989" leadInLength="30/1"  interpolater="leadin-linr"  />
            </Keyframes>
           </InterpolatingParam>
          </VectorParam>
          <VectorParam id="1440"  name="anchor">
           <InterpolatingParam id="1441" interp="linr"  time="0/1" value="0" leadInLength="0/1"  />
           <InterpolatingParam id="1442" interp="linr"  time="0/1" value="0" leadInLength="0/1"  />
           <InterpolatingParam id="1443" interp="linr"  time="0/1" value="0" leadInLength="0/1"  />
          </VectorParam>
         </Transformer>
         <Parameters>
          <VectorParam id="1444"  name="sourceCrop">
           <InterpolatingParam id="1445" interp="linr"  time="0/1" value="0" leadInLength="0/1"  />
           <InterpolatingParam id="1446" interp="linr"  time="0/1" value="0" leadInLength="0/1"  />
           <InterpolatingParam id="1447" interp="linr"  time="0/1" value="0" leadInLength="0/1"  />
           <InterpolatingParam id="1448" interp="linr"  time="0/1" value="0" leadInLength="0/1"  />
          </VectorParam>
          <VectorParam id="1449"  name="geometryCrop">
           <InterpolatingParam id="1450" interp="linr"  >
            <Keyframes>
            <Keyframe id="1451"  time="-9999999/1" value="0" leadInLength="0/1"  />
            <Keyframe id="1452"  time="222/1" value="0" leadInLength="30/1"  interpolater="leadin-linr"  />
            </Keyframes>
           </InterpolatingParam>
           <InterpolatingParam id="1453" interp="linr"  >
            <Keyframes>
            <Keyframe id="1454"  time="-9999999/1" value="0" leadInLength="0/1"  />
            <Keyframe id="1455"  time="222/1" value="0" leadInLength="30/1"  interpolater="leadin-linr"  />
            </Keyframes>
           </InterpolatingParam>
           <InterpolatingParam id="1456" interp="linr"  >
            <Keyframes>
            <Keyframe id="1457"  time="-9999999/1" value="0" leadInLength="0/1"  />
            <Keyframe id="1458"  time="222/1" value="0" leadInLength="30/1"  interpolater="leadin-linr"  />
            </Keyframes>
           </InterpolatingParam>
           <InterpolatingParam id="1459" interp="linr"  >
            <Keyframes>
            <Keyframe id="1460"  time="-9999999/1" value="0" leadInLength="0/1"  />
            <Keyframe id="1461"  time="222/1" value="0" leadInLength="30/1"  interpolater="leadin-linr"  />
            </Keyframes>
           </InterpolatingParam>
          </VectorParam>
          <InterpolatingParam id="1462" interp="linr"  name="opacity">
           <Keyframes>
           <Keyframe id="1463"  time="-9999999/1" value="1" leadInLength="0/1"  />
           <Keyframe id="1464"  time="222/1" value="1" leadInLength="30/1"  interpolater="leadin-linr"  />
           </Keyframes>
          </InterpolatingParam>
         </Parameters>
         <Attributes>
          <Attribute id="1465" value="" name="ident"/>
         </Attributes>
         <MetaData>
          <entry key="WinSubProjectDisplayName" val=""/>
         </MetaData>
         <ExtraData>
          <Entry key="ZoomPanBin">
           <ZoomPanBin id="1466"  >
            <ZoomPanKeyframes>
             <ZoomPanKeyframe id="1467" timeRangeEnd="-9999999/1" timeRangeDuration="0/1" interpolaterName="linr"  />
             <ZoomPanKeyframe id="1468" timeRangeEnd="222/1" timeRangeDuration="30/1" interpolaterName="linr"  />
            </ZoomPanKeyframes>
           </ZoomPanBin>
          </Entry>
         </ExtraData>
        </IMFile>
        <IMFile id="1469" start="14535" duration="552" scalar="1/1" mediaStart="0/1" mediaDuration="1/1" trackNumber="0" src="8" trimStartSum="0/1" >
         <Transformer>
          <VectorParam id="1470"  name="translation">
           <InterpolatingParam id="1471" interp="linr"  time="-9999999/1" value="-405.58223289339566" leadInLength="0/1"  />
           <InterpolatingParam id="1472" interp="linr"  time="-9999999/1" value="181.97802197820377" leadInLength="0/1"  />
           <InterpolatingParam id="1473" interp="linr"  time="-9999999/1" value="-3.4106051316488567e-010" leadInLength="0/1"  />
          </VectorParam>
          <VectorParam id="1474"  name="rotation">
           <InterpolatingParam id="1475" interp="linr"  time="-9999999/1" value="0" leadInLength="0/1"  />
           <InterpolatingParam id="1476" interp="linr"  time="-9999999/1" value="0" leadInLength="0/1"  />
           <InterpolatingParam id="1477" interp="linr"  time="-9999999/1" value="0" leadInLength="0/1"  />
          </VectorParam>
          <VectorParam id="1478"  name="shear">
           <InterpolatingParam id="1479" interp="linr"  time="-9999999/1" value="0" leadInLength="0/1"  />
           <InterpolatingParam id="1480" interp="linr"  time="-9999999/1" value="0" leadInLength="0/1"  />
           <InterpolatingParam id="1481" interp="linr"  time="-9999999/1" value="0" leadInLength="0/1"  />
          </VectorParam>
          <VectorParam id="1482"  name="scale">
           <InterpolatingParam id="1483" interp="linr"  time="-9999999/1" value="0.60107119770928719" leadInLength="0/1"  />
           <InterpolatingParam id="1484" interp="linr"  time="-9999999/1" value="0.60107119770928807" leadInLength="0/1"  />
           <InterpolatingParam id="1485" interp="linr"  time="-9999999/1" value="1" leadInLength="0/1"  />
          </VectorParam>
          <VectorParam id="1486"  name="anchor">
           <InterpolatingParam id="1487" interp="linr"  time="0/1" value="0" leadInLength="0/1"  />
           <InterpolatingParam id="1488" interp="linr"  time="0/1" value="0" leadInLength="0/1"  />
           <InterpolatingParam id="1489" interp="linr"  time="0/1" value="0" leadInLength="0/1"  />
          </VectorParam>
         </Transformer>
         <Parameters>
          <VectorParam id="1490"  name="sourceCrop">
           <InterpolatingParam id="1491" interp="linr"  time="0/1" value="0" leadInLength="0/1"  />
           <InterpolatingParam id="1492" interp="linr"  time="0/1" value="0" leadInLength="0/1"  />
           <InterpolatingParam id="1493" interp="linr"  time="0/1" value="0" leadInLength="0/1"  />
           <InterpolatingParam id="1494" interp="linr"  time="0/1" value="0" leadInLength="0/1"  />
          </VectorParam>
          <VectorParam id="1495"  name="geometryCrop">
           <InterpolatingParam id="1496" interp="linr"  time="-9999999/1" value="0" leadInLength="0/1"  />
           <InterpolatingParam id="1497" interp="linr"  time="-9999999/1" value="0" leadInLength="0/1"  />
           <InterpolatingParam id="1498" interp="linr"  time="-9999999/1" value="0" leadInLength="0/1"  />
           <InterpolatingParam id="1499" interp="linr"  time="-9999999/1" value="0" leadInLength="0/1"  />
          </VectorParam>
          <InterpolatingParam id="1500" interp="linr"  time="-9999999/1" value="1" leadInLength="0/1"  name="opacity"/>
         </Parameters>
         <Attributes>
          <Attribute id="1501" value="" name="ident"/>
         </Attributes>
         <MetaData>
          <entry key="WinSubProjectDisplayName" val=""/>
         </MetaData>
         <ExtraData>
          <Entry key="ZoomPanBin">
           <ZoomPanBin id="1502"  >
            <ZoomPanKeyframes>
             <ZoomPanKeyframe id="1503" timeRangeEnd="-9999999/1" timeRangeDuration="0/1" interpolaterName="linr"  />
            </ZoomPanKeyframes>
           </ZoomPanBin>
          </Entry>
         </ExtraData>
        </IMFile>
        <AMFile id="1504" start="18045" duration="1800" scalar="1/1" mediaStart="0/1" mediaDuration="1800/1" trackNumber="2" src="14" channelNumber="0,1" >
         <Parameters>
          <InterpolatingParam id="1505" interp="linr"  time="0/1" value="1" leadInLength="0/1"  name="volume"/>
          <Parameter id="1506"  name="captions"/>
         </Parameters>
         <Attributes>
          <Attribute id="1507" value="" name="ident"/>
          <Attribute id="1508" value="44100" name="sampleRate"/>
          <Attribute id="1509" value="16" name="bitDepth"/>
          <Attribute id="1510" value="1" name="gain"/>
          <Attribute id="1511" value="0" name="mixToMono"/>
         </Attributes>
         <MetaData>
          <entry key="WinSubProjectDisplayName" val=""/>
         </MetaData>
        </AMFile>
       </Medias>
      </GenericTrack>
      <GenericTrack id="1512"  >
       <Attributes>
        <Attribute id="1513" value="" name="ident"/>
        <Attribute id="1514" value="0" name="audioMuted"/>
        <Attribute id="1515" value="0" name="videoHidden"/>
       </Attributes>
       <MetaData>
        <entry key="IsLocked" val="False"/>
        <entry key="WinTrackHeight" val="62"/>
       </MetaData>
       <Medias>
        <UnifiedMedia id="1516"  >
         <AMFile id="1517" start="18045" duration="1816" scalar="1/1" mediaStart="0/1" mediaDuration="1816/1" trackNumber="1" src="14" channelNumber="0,1" >
          <Parameters>
           <InterpolatingParam id="1518" interp="linr"  time="0/1" value="1" leadInLength="0/1"  name="volume"/>
           <Parameter id="1519"  name="captions"/>
          </Parameters>
          <Attributes>
           <Attribute id="1520" value="" name="ident"/>
           <Attribute id="1521" value="44100" name="sampleRate"/>
           <Attribute id="1522" value="16" name="bitDepth"/>
           <Attribute id="1523" value="1" name="gain"/>
           <Attribute id="1524" value="0" name="mixToMono"/>
          </Attributes>
         </AMFile>
         <ScreenVMFile id="1525" start="18045" duration="1816" scalar="1/1" mediaStart="0/1" mediaDuration="1816/1" trackNumber="0" src="14" >
          <Transformer>
           <VectorParam id="1526"  name="translation">
            <InterpolatingParam id="1527" interp="linr"  >
             <Keyframes>
             <Keyframe id="1528"  time="-9999999/1" value="0" leadInLength="0/1"  />
             <Keyframe id="1529"  time="671/1" value="0" leadInLength="30/1"  interpolater="leadin-linr"  />
             <Keyframe id="1530"  time="1253/1" value="320" leadInLength="30/1"  interpolater="leadin-linr"  />
             <Keyframe id="1531"  time="1453/1" value="-2.8421709430404007e-014" leadInLength="30/1"  interpolater="leadin-linr"  />
             </Keyframes>
            </InterpolatingParam>
            <InterpolatingParam id="1532" interp="linr"  >
             <Keyframes>
             <Keyframe id="1533"  time="-9999999/1" value="0" leadInLength="0/1"  />
             <Keyframe id="1534"  time="671/1" value="-0" leadInLength="30/1"  interpolater="leadin-linr"  />
             <Keyframe id="1535"  time="1253/1" value="-180" leadInLength="30/1"  interpolater="leadin-linr"  />
             <Keyframe id="1536"  time="1453/1" value="-2.8421709430404007e-014" leadInLength="30/1"  interpolater="leadin-linr"  />
             </Keyframes>
            </InterpolatingParam>
            <InterpolatingParam id="1537" interp="linr"  >
             <Keyframes>
             <Keyframe id="1538"  time="-9999999/1" value="0" leadInLength="0/1"  />
             <Keyframe id="1539"  time="671/1" value="0" leadInLength="30/1"  interpolater="leadin-linr"  />
             <Keyframe id="1540"  time="1253/1" value="0" leadInLength="30/1"  interpolater="leadin-linr"  />
             <Keyframe id="1541"  time="1453/1" value="0" leadInLength="30/1"  interpolater="leadin-linr"  />
             </Keyframes>
            </InterpolatingParam>
           </VectorParam>
           <VectorParam id="1542"  name="rotation">
            <InterpolatingParam id="1543" interp="linr"  >
             <Keyframes>
             <Keyframe id="1544"  time="-9999999/1" value="0" leadInLength="0/1"  />
             <Keyframe id="1545"  time="671/1" value="0" leadInLength="30/1"  interpolater="leadin-linr"  />
             <Keyframe id="1546"  time="1253/1" value="0" leadInLength="30/1"  interpolater="leadin-linr"  />
             <Keyframe id="1547"  time="1453/1" value="0" leadInLength="30/1"  interpolater="leadin-linr"  />
             </Keyframes>
            </InterpolatingParam>
            <InterpolatingParam id="1548" interp="linr"  >
             <Keyframes>
             <Keyframe id="1549"  time="-9999999/1" value="0" leadInLength="0/1"  />
             <Keyframe id="1550"  time="671/1" value="0" leadInLength="30/1"  interpolater="leadin-linr"  />
             <Keyframe id="1551"  time="1253/1" value="0" leadInLength="30/1"  interpolater="leadin-linr"  />
             <Keyframe id="1552"  time="1453/1" value="0" leadInLength="30/1"  interpolater="leadin-linr"  />
             </Keyframes>
            </InterpolatingParam>
            <InterpolatingParam id="1553" interp="linr"  >
             <Keyframes>
             <Keyframe id="1554"  time="-9999999/1" value="0" leadInLength="0/1"  />
             <Keyframe id="1555"  time="671/1" value="0" leadInLength="30/1"  interpolater="leadin-linr"  />
             <Keyframe id="1556"  time="1253/1" value="0" leadInLength="30/1"  interpolater="leadin-linr"  />
             <Keyframe id="1557"  time="1453/1" value="0" leadInLength="30/1"  interpolater="leadin-linr"  />
             </Keyframes>
            </InterpolatingParam>
           </VectorParam>
           <VectorParam id="1558"  name="shear">
            <InterpolatingParam id="1559" interp="linr"  >
             <Keyframes>
             <Keyframe id="1560"  time="-9999999/1" value="0" leadInLength="0/1"  />
             <Keyframe id="1561"  time="671/1" value="0" leadInLength="30/1"  interpolater="leadin-linr"  />
             <Keyframe id="1562"  time="1253/1" value="0" leadInLength="30/1"  interpolater="leadin-linr"  />
             <Keyframe id="1563"  time="1453/1" value="0" leadInLength="30/1"  interpolater="leadin-linr"  />
             </Keyframes>
            </InterpolatingParam>
            <InterpolatingParam id="1564" interp="linr"  >
             <Keyframes>
             <Keyframe id="1565"  time="-9999999/1" value="0" leadInLength="0/1"  />
             <Keyframe id="1566"  time="671/1" value="0" leadInLength="30/1"  interpolater="leadin-linr"  />
             <Keyframe id="1567"  time="1253/1" value="0" leadInLength="30/1"  interpolater="leadin-linr"  />
             <Keyframe id="1568"  time="1453/1" value="0" leadInLength="30/1"  interpolater="leadin-linr"  />
             </Keyframes>
            </InterpolatingParam>
            <InterpolatingParam id="1569" interp="linr"  >
             <Keyframes>
             <Keyframe id="1570"  time="-9999999/1" value="0" leadInLength="0/1"  />
             <Keyframe id="1571"  time="671/1" value="0" leadInLength="30/1"  interpolater="leadin-linr"  />
             <Keyframe id="1572"  time="1253/1" value="0" leadInLength="30/1"  interpolater="leadin-linr"  />
             <Keyframe id="1573"  time="1453/1" value="0" leadInLength="30/1"  interpolater="leadin-linr"  />
             </Keyframes>
            </InterpolatingParam>
           </VectorParam>
           <VectorParam id="1574"  name="scale">
            <InterpolatingParam id="1575" interp="linr"  >
             <Keyframes>
             <Keyframe id="1576"  time="-9999999/1" value="0.66666666666666663" leadInLength="0/1"  />
             <Keyframe id="1577"  time="671/1" value="0.66666666666666663" leadInLength="30/1"  interpolater="leadin-linr"  />
             <Keyframe id="1578"  time="1253/1" value="1" leadInLength="30/1"  interpolater="leadin-linr"  />
             <Keyframe id="1579"  time="1453/1" value="0.66666666666666652" leadInLength="30/1"  interpolater="leadin-linr"  />
             </Keyframes>
            </InterpolatingParam>
            <InterpolatingParam id="1580" interp="linr"  >
             <Keyframes>
             <Keyframe id="1581"  time="-9999999/1" value="0.66666666666666663" leadInLength="0/1"  />
             <Keyframe id="1582"  time="671/1" value="0.66666666666666663" leadInLength="30/1"  interpolater="leadin-linr"  />
             <Keyframe id="1583"  time="1253/1" value="1" leadInLength="30/1"  interpolater="leadin-linr"  />
             <Keyframe id="1584"  time="1453/1" value="0.66666666666666652" leadInLength="30/1"  interpolater="leadin-linr"  />
             </Keyframes>
            </InterpolatingParam>
            <InterpolatingParam id="1585" interp="linr"  >
             <Keyframes>
             <Keyframe id="1586"  time="-9999999/1" value="1" leadInLength="0/1"  />
             <Keyframe id="1587"  time="671/1" value="1" leadInLength="30/1"  interpolater="leadin-linr"  />
             <Keyframe id="1588"  time="1253/1" value="1" leadInLength="30/1"  interpolater="leadin-linr"  />
             <Keyframe id="1589"  time="1453/1" value="1" leadInLength="30/1"  interpolater="leadin-linr"  />
             </Keyframes>
            </InterpolatingParam>
           </VectorParam>
           <VectorParam id="1590"  name="anchor">
            <InterpolatingParam id="1591" interp="linr"  time="0/1" value="0" leadInLength="0/1"  />
            <InterpolatingParam id="1592" interp="linr"  time="0/1" value="0" leadInLength="0/1"  />
            <InterpolatingParam id="1593" interp="linr"  time="0/1" value="0" leadInLength="0/1"  />
           </VectorParam>
          </Transformer>
          <Parameters>
           <VectorParam id="1594"  name="sourceCrop">
            <InterpolatingParam id="1595" interp="linr"  time="0/1" value="0" leadInLength="0/1"  />
            <InterpolatingParam id="1596" interp="linr"  time="0/1" value="0" leadInLength="0/1"  />
            <InterpolatingParam id="1597" interp="linr"  time="0/1" value="0" leadInLength="0/1"  />
            <InterpolatingParam id="1598" interp="linr"  time="0/1" value="0" leadInLength="0/1"  />
           </VectorParam>
           <VectorParam id="1599"  name="geometryCrop">
            <InterpolatingParam id="1600" interp="linr"  >
             <Keyframes>
             <Keyframe id="1601"  time="-9999999/1" value="0" leadInLength="0/1"  />
             <Keyframe id="1602"  time="671/1" value="0" leadInLength="30/1"  interpolater="leadin-linr"  />
             <Keyframe id="1603"  time="1253/1" value="0" leadInLength="30/1"  interpolater="leadin-linr"  />
             <Keyframe id="1604"  time="1453/1" value="0" leadInLength="30/1"  interpolater="leadin-linr"  />
             </Keyframes>
            </InterpolatingParam>
            <InterpolatingParam id="1605" interp="linr"  >
             <Keyframes>
             <Keyframe id="1606"  time="-9999999/1" value="0" leadInLength="0/1"  />
             <Keyframe id="1607"  time="671/1" value="0" leadInLength="30/1"  interpolater="leadin-linr"  />
             <Keyframe id="1608"  time="1253/1" value="0" leadInLength="30/1"  interpolater="leadin-linr"  />
             <Keyframe id="1609"  time="1453/1" value="0" leadInLength="30/1"  interpolater="leadin-linr"  />
             </Keyframes>
            </InterpolatingParam>
            <InterpolatingParam id="1610" interp="linr"  >
             <Keyframes>
             <Keyframe id="1611"  time="-9999999/1" value="0" leadInLength="0/1"  />
             <Keyframe id="1612"  time="671/1" value="0" leadInLength="30/1"  interpolater="leadin-linr"  />
             <Keyframe id="1613"  time="1253/1" value="0" leadInLength="30/1"  interpolater="leadin-linr"  />
             <Keyframe id="1614"  time="1453/1" value="0" leadInLength="30/1"  interpolater="leadin-linr"  />
             </Keyframes>
            </InterpolatingParam>
            <InterpolatingParam id="1615" interp="linr"  >
             <Keyframes>
             <Keyframe id="1616"  time="-9999999/1" value="0" leadInLength="0/1"  />
             <Keyframe id="1617"  time="671/1" value="0" leadInLength="30/1"  interpolater="leadin-linr"  />
             <Keyframe id="1618"  time="1253/1" value="0" leadInLength="30/1"  interpolater="leadin-linr"  />
             <Keyframe id="1619"  time="1453/1" value="0" leadInLength="30/1"  interpolater="leadin-linr"  />
             </Keyframes>
            </InterpolatingParam>
           </VectorParam>
           <InterpolatingParam id="1620" interp="linr"  name="opacity">
            <Keyframes>
            <Keyframe id="1621"  time="-9999999/1" value="1" leadInLength="0/1"  />
            <Keyframe id="1622"  time="671/1" value="1" leadInLength="30/1"  interpolater="leadin-linr"  />
            <Keyframe id="1623"  time="1253/1" value="1" leadInLength="30/1"  interpolater="leadin-linr"  />
            <Keyframe id="1624"  time="1453/1" value="1" leadInLength="30/1"  interpolater="leadin-linr"  />
            </Keyframes>
           </InterpolatingParam>
           <InterpolatingParam id="1625" interp="linr"  time="0/1" value="1" leadInLength="0/1"  name="cursorOpacity"/>
           <InterpolatingParam id="1626" interp="linr"  time="0/1" value="1" leadInLength="0/1"  name="cursorScale"/>
          </Parameters>
          <Effects>
           <GenericEffect id="1627" name = "CursorBaseEffectName" >
            <Parameters>
            <InterpolatingParam id="1628" interp="linr"  time="-9999999/1" value="1" leadInLength="0/1"   name="cursorSize"/>
            <InterpolatingParam id="1629" interp="linr"  time="-9999999/1" value="0" leadInLength="0/1"   name="highlightBlurRadius"/>
            <InterpolatingParam id="1630" interp="linr"  time="-9999999/1" value="0" leadInLength="0/1"   name="highlightColorBlue"/>
            <InterpolatingParam id="1631" interp="linr"  time="-9999999/1" value="255" leadInLength="0/1"   name="highlightColorGreen"/>
            <InterpolatingParam id="1632" interp="linr"  time="-9999999/1" value="255" leadInLength="0/1"   name="highlightColorRed"/>
            <InterpolatingParam id="1633" interp="linr"  time="-9999999/1" value="5" leadInLength="0/1"   name="highlightFeatherSize"/>
            <InterpolatingParam id="1634" interp="linr"  time="-9999999/1" value="2" leadInLength="0/1"   name="highlightMagnification"/>
            <InterpolatingParam id="1635" interp="linr"  time="-9999999/1" value="1" leadInLength="0/1"   name="highlightOpacity"/>
            <InterpolatingParam id="1636" interp="linr"  time="-9999999/1" value="45" leadInLength="0/1"   name="highlightSize"/>
            <Parameter id="1637"   name="highlightType">
             <Keyframes>
             <Keyframe id="1638"  time="-9999999/1" value="0" leadInLength="0/1"  />
             </Keyframes>
            </Parameter>
            <InterpolatingParam id="1639" interp="linr"  time="-9999999/1" value="0" leadInLength="0/1"   name="leftClickColorBlue"/>
            <InterpolatingParam id="1640" interp="linr"  time="-9999999/1" value="0" leadInLength="0/1"   name="leftClickColorGreen"/>
            <InterpolatingParam id="1641" interp="linr"  time="-9999999/1" value="255" leadInLength="0/1"   name="leftClickColorRed"/>
            <InterpolatingParam id="1642" interp="linr"  time="-9999999/1" value="0.80000000000000004" leadInLength="0/1"   name="leftClickDuration"/>
            <InterpolatingParam id="1643" interp="linr"  time="-9999999/1" value="20" leadInLength="0/1"   name="leftClickSize"/>
            <Parameter id="1644"   name="leftClickSoundFilename">
             <Keyframes>
             <Keyframe id="1645"  time="-9999999/1" value="" leadInLength="0/1"  />
             </Keyframes>
            </Parameter>
            <InterpolatingParam id="1646" interp="linr"  time="-9999999/1" value="1" leadInLength="0/1"   name="leftClickSoundVolume"/>
            <Parameter id="1647"   name="leftClickType">
             <Keyframes>
             <Keyframe id="1648"  time="-9999999/1" value="0" leadInLength="0/1"  />
             </Keyframes>
            </Parameter>
            <InterpolatingParam id="1649" interp="linr"  time="-9999999/1" value="1" leadInLength="0/1"   name="opacity"/>
            <InterpolatingParam id="1650" interp="linr"  time="-9999999/1" value="255" leadInLength="0/1"   name="rightClickColorBlue"/>
            <InterpolatingParam id="1651" interp="linr"  time="-9999999/1" value="0" leadInLength="0/1"   name="rightClickColorGreen"/>
            <InterpolatingParam id="1652" interp="linr"  time="-9999999/1" value="0" leadInLength="0/1"   name="rightClickColorRed"/>
            <InterpolatingParam id="1653" interp="linr"  time="-9999999/1" value="0.80000000000000004" leadInLength="0/1"   name="rightClickDuration"/>
            <InterpolatingParam id="1654" interp="linr"  time="-9999999/1" value="20" leadInLength="0/1"   name="rightClickSize"/>
            <Parameter id="1655"   name="rightClickSoundFilename">
             <Keyframes>
             <Keyframe id="1656"  time="-9999999/1" value="" leadInLength="0/1"  />
             </Keyframes>
            </Parameter>
            <InterpolatingParam id="1657" interp="linr"  time="-9999999/1" value="1" leadInLength="0/1"   name="rightClickSoundVolume"/>
            <Parameter id="1658"   name="rightClickType">
             <Keyframes>
             <Keyframe id="1659"  time="-9999999/1" value="0" leadInLength="0/1"  />
             </Keyframes>
            </Parameter>
            </Parameters>
            <MetaData>
             <entry key="effectIndex" val="0"/>
            </MetaData>
           </GenericEffect>
          </Effects>
          <Attributes>
           <Attribute id="1660" value="" name="ident"/>
          </Attributes>
          <ExtraData>
           <Entry key="ZoomPanBin">
            <ZoomPanBin id="1661"  >
             <ZoomPanKeyframes>
              <ZoomPanKeyframe id="1662" timeRangeEnd="-9999999/1" timeRangeDuration="0/1" interpolaterName="linr"  />
              <ZoomPanKeyframe id="1663" timeRangeEnd="671/1" timeRangeDuration="30/1" interpolaterName="linr"  />
              <ZoomPanKeyframe id="1664" timeRangeEnd="1253/1" timeRangeDuration="30/1" interpolaterName="linr"  />
              <ZoomPanKeyframe id="1665" timeRangeEnd="1453/1" timeRangeDuration="30/1" interpolaterName="linr"  />
             </ZoomPanKeyframes>
            </ZoomPanBin>
           </Entry>
           <Entry key="CursorEffectBin">
            <CursorEffectBin id="1666"  >
             <CursorEffectKeyframes>
              <CursorEffectKeyframe id="1667" timeRangeEnd="-9999999/1" timeRangeDuration="0/1" interpolaterName=""  />
             </CursorEffectKeyframes>
            </CursorEffectBin>
           </Entry>
          </ExtraData>
         </ScreenVMFile>
         <MetaData>
          <entry key="AutoAppliedSmartFocus" val="True"/>
          <entry key="WinSubProjectDisplayName" val=""/>
         </MetaData>
        </UnifiedMedia>
       </Medias>
      </GenericTrack>
      <GenericTrack id="1668"  >
       <Attributes>
        <Attribute id="1669" value="" name="ident"/>
        <Attribute id="1670" value="0" name="audioMuted"/>
        <Attribute id="1671" value="0" name="videoHidden"/>
       </Attributes>
       <MetaData>
        <entry key="IsLocked" val="False"/>
        <entry key="WinTrackHeight" val="62"/>
       </MetaData>
       <Medias>
       </Medias>
      </GenericTrack>
     </Tracks>
    </GenericMixer>
   <CaptionAttributes id="1672"  >
    <Attribute id="1673" value="1" name="captionsEnabled"/>
    <Attribute id="1674" value="Arial" name="captionsFontName"/>
    <Attribute id="1675" value="28" name="captionsFontSize"/>
    <Attribute id="1676" value="(0,0,0,255)" name="captionsBackgroundColor"/>
    <Attribute id="1677" value="(255,255,255,255)" name="captionsForegroundColor"/>
    <Attribute id="1678" value="en" name="lang"/>
    <Attribute id="1679" value="0" name="captionsAlignment"/>
    <Attribute id="1680" value="1" name="captionsDefaultFontSize"/>
    <Attribute id="1681" value="0.5" name="captionsOpacity"/>
    <Attribute id="1682" value="1" name="captionsBackgroundEnabled"/>
    <Attribute id="1683" value="1" name="captionsBackgroundOnlyAroundText"/>
   </CaptionAttributes>
   <Parameters>
    <VectorParam id="1684"  name="eyePosition">
     <InterpolatingParam id="1685" interp="linr"  time="0/1" value="0" leadInLength="0/1"  />
     <InterpolatingParam id="1686" interp="linr"  time="0/1" value="0" leadInLength="0/1"  />
     <InterpolatingParam id="1687" interp="linr"  time="0/1" value="3000" leadInLength="0/1"  />
    </VectorParam>
    <VectorParam id="1688"  name="eyeLookAtPosition">
     <InterpolatingParam id="1689" interp="linr"  time="0/1" value="0" leadInLength="0/1"  />
     <InterpolatingParam id="1690" interp="linr"  time="0/1" value="0" leadInLength="0/1"  />
     <InterpolatingParam id="1691" interp="linr"  time="0/1" value="0" leadInLength="0/1"  />
    </VectorParam>
    <VectorParam id="1692"  name="eyeUpVector">
     <InterpolatingParam id="1693" interp="linr"  time="0/1" value="0" leadInLength="0/1"  />
     <InterpolatingParam id="1694" interp="linr"  time="0/1" value="1" leadInLength="0/1"  />
     <InterpolatingParam id="1695" interp="linr"  time="0/1" value="0" leadInLength="0/1"  />
    </VectorParam>
    <InterpolatingParam id="1696" interp="linr"  time="0/1" value="0.23885785" leadInLength="0/1"  name="fov"/>
    <InterpolatingParam id="1697" interp="linr"  time="0/1" value="1.5" leadInLength="0/1"  name="nearClipDistance"/>
    <InterpolatingParam id="1698" interp="linr"  time="0/1" value="6000" leadInLength="0/1"  name="farClipDistance"/>
   </Parameters>
  </Timeline>
 </Project>
</GoProject>
</CSMLData>

</Project_Data>
